<svg xmlns="http://www.w3.org/2000/svg" width="300" height="300" viewBox="0 0 300 300">
  <defs>
    <style>
      .cls-1 {
        fill: #111;
        fill-rule: evenodd;
      }
    </style>
  </defs>
  <path id="Shape_321_1" data-name="Shape 321 1" class="cls-1" d="M136.577,5c24.593-.3,35.979,9.227,52.474,15.823C236.4,39.758,274.735,66.355,290.04,116.752c2.73,8.991,1.124,16.99,2.97,27.691L294,178.067l-8.911,36.591c-3.848,9.252-11.3,14.506-16.831,21.757-33.631,44.11-47.675,46.752-112.869,58.349-30.609,5.444-52.529-8.193-70.3-15.823-43.966-18.884-59.566-31.629-72.276-82.084-3.309-13.136-8.731-36.192-3.96-53.4,5.9-21.269,25.34-66.237,37.623-82.084C56.375,48.6,73.67,41.142,87.073,31.7L107.865,14.89C116.076,9.861,127.893,10,136.577,5Z"/>
</svg>
