<svg xmlns="http://www.w3.org/2000/svg" width="300" height="300" viewBox="0 0 300 300">
  <defs>
    <style>
      .cls-1 {
        fill: #111;
        fill-rule: evenodd;
      }
    </style>
  </defs>
  <!-- <path id="circle_1" data-name="circle 1" class="cls-1" d="M280.981,224.1l-11.245,12.989-9.463,12.566-9.483,10.736c-5.982,5.207-11.261,11.073-17.295,15.155-12.218,8.268-26.4,9.656-39.334,13.169-26.872,7.3-57.3,10.432-85.807,2.97-8.941-2.341-16.944-8.411-26.528-12.03-11.885-4.489-27.894-9.3-39.417-22.471-4-4.569-8.365-7.1-11.382-11.441-6.036-8.68-11.962-18.113-15.578-27.427-2.644-6.808-3.039-13.625-4.737-20.4-3.963-15.813-7.448-37.671-3.37-54.183,3.212-13.007,9.815-25.539,15.6-38.986C28.249,92.416,33.921,80.324,40.4,67.571c3.467-6.83,10.339-12.473,15.14-16.114L68.279,40.73l13.616-8.593c9.863-6.684,19.218-15.395,29.423-20.918C118,7.6,124.873,6.357,131.7,4.648c2.855-.715,6.033-1.708,8.958-1.708,11.084,0,21.228,3.024,33.185,8.159l9.166,4.989c7.351,3,14.851,5.4,21.974,8.106l18.46,9.351L238.76,45.522c13.029,6.853,27.279,24,33.6,33.166,16.927,24.574,22.435,45.24,22.234,71.837-0.078,10.364.886,20.643-.457,31.224-0.628,4.95-3.326,9.186-4.352,14.385l-0.291,5.944c-0.773,4.066-2.863,8.576-3.97,12.5Z"/> -->
  <path id="blob1" data-name="Shape 321 1" class="cls-1" d="M136.577,5c24.593-.3,35.979,9.227,52.474,15.823C236.4,39.758,274.735,66.355,290.04,116.752c2.73,8.991,1.124,16.99,2.97,27.691L294,178.067l-8.911,36.591c-3.848,9.252-11.3,14.506-16.831,21.757-33.631,44.11-47.675,46.752-112.869,58.349-30.609,5.444-52.529-8.193-70.3-15.823-43.966-18.884-59.566-31.629-72.276-82.084-3.309-13.136-8.731-36.192-3.96-53.4,5.9-21.269,25.34-66.237,37.623-82.084C56.375,48.6,73.67,41.142,87.073,31.7L107.865,14.89C116.076,9.861,127.893,10,136.577,5Z"/>
  <path style='visibility:hidden' id="blob2" data-name="Shape 320 1" class="cls-1" d="M136.168,3.74c29.047,7.55,67.8,24.97,80.991,37.471,36.694,34.781,50.7,16.043,67.83,66.84,3.074,9.117,4.187,30.565,6.074,41.522,0.338,11.477-1.349,26-1.012,37.471-3.037,12.489-4.05,15.867-7.087,28.357-3.935,9.473-24.718,24.981-30.371,32.407-34.388,45.169-32.625,17.471-89.09,42.534-29.058,12.9-61.811,1.738-79.979-6.076-44.956-19.337-59.9-18.211-72.892-69.878-3.384-13.453,6.408-57.679,7.087-75.955,0.971-26.17,13.762-60.739,26.322-76.967C54.16,48.393,51.6,38.726,65.3,29.059c7.086-5.738,26.12-8.418,41.507-15.191C115.205,8.718,114.728,8.83,136.168,3.74Z"/>
</svg>
