<svg xmlns="http://www.w3.org/2000/svg" width="300" height="300" viewBox="0 0 300 300">
  <defs>
    <style>
      .cls-1 {
        fill: #111;
        fill-rule: evenodd;
      }
    </style>
  </defs>
  <path id="circle_1" data-name="circle 1" class="cls-1" d="M280.981,224.1l-11.245,12.989-9.463,12.566-9.483,10.736c-5.982,5.207-11.261,11.073-17.295,15.155-12.218,8.268-26.4,9.656-39.334,13.169-26.872,7.3-57.3,10.432-85.807,2.97-8.941-2.341-16.944-8.411-26.528-12.03-11.885-4.489-27.894-9.3-39.417-22.471-4-4.569-8.365-7.1-11.382-11.441-6.036-8.68-11.962-18.113-15.578-27.427-2.644-6.808-3.039-13.625-4.737-20.4-3.963-15.813-7.448-37.671-3.37-54.183,3.212-13.007,9.815-25.539,15.6-38.986C28.249,92.416,33.921,80.324,40.4,67.571c3.467-6.83,10.339-12.473,15.14-16.114L68.279,40.73l13.616-8.593c9.863-6.684,19.218-15.395,29.423-20.918C118,7.6,124.873,6.357,131.7,4.648c2.855-.715,6.033-1.708,8.958-1.708,11.084,0,21.228,3.024,33.185,8.159l9.166,4.989c7.351,3,14.851,5.4,21.974,8.106l18.46,9.351L238.76,45.522c13.029,6.853,27.279,24,33.6,33.166,16.927,24.574,22.435,45.24,22.234,71.837-0.078,10.364.886,20.643-.457,31.224-0.628,4.95-3.326,9.186-4.352,14.385l-0.291,5.944c-0.773,4.066-2.863,8.576-3.97,12.5Z"/>
</svg>
