<svg xmlns="http://www.w3.org/2000/svg" width="100" height="100" viewBox="0 0 1000 1000">
  <defs>
    <style>
      .cls-1 {
        fill: #ff90ff;
        fill-rule: evenodd;
      }
    </style>
  </defs>
  <path id="donut_1" data-name="donut 1" class="cls-1" d="M389.857,56c15.238-.337,26.072,3.374,37.342,6.223,5.965,1.508,12.076-1.208,15.559-2.074l31.119,2.074c52.036,13.759,108.52,26.263,155.592,45.634,36.8,15.145,74.446,22.791,103.728,44.6,9.341,6.956,13.052,19.254,18.671,30.078,8.381,16.144,17.249,32.284,26.969,47.708,11.375,18.049,28.164,31,40.454,47.709,23.468,31.909,45.614,67.676,62.237,105.789,11.681,26.78,9.448,59.522,17.634,90.231,1.8,6.745,3.467,15.411,5.186,22.818l1.038,15.557c7.229,26.2,19.472,75.453,10.372,108.9-10.935,40.2-29.151,73.25-46.677,106.826-18.687,35.8-33.9,72.665-57.051,103.714-4.61,6.184-12.42,9.867-18.671,14.52-8.4,6.254-14.93,15.828-23.857,21.78-34.253,22.842-76,40.916-118.25,54.969-25.211,8.385-55.1,11.124-80.908,17.632l-35.268,1.037c-10.8,2.355-29.836,6.246-43.566,3.111-13.787-3.148-29.869-1.342-44.6-5.186-16.259-4.241-35.015-8.973-50.826-13.482-13.98-3.987-28.177-3.057-40.454-8.3-16.605-7.088-28.037-21.893-42.529-31.114-27.227-17.326-60.918-27.2-87.132-45.634-10.676-7.51-21.414-19.33-30.081-29.04-1.661-1.862-2.177-4.7-4.149-6.223-8.274-6.375-17.58-11.337-25.932-17.632-14.8-11.154-37.809-45.842-45.64-64.3-4.852-11.436-6.247-27.146-9.336-39.411V671.027q-4.667-13.482-9.335-26.966-1.038-19.185-2.075-38.374c-2.793-11.734-9.086-31.638-5.186-47.709,17.024-70.167,20.9-154.437,42.528-220.912,9.858-30.29,8.947-65.336,20.746-93.343,8.722-20.7,23.447-37.151,35.267-54.968,6.474-9.758,11.544-22.121,20.746-29.041,10.973-8.251,23.1-14.587,34.23-22.817,9.253-6.838,16.927-16.6,26.97-22.817,9.816-6.071,22.639-7.454,32.155-13.483,8.457-5.357,16.24-13.524,24.895-18.668l20.746-7.26c8.158-5.044,14.711-12.789,24.9-16.594C381.209,56.655,386.757,57.963,389.857,56Zm61.2,241.655L438.609,301.8C402.6,324.91,363.9,340.875,346.291,382.7c-5.714,13.572-4.643,29.771-9.335,44.6-5.079,16.044-5.942,34.079-10.373,52.894-8.269,35.113-11.731,65.038-2.075,100.6,2.356,8.675.229,16.122,3.112,23.855,4.263,11.431,14.532,27.417,23.858,34.225,2.9,2.117,5.829,2.775,8.3,5.186,7.546,7.371,13.584,16.068,22.82,21.78,7.3,4.513,15.294,5.842,22.82,10.372,10.419,6.27,18.649,17.05,30.081,21.78,5.69,2.354,11.261,1.237,17.634,3.111,32.77,9.638,74.519,12.456,109.952,1.037,23.76-7.657,62.666-25.1,75.721-42.523,10.665-14.233,16.327-31.161,24.895-47.708,7.829-15.12,17-30.611,21.783-48.746,5.187-19.68-3.007-51.86-7.261-68.452q-2.594-18.149-5.186-36.3c-6.522-19.819-18.562-40.078-30.081-56.006-4-5.522-10.58-9.921-14.522-15.557-7.807-11.159-14.78-36.134-24.895-43.56-10.893-8-23.762-11.047-37.342-16.594a590.313,590.313,0,0,0-79.871-25.929H464.541C461.182,299.947,455.188,298.474,451.057,297.655Z"/>
</svg>
