<svg xmlns="http://www.w3.org/2000/svg" width="2000" height="132" viewBox="0 0 2000 132">
  <defs>
    <style>
      .cls-1 {
        fill: #f6edd4;
        fill-rule: evenodd;
      }
    </style>
  </defs>
  <path class="cls-1" d="M23,90.769l4-16.3L56,62.61s179.459-9.144,205-5.928,81,10.375,81,10.375l38,1.482,48-20.749S568.006,10.727,610,30c48,6.375,167.735,8.066,341,45.944,62.85-7.2,225-17.785,225-17.785s128.91-31.556,136-35.57,15.99-2.774,34,0c21.39,3.3,144,23.713,144,23.713s37.2,9.776,155-4.446c88.7-10.709,143.38-14.426,163-8.892s74,8.892,74,8.892l25-2.964,29-1.482,24,2.964,18,19.267-9,7.41-17,8.892h-59L1774,65.574s-211.53,28.081-330,8.892-133-17.785-133-17.785a113.069,113.069,0,0,1-27,11.857c-16.3,4.862-76,13.339-76,13.339l-88,7.41H1020L936,113,833,87.8H692S568.022,19,390,102.625c-60.247.387-75-2.964-75-2.964L214,89.287,43,98.179H25Z"/>
</svg>
