<svg xmlns="http://www.w3.org/2000/svg" width="100" height="100" viewBox="0 0 1000 1000">
  <defs>
    <style>
      .cls-1 {
        fill: #ff90ff;
      }

      .cls-1, .cls-2 {
        fill-rule: evenodd;
      }

      .cls-2 {
        fill: #9a44f2;
      }
    </style>
  </defs>
  <path id="square_1" data-name="square 1" class="cls-1" d="M403.86,115.229h62.749c10.8,0,24.414-.906,33.466,1.046,11.14,2.4,25.723-1.075,35.558,1.046,11.14,2.4,25.723-1.075,35.557,1.046h26.146c18.993,4.113,42.359,1.268,60.657,5.23H681c21.883,4.736,49.663-1.489,71.115,3.139h36.6l72.161,5.23c9.759-1.81,23.2-3.623,33.466-1.046a87.45,87.45,0,0,1,30.328,14.645c14.082,10.479,18.605,28.658,23.008,49.166q-0.522,13.074-1.045,26.151c5.851,27.13,3.139,61.74,3.137,93.1v44.981c5.516,25.2,7.24,50.145,13.6,75.318,2.985,11.825,9.663,30.087,6.274,46.027-2.706,12.731-3.564,26.47-6.274,38.7q-0.523,9.936-1.046,19.875c-1.528,7.122-2.975,22.634-1.046,31.383,4.7,21.317,9.356,40.517,14.641,59.626,5.752,20.8,7.306,42.78,12.55,62.764q3.66,29.811,7.321,59.627v26.152c2.793,18.574.493,41.954-3.138,58.58q-1.045,19.35-2.091,38.705c-5.851,26.118-11.081,45.429-29.283,58.58-37.162,26.848-82.334,2.065-130.727,12.553-19.245,4.17-41.2,4.193-63.794,4.184-10.169,0-19.582-1.859-28.237,0H710.284c-15.285,3.28-31.78,2.986-47.062,6.276H617.206c-32.279,6.9-87.7-1.063-116.085-7.322l-50.2-2.092-56.474-6.277-40.787,1.046c-32.437,7-68.08,8.369-105.627,8.369-14.8,0-34.149,2.607-47.062-1.046a98.151,98.151,0,0,1-30.328-14.645c-18.086-13.443-24.485-36.8-30.329-62.765V856.9c-1.314-6.107-2.708-19.456-1.046-27.2,3.549-16.531,5.061-38.609,1.046-56.488-2.983-13.284-4.3-28.81-7.321-41.843L130.9,710.446c-3.176-11.14-7.411-24.4-10.458-36.613-2.254-9.031-1.262-19.51-3.138-28.244-3.954-18.411,2-57.625,5.229-72.179q1.046-13.6,2.092-27.2c6.933-29.243,9.1-61.02,15.687-91.009q0.523-15.688,1.046-31.382c6.482-29.9,5.3-64.627,11.5-93.1,2.977-13.658-2.654-30.505-5.229-40.8-3.468-13.857-3.177-25.859-7.321-38.7-4.249-13.171-10.214-26.241-13.595-40.8-4.7-20.213,7.97-47.872,14.641-58.581,7.25-11.639,21.505-22.579,35.558-27.2,14.985-4.926,32.546,2.534,49.153-1.047,8.6-1.853,22.753-.795,31.374,0,26.317,2.428,59.792.519,81.574-4.184H356.8c7.383-1.6,18.551-1.5,26.145-3.138C389.426,114.876,399.079,118.188,403.86,115.229Z"/>
  <path id="square_1_copy" data-name="square 1 copy" class="cls-2" d="M353.86,75.229h62.749c10.8,0,24.414-.906,33.466,1.046,11.14,2.4,25.723-1.075,35.558,1.046,11.14,2.4,25.723-1.075,35.557,1.046h26.146c18.993,4.113,42.359,1.268,60.657,5.23H631c21.883,4.735,49.663-1.489,71.115,3.138h36.6l72.161,5.23c9.759-1.81,23.2-3.623,33.466-1.046a87.465,87.465,0,0,1,30.328,14.645c14.082,10.479,18.605,28.658,23.008,49.166q-0.522,13.074-1.045,26.151c5.851,27.13,3.139,61.74,3.137,93.1v44.981c5.516,25.2,7.24,50.145,13.6,75.318,2.985,11.825,9.663,30.087,6.274,46.027-2.706,12.731-3.564,26.47-6.274,38.7q-0.523,9.936-1.046,19.875c-1.528,7.122-2.975,22.634-1.046,31.383,4.7,21.317,9.356,40.517,14.641,59.626,5.752,20.8,7.306,42.78,12.55,62.764q3.66,29.811,7.321,59.627v26.152c2.793,18.574.493,41.954-3.138,58.58q-1.045,19.35-2.091,38.705c-5.851,26.118-11.081,45.429-29.283,58.58-37.162,26.848-82.334,2.065-130.727,12.553-19.245,4.17-41.2,4.193-63.794,4.184-10.169,0-19.582-1.859-28.237,0H660.284c-15.285,3.28-31.78,2.986-47.062,6.276H567.206c-32.279,6.9-87.7-1.063-116.085-7.322l-50.2-2.092-56.474-6.277-40.787,1.046c-32.437,7-68.08,8.369-105.627,8.369-14.8,0-34.149,2.607-47.062-1.046a98.151,98.151,0,0,1-30.328-14.645c-18.086-13.443-24.485-36.8-30.329-62.765V816.9c-1.314-6.107-2.708-19.456-1.046-27.2,3.549-16.531,5.06-38.609,1.046-56.488-2.983-13.284-4.3-28.81-7.321-41.843L80.9,670.446c-3.176-11.14-7.411-24.4-10.458-36.613-2.254-9.031-1.262-19.51-3.137-28.244-3.954-18.411,2-57.625,5.229-72.179l2.092-27.2c6.933-29.243,9.1-61.02,15.687-91.009q0.523-15.688,1.046-31.382c6.482-29.9,5.3-64.627,11.5-93.1,2.977-13.658-2.654-30.505-5.229-40.8-3.468-13.857-3.177-25.859-7.321-38.7-4.249-13.171-10.214-26.241-13.6-40.8-4.7-20.213,7.971-47.872,14.641-58.581,7.25-11.639,21.5-22.579,35.558-27.2,14.985-4.925,32.546,2.535,49.153-1.046,8.6-1.853,22.753-.8,31.374,0,26.317,2.427,59.792.518,81.574-4.184H306.8c7.383-1.6,18.551-1.5,26.145-3.138C339.426,74.876,349.079,78.188,353.86,75.229Z"/>
</svg>
