<svg xmlns="http://www.w3.org/2000/svg" width="100" height="100" viewBox="0 0 1000 1000">
  <defs>
    <style>
      .cls-1 {
        fill: #fff690;
        fill-rule: evenodd;
      }
    </style>
  </defs>
  <path id="square_1" data-name="square 1" class="cls-1" d="M548.843,920.938l-7.256.348c-1.249.06-2.78,1.041-3.92-.859-1.4-2.338-2.924,1.217-4.163-.847-1.4-2.338-2.923,1.217-4.162-.848l-3.023.145c-2.394-4-4.959-1.031-7.265-4.887l-2.661.128c-2.758-4.609-5.672,1.763-8.374-2.74l-4.233.2-8.6-4.824c-1.041,1.863-2.508,3.748-3.819,1.231-1.461-2.805-2.943-8.284-4.21-14.46-2.131-10.389-3.526-28.521-5.018-48.981q-0.567-13.064-1.133-26.128c-1.978-27.066-3.324-61.651-4.828-92.976q-1.078-22.463-2.157-44.929c-1.846-25.14-3.242-50.047-5.184-75.156-0.912-11.794-2.56-30-2.933-45.939-0.3-12.732-.857-26.46-1.13-38.695q-0.417-9.929-.832-19.859c-0.165-7.122-.742-22.623-1.384-31.352-1.566-21.267-3.025-40.418-4.553-59.476-1.662-20.742-2.9-42.69-4.461-62.623q-1.853-29.755-3.706-59.517-0.627-13.059-1.254-26.122c-1.214-18.537-2.069-41.9-2.446-58.53q-0.807-19.334-1.614-38.672c-0.576-26.121-.9-45.439.577-58.675,3.01-27.023,9.422-2.52,14.515-13.264,2.026-4.273,4.563-4.417,7.177-4.534,1.176-.052,2.353,1.748,3.265-0.157l3.265-.157c1.61-3.361,3.532-3.159,5.141-6.531L483.79,81c3.4-7.066,10.192.575,13.775,6.67l5.905,1.811,6.832,5.956,4.666-1.271c3.416-7.173,7.472-8.737,11.814-8.945,1.711-.082,3.824-2.794,5.492.783a73.872,73.872,0,0,1,4.21,14.46c2.736,13.327,4.6,36.621,6.517,62.523q0.376,7.836.752,15.674c0.445,6.093,1.246,19.418,1.425,27.16,0.383,16.533,1.267,38.593,2.588,56.429,0.982,13.253,1.879,28.754,2.853,41.755q0.624,10.442,1.246,20.885c0.9,11.11,2.027,24.335,2.965,36.513,0.693,9.008,1.081,19.48,1.717,28.194,1.34,18.367,2.532,57.57,2.857,72.125q0.531,13.589,1.062,27.178c0.6,29.248,1.874,61,2.55,90.991q0.692,15.675,1.384,31.352c0.685,29.906,2.487,64.582,3.134,93.058,0.311,13.658,1.77,30.456,2.561,40.721,1.066,13.822,1.608,25.812,2.7,38.619,1.123,13.132,2.44,26.154,3.529,40.675,1.512,20.163,1.374,47.86,1.116,58.594-0.281,11.666-1.4,22.673-2.808,27.364-1.5,5-3.885-2.351-5.634,1.318-0.9,1.9-2.593.92-3.628,0.174-3.16-2.278-6.939-.186-9.233,4.632l-2.055.1c-0.777,1.64-2.074,1.6-2.873,3.28C550.529,921.21,549.254,917.955,548.843,920.938Z"/>
</svg>
