<svg xmlns="http://www.w3.org/2000/svg" width="100" height="100" viewBox="0 0 1000 1000">
  <defs>
    <style>
      .cls-1 {
        fill: #9a44f2;
      }

      .cls-1, .cls-2 {
        fill-rule: evenodd;
      }

      .cls-2 {
        fill: #44e0f2;
      }
    </style>
  </defs>
  <path id="triang_1_1_copy" data-name="triang 1 1 copy" class="cls-1" d="M568.7,152c28.7,0.3,32.013,16.338,42.94,33.689,8.116,12.886,18.847,28.116,24.418,42.953q1.262,7.158,2.525,14.318c5.025,12.195,11.725,23.741,18.524,34.531,5.968,9.472,13.539,19.248,19.365,28.635,4.659,7.507,5.962,17.284,10.946,24.424,10.955,15.7,27.626,27.268,37.888,43.8,3.623,5.834,4.688,11.9,7.578,18.529C738,404.6,744.5,417.862,749.723,429.932c1.668,3.856,1.446,7.233,3.368,10.949,6.749,13.047,15.024,26.885,22.733,39.584,3.155,5.2,3.581,11.594,6.736,16.845,5,8.325,11.242,17.98,15.155,26.951,3.571,8.185,4.854,16.18,8.42,24.424,2.516,5.817,6.841,12,9.262,17.687,2.746,6.448,3.282,12.852,6.735,18.529,8.215,13.5,16.762,27.63,26.1,40.426l22.733,22.74c16.31,21.659,33.569,42.054,44.625,69.062,10.234,25,15.33,51.041,26.1,75.8,3.948,9.074,10.336,18.66,14.313,27.793,4.016,9.222,5.869,18.74,10.946,26.951,4.28,6.922,9.264,14.529,12.629,22.74,9.251,22.576,13.13,44.129-8.42,57.271-6.006,3.662-14.015,4.206-23.575,4.211-23.517.011-38.3-2.989-57.253-7.58-7.457-1.806-19.256-4.127-27.785-1.685-8.685,2.487-18.3,6.107-28.627,8.423-9.8,2.2-24.674.1-32.837-1.685l-38.73-.842c-9.381-2.1-18.934-4.641-27.785-6.738l-19.366-.842c-6.966-1.563-15.638-2.624-22.733-4.211l-16.839-.842c-4.779-1.067-13.656-3.674-19.365-2.527a142.634,142.634,0,0,1-26.943,2.527H611.64c-13.382,3.026-29.689,4.551-42.94,7.58H555.229c-1.75.373-6.2,1.5-9.262,0.842-9.873-2.14-21.877.818-32.837-1.685-6.925-1.581-13.044-3.353-21.891-3.369-49.636-.086-101.593,5.934-145.66-4.211-16.805-3.868-43.5-.845-62.306-0.842H266.434c-16.1-3.69-32.969-7.49-47.15-11.791-16.058-4.87-25.853-3.659-32.837-17.687-8.34-16.752,6.762-40.767,11.788-53.9,18.094-47.286,35.184-91.259,54.727-137.281,6.615-15.577,16.736-30.131,23.575-45.48,9.732-21.838,15.051-47.821,26.943-67.378,4.507-7.41,8.464-16.046,13.472-23.582,9.485-14.273,21.91-27.485,31.153-42.111,5.258-8.32,8.18-17.715,13.471-26.108,15.512-24.607,33.184-49.349,48.834-74.116,8.137-12.877,13.81-26.782,21.891-39.584,4.17-6.6,10.207-12.748,14.314-19.371,3.322-5.358,4.07-11.689,6.736-17.687,6.584-14.812,17.042-30.067,23.575-45.479,4.838-11.414,6.069-23.328,10.945-34.531,6.968-16.008,17.742-29.956,26.943-43.8,5.475-8.236,8.607-17.262,14.314-25.266,3.454-4.846,9.076-8.756,12.629-13.476,4.183-5.557,7.862-13.639,13.472-17.686C559.1,155.1,564.671,154.806,568.7,152Z"/>
  <path id="triang_1_1" data-name="triang 1 1" class="cls-2" d="M481.7,110c28.7,0.3,32.013,16.338,42.94,33.689,8.116,12.886,18.847,28.116,24.418,42.953q1.262,7.158,2.525,14.318c5.025,12.195,11.725,23.741,18.524,34.531,5.968,9.472,13.539,19.248,19.365,28.635,4.659,7.507,5.962,17.284,10.946,24.424,10.955,15.7,27.626,27.268,37.888,43.8,3.623,5.834,4.688,11.9,7.578,18.529C651,362.6,657.5,375.862,662.723,387.932c1.668,3.856,1.446,7.233,3.368,10.949,6.749,13.047,15.024,26.885,22.733,39.584,3.155,5.2,3.581,11.594,6.736,16.845,5,8.325,11.242,17.98,15.155,26.951,3.571,8.185,4.854,16.18,8.42,24.424,2.516,5.817,6.841,12,9.262,17.687,2.746,6.448,3.282,12.852,6.735,18.529,8.215,13.5,16.762,27.63,26.1,40.426l22.733,22.74c16.31,21.659,33.569,42.054,44.625,69.062,10.234,25,15.33,51.041,26.1,75.8,3.948,9.074,10.336,18.66,14.313,27.793,4.016,9.222,5.869,18.74,10.946,26.951,4.28,6.922,9.264,14.529,12.629,22.74,9.251,22.576,13.13,44.129-8.42,57.271-6.006,3.662-14.015,4.206-23.575,4.211-23.517.011-38.3-2.989-57.253-7.58-7.457-1.806-19.256-4.127-27.785-1.685-8.685,2.487-18.3,6.107-28.627,8.423-9.8,2.2-24.674.1-32.837-1.685l-38.73-.842c-9.381-2.1-18.934-4.641-27.785-6.738l-19.366-.842c-6.966-1.563-15.638-2.624-22.733-4.211l-16.839-.842c-4.779-1.067-13.656-3.674-19.365-2.527a142.634,142.634,0,0,1-26.943,2.527H524.64c-13.382,3.026-29.689,4.551-42.94,7.58H468.229c-1.75.373-6.2,1.5-9.262,0.842-9.873-2.14-21.877.818-32.837-1.685-6.925-1.581-13.044-3.353-21.891-3.369-49.636-.086-101.593,5.934-145.66-4.211-16.805-3.868-43.5-.845-62.306-0.842H179.434c-16.1-3.69-32.969-7.49-47.15-11.791-16.058-4.87-25.853-3.659-32.837-17.687-8.34-16.752,6.762-40.767,11.788-53.9,18.094-47.286,35.184-91.259,54.727-137.281,6.615-15.577,16.736-30.131,23.575-45.48,9.732-21.838,15.051-47.821,26.943-67.378,4.507-7.41,8.464-16.046,13.472-23.582,9.485-14.273,21.91-27.485,31.153-42.111,5.258-8.32,8.18-17.715,13.471-26.108,15.512-24.607,33.184-49.349,48.834-74.116,8.137-12.877,13.81-26.782,21.891-39.584,4.17-6.6,10.207-12.748,14.314-19.371,3.322-5.358,4.07-11.689,6.736-17.687,6.584-14.812,17.042-30.067,23.575-45.479,4.838-11.414,6.069-23.328,10.945-34.531,6.968-16.008,17.742-29.956,26.943-43.8,5.475-8.236,8.607-17.262,14.314-25.266,3.454-4.846,9.076-8.756,12.629-13.476,4.183-5.557,7.862-13.639,13.472-17.686C472.1,113.1,477.671,112.806,481.7,110Z"/>
</svg>
