<svg xmlns="http://www.w3.org/2000/svg" width="100" height="100" viewBox="0 0 1000 1000">
  <defs>
    <style>
      .cls-1 {
        fill: #ff90ff;
        fill-rule: evenodd;
      }
    </style>
  </defs>
  <path id="triang_1_1" data-name="triang 1 1" class="cls-1" d="M479.661,21.68c34.748,0.366,38.756,19.766,51.986,40.757,9.825,15.589,22.817,34.015,29.561,51.964q1.529,8.66,3.058,17.322c6.082,14.754,14.2,28.721,22.425,41.775,7.226,11.459,16.392,23.287,23.445,34.643,5.641,9.082,7.218,20.91,13.251,29.548,13.264,18.99,33.446,32.989,45.871,52.984,4.386,7.058,5.675,14.4,9.174,22.416,6.192,14.183,14.065,30.23,20.386,44.832,2.02,4.665,1.751,8.75,4.078,13.246,8.171,15.784,18.188,32.525,27.522,47.889,3.82,6.288,4.335,14.026,8.154,20.378,6.056,10.072,13.611,21.752,18.348,32.6,4.323,9.9,5.877,19.575,10.194,29.549,3.046,7.037,8.282,14.522,11.213,21.4,3.325,7.8,3.974,15.548,8.154,22.416,9.945,16.338,20.293,33.427,31.6,48.908l27.522,27.51c19.745,26.2,40.64,50.877,54.025,83.551,12.39,30.248,18.559,61.749,31.6,91.7,4.78,10.979,12.514,22.575,17.329,33.624,4.862,11.158,7.1,22.672,13.251,32.605,5.182,8.374,11.217,17.577,15.29,27.511,11.2,27.312,15.9,53.387-10.193,69.286-7.272,4.431-16.968,5.089-28.542,5.1-28.472.013-46.367-3.616-69.315-9.171-9.027-2.185-23.312-4.992-33.638-2.037-10.514,3.008-22.148,7.387-34.657,10.189-11.869,2.658-29.872.123-39.754-2.038l-46.89-1.019c-11.357-2.546-22.922-5.615-33.638-8.151l-23.444-1.019c-8.434-1.89-18.933-3.175-27.523-5.1l-20.386-1.019c-5.786-1.29-16.533-4.444-23.445-3.056a172.806,172.806,0,0,1-32.619,3.056H531.647c-16.2,3.662-35.944,5.507-51.986,9.171H463.352c-2.119.451-7.509,1.821-11.213,1.018-11.953-2.589-26.485.991-39.754-2.037-8.384-1.914-15.792-4.057-26.5-4.076-60.092-.1-122.995,7.178-176.345-5.1-20.345-4.68-52.664-1.022-75.431-1.019H113.719c-19.487-4.464-39.914-9.061-57.082-14.264-19.441-5.892-31.3-4.427-39.754-21.4-10.1-20.267,8.186-49.32,14.271-65.211,21.906-57.207,42.6-110.4,66.257-166.082,8.008-18.846,20.261-36.452,28.541-55.022,11.782-26.419,18.222-57.853,32.619-81.513,5.456-8.965,10.247-19.413,16.31-28.529,11.483-17.268,26.525-33.252,37.715-50.946,6.366-10.065,9.9-21.432,16.309-31.586,18.78-29.769,40.175-59.7,59.122-89.664,9.851-15.579,16.719-32.4,26.5-47.889,5.048-7.991,12.356-15.423,17.328-23.435,4.022-6.482,4.927-14.141,8.155-21.4,7.971-17.92,20.632-36.376,28.541-55.022,5.858-13.808,7.348-28.222,13.252-41.775,8.436-19.367,21.479-36.24,32.619-52.983,6.628-9.964,10.419-20.884,17.328-30.567,4.183-5.862,10.989-10.593,15.29-16.3,5.065-6.723,9.519-16.5,16.31-21.4C468.039,25.433,474.784,25.075,479.661,21.68Z"/>
</svg>
