<svg xmlns="http://www.w3.org/2000/svg" width="210" height="2400" viewBox="0 0 210 2400">
  <defs>
    <style>
      .cls-1 {
        fill: #f6edd4;
        fill-rule: evenodd;
      }
    </style>
  </defs>
  <path id="line_1" data-name="line 1" class="cls-1" d="M91.078-29H146.8c-0.078,31.4-10.131,60.7-3.04,92.327,3.189,14.224,2.408,30.1,6.079,44.642,6.057,23.993,12.929,61.717,6.079,92.327q-1.012,17.752-2.026,35.51c-2.013,8.938-.763,19.456-3.04,29.423q-7.09,52.247-14.184,104.5-1.519,20.29-3.04,40.584c-2.131,9.794-2.9,23.659-3.039,34.5V465.1c-1.312,6.127-2.733,19.692-1.013,27.394q1.519,19.782,3.039,39.569C141.236,566.618,144.983,605,153.9,639.61c3.419,13.28,2.6,25.332,6.079,38.555,4.664,17.747,5.6,36.845,10.132,55.8,1.681,7.03,5.58,19.693,3.039,29.423-3.326,12.737-10.805,27.338-15.2,40.583-5.949,17.936-8.263,34.715-14.185,52.758-9.5,28.93-18.559,60.527-26.342,90.3q-3.04,42.609-6.079,85.221c-4.269,19.29-.64,41.79-5.066,61.89-3.149,14.3-.683,30.29-4.053,45.66-6.968,31.78-5.5,68.19-11.145,99.43q12.157,55.29,24.316,110.59c10.5,38.98,10.776,81.04,20.264,120.73,3.106,13,2.257,26.49,5.066,38.56,4.155,17.85,2.235,36.89,6.079,53.77q3.039,38.04,6.079,76.1c3.21,14.55.81,31.79,5.066,46.67,1.72,6.01,5.307,13.35,7.092,20.29q0.506,10.14,1.013,20.29c0.764,3.6,2.174,12.07,1.013,17.25-3.214,14.33-.582,30.15-4.053,44.64-10.989,45.86-15.053,91.63-29.382,133.92-2.743,8.1-8.466,15.93-12.158,23.34-4.715,9.47-7.4,18.21-12.158,27.39-1.864,3.6-5.86,8.36-7.092,12.18q1.013,22.32,2.026,44.64c0.447,20.61,3.754,40.68,8.106,58.85,4.72,19.7,3.822,39.85,8.1,58.84,2.215,9.82.879,47.33-1.013,55.8-2.334,10.46,1.042,24.28-1.013,33.48q-0.507,25.365-1.013,50.73c-2.934,13.31,1.162,29.15-2.027,43.63-1.106,5.03.369,14.01-1.013,20.29-3.6,16.37-3,36.78-3.039,54.79H59.67l12.158-204.95c-9.446-44.35-7.065-94.18-17.224-137.98q-0.507-12.675-1.013-25.36c-2.106-9.88,1.346-24.37-1.013-35.51-1.207-5.71-3.349-21.29-1.013-28.41,2.892-8.83,10.433-17.85,14.184-26.38,10.447-23.75,19.947-48.66,28.369-74.07,7.381-22.27,9.574-46.14,15.2-70,2.373-10.07.912-20.97,3.04-30.44,2.178-9.69.855-46.45-1.013-54.79l-1.014-21.3c-4.361-18.73-5.362-38.12-11.145-55.81-4.91-15.01-9.942-30.31-16.211-44.64-2.125-4.86-7.492-10.47-9.118-15.22V1394.46c-3.532-13.96-8.753-30.01-13.171-43.63-6.142-18.93-8.429-36.86-14.184-55.8-2.173-7.15-11.415-27.84-9.119-36.52,9.3-35.17,24.866-70.43,34.448-105.52v-78.12c0-43.72-1.2-88.066,7.092-124.8l3.04-42.613c7.3-31.223,8.507-65.4,18.237-95.37,2.549-7.854,5.836-18.2,10.131-25.365,2.326-3.878,7.68-8.974,9.119-13.19,1.985-5.815-1.016-15.861-2.026-20.291-4.5-19.729-3.557-39.647-8.106-57.832l-3.039-25.364C97.782,636.8,95.955,600.9,88.039,566.56q-2.026-26.883-4.053-53.773V473.219c-0.3-16.628-2.947-45.163,1.013-62.9q1.52-37.029,3.04-74.065c3.375-15.235.442-32.487,4.053-48.7,8.213-36.879,6.111-77.981,14.185-113.633,1.507-6.659-.838-16.051-2.027-21.307-3.1-13.714-1.212-28.005-4.052-40.583q-1.52-20.8-3.04-41.6C90.431,40.362,91.169,6.7,91.078-29Z"/>
</svg>
