<svg xmlns="http://www.w3.org/2000/svg" width="1080" height="1080" viewBox="0 0 1080 1080">
  <defs>
    <style>
      .cls-1 {
        fill: #86f899;
        fill-rule: evenodd;
      }
    </style>
  </defs>
  <path id="circle_1" data-name="circle 1" class="cls-1" d="M432.742,16.8l62.616,3.131,57.4-1.044,52.18,3.131c28.417,5.493,57.146,7.484,82.444,15.653,51.233,16.543,87.092,54.182,126.276,83.48,81.38,60.849,158.792,141.285,201.414,240,13.37,30.968,13.91,67.62,25.05,103.307,13.81,44.255,35.96,101.1,24,163.829-4.15,21.76-1.61,40.011-7.31,58.436-11.38,36.864-25.18,75.105-43.83,106.437-13.627,22.9-32.337,39.363-48,59.479-36.552,46.938-91.556,106.087-148.191,131.481-44.613,20-95.483,29.193-147.148,42.783-47.375,12.46-94.889,23.34-146.1,33.39-27.428,5.39-59.1-1.68-80.357-7.3q-29.739-6.27-59.485-12.52l-55.311-19.83c-41.385-13.33-87.456-20.64-126.276-37.566C176.685,972,157.662,955.04,137.4,939.257c-8.472-6.6-18.471-13.5-25.046-21.914C87.441,885.48,73.332,849.52,61.221,803.6l-6.262-37.566c-7.894-27.88-17.862-54.83-26.09-81.393l-14.61-74.088V539.6c-9.584-52.86,7.664-132.361,19.828-171.134,32.6-103.9,79.629-166.189,156.54-225.4C220.6,120,247.984,94.12,281.42,74.2c15.641-9.32,33.885-11.088,51.136-19.826L350.3,41.848c13.426-6.918,31.09-11.049,44.874-16.7Z"/>
</svg>
