<svg id="Layer_1" data-name="Layer 1" xmlns="http://www.w3.org/2000/svg" width="1043.03" height="298.96" viewBox="0 0 1043.03 298.96">
  <path id="box3_1" data-name="box3 1" d="M239.48,18c1.72-.68,23.15-3.25,25-3.25L300.73,17c9.79,0,39.65-7.09,48.1-5.46a10.12,10.12,0,0,0,1.9.19h25.44c18.36,0,34.17.75,48.74,4.07,10.21,2.32,21,1,30.27,2.8a16.6,16.6,0,0,0,2.44.3l20.57.94a6.15,6.15,0,0,1,1.05.13c13.18,2.83,19.77-4.21,33.24-1.22,7.66,1.7,23.86,5.86,30.5,4.5.48-.09,7.06,1.69,7.55,1.67L570,27c.31,0,10.45-.18,10.75-.25,14.46-3.1,18.46-9.75,36-9.75l21.75,6.75c21.34,4.65,34.65-2.66,55.5,2C712.92,30,745.4,29,769.12,29h16.16a10,10,0,0,0,2.18-.24c9.39-2,17.87-.26,26.77-2.27.69-.15,26.79,1.52,27.5,1.5l14.5-2.5c.48,0,6.57-4.56,7-4.65,7-1.35,11.15-.53,18.42.8a14.24,14.24,0,0,0,2.69.24H900a9.8,9.8,0,0,1,2.16.24c15.72,3.59,22-.57,41.29-.63,25.75-.42,54.08-17,100.81,11.57,6.52,4.66,1.93,3.8,5.19,12.18,1,2.57,2.15,11.12,3,14.25,2.11,7.72,2.08,9.67-.25,14.25-1,2-1.5,11.31-1.5,13.5L1057,101c0,1.14-3.37,18.15-3,19.23,3.53,10.67,5.23,13.33.76,29.77-1.28,4.67,6.68,21,5.5,24.75-1.42,4.48-10.17,25-9.25,29,2.51,11,1.48,25.27-.5,34,5.75,10.5,1.5,18.5,6,26.06-5.27,18.76-4.1,19.43-22.77,24.44-11.89,3.18-51.19,10.12-64.55,10.12H903.24a9.8,9.8,0,0,1-2.16-.24c-9-2.07-18.93-4.77-27.37-6.87s-24.1-.69-31.65.84a9.49,9.49,0,0,1-1.84.18H825a9.38,9.38,0,0,0-2,.21c-6.15,1.28-14.11,2.31-20.19,3.59-.78.17-8-4.31-8.81-4.33l-34.1,3.6a7.92,7.92,0,0,0-1.81.16c-29.37,6-61.48-4.25-91.5-4.25h-18.4a11.89,11.89,0,0,0-1.78.16c-5.75.93-14.57-.49-21.36.64-.74.13-1.48.24-2.22.3l-61.2,5a9,9,0,0,0-1.27.19c-24.87,5.73-12.43-1.25-43.61-1.25l-50.5.75c-.49,0-25.26,2.36-25.75,2.25-23-4.93-40.66,2.53-63.94-2.6a9.75,9.75,0,0,0-2.8-.2l-37.8,2.91c-.26,0-.51,0-.78,0-20,0-41.24-1.59-58.5,0-38.2,3.53-17.18,5.86-58.43,10.86-.83.1-17.41-6.27-18.25-6.25l-58.75-15.25c-.78,0-20.23,2.92-21,2.75-15.33-3.36-33.34,2-46.65-2.27C60.5,285,46.64,287,37,280.06c-4.73-3.43-6.85-9.25-10.15-14.23-9.41-14.17-4.54-4.94.6-28.35.09-.4-4-13.08-4-13.5.31-5.58-3.05-10.41-2.75-16,0-.62,3.1-13.64,3.25-14.25,2.81-10.78,2.64-24.48-1.17-38.7-.84-3.17-3.34-7.52-4.64-10.94a9.68,9.68,0,0,1-.55-2.32l.86-11c-.08-.73-.26-9.8-.5-10.5-3-8.71,4.7-7.24,8-21.23,1.83-7.69-4.92-28.7-3-36,2.84-10.79-6.54-19.61-1.2-27.92C33,31,47.23,25.73,68.23,28.73c38.34-6.87,41.5-5.75,64.5,2.25.65.23,26.48-11.15,27.16-11.15h16.29a9.65,9.65,0,0,0,1.93-.2c12.34-2.49,27.64-1.14,39.66-3.87C228.51,13.34,229.71,21.87,239.48,18Z" transform="translate(-17.32 -11.28)" style="fill: #f6edd4;fill-rule: evenodd"/>
</svg>
