<svg xmlns="http://www.w3.org/2000/svg" width="980" height="1030" viewBox="0 0 980 1030">
  <defs>
    <style>
      .cls-1 {
        fill: #f6edd4;
        stroke: #000;
        stroke-width: 0.49px;
        fill-rule: evenodd;
      }
    </style>
  </defs>
  <path id="long_box_1" data-name="long box 1" class="cls-1" d="M41.888,0.13A379.729,379.729,0,0,1,81.914,2.206c12.116,1.248,24.691.937,36.024,2.076L152.961,5.06h31.02L211,4.022c30.62-3.228,72.812-4.252,105.57-1.038l23.515,0.778H366.1l86.557,0.778c23.43,2.219,49.8,1.557,76.05,1.557h31.021l53.535,1.038h20.013L672.8,7.395c23.259,0,48.089.7,68.545-1.3L789.88,4.281h15.01c29.279-2.76,65.635-1.555,99.065-1.557,21.865,0,51.428-1.61,61.04,4.929,5.122,3.484,8.056,10.208,5,16.345q-2.251,4.151-4.5,8.3c1.113,5.421,6.247,9.523,9.506,13.75,2.208,2.865,2.78,6.246,4,9.6,2.674,7.333-2.363,15.193-5,20.755l-5.5,15.307q-6,11.414-12.008,22.831c-2.315,4.572,1.714,9.6,3.5,14.01,3.228,7.953,1.544,15.527,4.5,24.128q0.5,8.3,1,16.6c-10.3,28.68-28.415,55.743-27.018,89.507,11.938,4.636,13.184,13.881,17.511,22.571,2.612,5.245,4.378,10.852,6.5,16.605q1,7.911,2,15.826c1.642,4.3,4.923,13.256,3,18.679-3.039,8.578-4.085,16.1-8,23.869-1.915,3.794-10.343,19.152-8.506,23.09l3.5,4.93,5,18.939q-0.25,5.188-.5,10.377,2.753,18.29,5.5,36.582,2,44.619,4,89.247c2.1,5.855.369,17.138-1.5,22.312q-0.5,4.021-1,8.043-3.252,10.765-6.5,21.534-0.5,4.8-1,9.6c-1.466,4.164-3.349,10.843-1.5,15.826,4.637,12.5,6.5,26.383,6.5,41.51l0.5,16.086c-3.927,10.941-2.481,24.4-3.5,37.619-0.34,4.4-3.275,9.353-1.5,14.269q1.5,7,3,14.01l0.5,12.972c3.4,9.141,1.87,19.989,5.5,29.576,2.363,6.234,1.1,13.05,3.5,19.977q0.249,2.336.5,4.67l-10.507,38.4v55.521c1.411,3.981,2.557,9.911,1,14.269-2.072,5.8-.31,19.6,1.5,24.647q0.75,9.08,1.5,18.161c4.424,12.7,3.2,32.749-1.5,44.364-3.3,8.15-1.5,16.18-9.507,21.53-11.077,7.41-38.877,2.88-59.539,2.86-23-.02-47.433-1.87-69.546.26q-9.755.255-19.512,0.52H749.353c-21.154,1.99-43.893,1.81-68.545,1.81-16.143,0-33.021.27-46.53-1.04-12.013-1.15-24.34.04-35.524-1.03q-16.259-.27-32.521-0.52c-35.565-3.41-75.759-2.86-116.577-2.86H386.615c-19.886-1.9-40.286-3.09-63.042-3.11-73.536-.08-144.438,6.73-211.139.26-20.272-1.97-39.662,1.69-57.037-1.82-24.867-5.02-57.369-21.318-49.533-41.766l3.5-7.783c1.505-1.987,5.8-5.075,5.5-7.524l-4.5-10.637-2-8.562c-2.308-4.89-4.906-10.066-7-15.566-2.138-5.6-.834-13.614,1-18.68,3.206-8.852,1.96-18.31,5-26.463,1.43-3.832.163-9.219-1-12.453-2.473-6.874-.612-18.558,2-24.647l9.506-20.755-1-15.048-0.5-13.75c-2.226-6.345-3.477-16.334-1-23.35l4.5-24.388q0.25-7.651.5-15.307c3.481-9.942,3.562-29.2,0-39.175l1.5-31.911c-2.552-7.215.2-14.679-2.5-22.312-4.573-12.912-4.01-27.706-8.506-40.214-2.026-5.637-.212-13.5,1.5-18.161l4-20.5c1.259-3.321,4.234-8.4,2.5-12.454-6.962-16.29-12.82-34.9-13.009-54.223l2.5-25.944V446.11l2-15.826c2.94-8.125,4.147-15.932,7-23.61l4-30.873c1.105-2.77,3.862-6.148,4.5-8.562l-4-10.118c-3.605-7.984-3.434-15.5-6.5-24.387l-0.5-7.783,4.5-17.9c9.159-18.278,19.581-36.849,11.508-59.412V221.693c-2.6-7.334-3.5-14.833-3.5-23.09v-7a265.33,265.33,0,0,0,8.506-29.836l-5-21.793c-3.665-10.214,4.107-21.045,2.5-31.392-1.038-6.687-9.732-12.633-14.009-18.161-3.192-4.126-3.277-8.947-6-13.491-2.578-4.3-6.069-8.569-8.005-13.491-2.822-7.173-1.41-16.747,1-23.35s1.145-12.344,4.5-17.9c1.425-2.359,4.772-4.636,6-6.745V11.546a15.956,15.956,0,0,1,6.5-7.264C28.048,1.35,34.614,1.913,41.888.13ZM556.727,771.968c-1.72,1.194-3.926,1.546-4.5,3.372a9.909,9.909,0,0,1,4,3.373h1v-5.967l0.5-.519Z"/>
</svg>
