<svg xmlns="http://www.w3.org/2000/svg" width="1079" height="318" viewBox="0 0 1079 318">
  <defs>
    <style>
      .cls-1 {
        fill: #f6edd4;
        fill-rule: evenodd;
      }
    </style>
  </defs>
  <path id="box3_1" data-name="box3 1" class="cls-1" d="M263.687,10.191h56.862c10.151,0,23.019-.865,31.477,1.017h26.4c18.359,0,34.169.751,48.738,4.066,10.656,2.425,21.965.908,31.477,3.049l22.339,1.016c13.291,2.932,29,3.066,42.646,6.1,7.936,1.764,22.078.4,28.431-1.016L576.426,23.4c14.542-3.207,32.031-3.049,49.754-3.049h17.261c21.333,4.648,47.174-3.644,68.031,1.017,18.938,4.231,36.187,7.115,59.908,7.115h17.261c10.051-2.2,20.973-3.909,30.462-6.1l37.569-1.016c7.276-1.561,21.156-1.621,28.431,0H903.38C919.5,25,934.4,29.562,954.149,29.5c26.373-.078,75.321-9.129,92.4,3.049,6.52,4.653,5.88,10.933,9.14,19.313,0.99,2.562,4.22,6.01,5.07,9.148,2.67,9.77-3.39,16.131-5.07,21.346v35.576c2.95,11.023,13.86,24.314,9.14,41.676-1.28,4.67-5.93,10.5-7.11,14.23-1.42,4.481,3.14,14.267,4.06,18.3,2.51,10.968-2.08,25.823-4.06,34.56-3.15,13.886,4.2,25.279,1.01,36.593-5.27,18.754-30.06,29.549-48.73,34.56-11.886,3.187-25.236,0-38.589,0H904.4c-9.234-2.1-19.659-4.936-28.431-7.116-8.7-2.162-25.333-.577-32.492,1.017H826.211c-6.649,1.466-15.83,2.586-22.339,4.066L761.226,294.8c-29.621,6.437-62.078-4.063-92.4-4.066H649.534c-6,1.313-16.1-.57-23.354,1.017l-62.954,5.082C538.139,302.633,513.434,307,482,307H452.549c-23.589-5.182-51.288-5.71-75.138-11.181l-39.6,3.049c-20.073.019-41.526-1.605-58.893,0-38.64,3.573-88.9,7.122-124.892-1.016l-33.508,1.016c-15.744-3.5-31.035-5.8-44.677-10.164-13.087-4.189-26.941-2.193-36.554-9.149-4.735-3.426-6.846-9.247-10.154-14.23-9.484-14.287-16.568-24.958-11.169-48.791q0.508-9.147,1.015-18.3c2.631-10.673,10.006-29.08,6.092-43.709-0.957-3.577-4.008-8.644-5.077-12.2l-2.031-18.3c-2.693-8.891-10.567-20-7.108-34.56,1.827-7.691,5.188-16.083,7.108-23.379,2.841-10.794.756-23.2,6.092-31.511,7.023-10.94,35.657-16.344,56.862-12.2,17.78,3.477,58.9,1.715,80.216-3.049h18.277c12.5-2.757,28.289-1.272,40.615-4.066C231.636,12.641,255.237,15.551,263.687,10.191Z"/>
</svg>
