<svg id='box1' xmlns="http://www.w3.org/2000/svg" width="1110" height="677" viewBox="0 0 1110 677">
  <defs>
    <style>
      .cls-1 {
        fill: #f6edd4;
        fill-rule: evenodd;
      }
    </style>
  </defs>
  <path id="box1_1" data-name="box1 1" class="cls-1" d="M542.265,12.508c22.968-.079,49.927-1.882,69.629,1.913,12.272,2.364,25.429-.2,36.421,1.913H675.1c10.511,2.057,25.245,1.677,36.421,3.825l85.7,2.869c5.7,1.04,36.9-.775,42.849-1.913h20.353c12.771-2.44,29.985-.406,42.849-2.869l66.415-.956c54.14,0,103.64,3.982,155.33,4.782,0.35,0.956.71,1.913,1.07,2.869,7.62,8.946,4.28,46.055,4.28,62.164,0,52.91-15.98,92.195-13.92,146.326,0.77,20.413,7.1,38.528,12.85,54.513,4.24,11.757,5.5,23.928,8.57,36.342,3.33,13.447-1.55,30.461-4.28,41.125q-0.54,11-1.07,22c-4.54,17.436-7.14,39.757-9.65,58.339-0.81,6.023,3.82,16.559,5.36,22,4.66,16.422,3.33,33.607,7.5,50.688,2.39,9.811-1.29,23.1-3.21,30.6v11.476c-3.67,15.155-1.7,33.785-5.36,48.775-3.58,14.672,6.81,18.991,7.5,30.6-3.55,3.632-5.99,7.994-10.71,10.52-13.44,7.187-30.39,5.989-48.21,9.564-37.25,7.474-92.12,4.781-136.044,4.782H886.125c-14.388,2.759-31.958-.994-47.133,1.913-18.975,3.634-42.673,1.912-64.273,1.913-50.9,0-98.027-3.919-144.615-4.782l-131.759.956-52.49.956c-13.793-2.651-30.2-.023-44.991-2.869-20.436-3.932-62.048-3.933-82.484,0h-22.5c-15.359,2.056-35.216-.039-50.347,2.869-7.376,1.418-20.007.152-25.709-.956-15.975-3.1-38.147-2.678-55.7-2.869l-12.855-.956c-15.981,2.754-33.732-.258-50.347,2.869-15.269,2.873-47.269,5.009-63.2,1.912-19.173-3.725-46.594.29-52.49-14.345-2.4-3.456-.872-12.773,0-16.259l2.142-41.124a136.406,136.406,0,0,0-4.285-36.342l-1.071-17.215c-1.765-7.163-3.247-22.911-1.071-31.56,4.039-16.053,4.008-33.736,8.57-50.688,1.33-4.943,5.13-13.642,3.214-20.084-3.49-11.728-10.381-24.738-13.926-36.342V354.89c-1.14-4.66-.594-12.2-2.142-17.214-1.768-5.728-7.961-16-6.427-22.953,2.232-10.123,6.888-21.727,9.641-31.561q0.535-23.907,1.071-47.818C-16.1,224.13-12.485,212-9.413,199.958c3.73-14.629-8.665-45.075-12.855-56.426-1.119-3.032-5.148-9.219-5.356-12.433-0.321-4.952,2.026-14.442,3.214-19.128,2.485-9.807,1.03-19.958,3.214-28.691,1.217-4.87-.23-12.877-1.071-16.258q-1.607-24.863-3.214-49.732h2.142c7.679-4.252,24.351.935,34.279-.956,31-5.907,60.341,3.821,91.053,3.825l98.552-.956c16.948,0,34.808-.873,49.276,1.913h46.062c12.52,2.375,30.6.955,44.992,0.956,14.035,0,31.752,1.4,43.92-.956,15.439-2.986,32.224.768,46.062-1.913h16.068c22.269-4.331,49.551-1.42,71.772-5.738C525.877,12.069,536.913,15.486,542.265,12.508Zm-361,15.3c1.861,1.03,2.433.99,4.285,0h-4.285Z"/>
</svg>
