<svg xmlns="http://www.w3.org/2000/svg" width="1110" height="677" viewBox="0 0 1110 677">
  <defs>
    <style>
      .cls-1 {
        fill: #111111;
        fill-rule: evenodd;
      }
    </style>
  </defs>
  <path id="box1_1" data-name="box1 1" class="cls-1" d="M543,12.508c21.593-.079,46.938-1.882,65.46,1.913,11.537,2.364,23.907-.2,34.24,1.913h25.177c9.882,2.057,23.734,1.677,34.241,3.825l80.566,2.869c5.359,1.04,34.694-.775,40.282-1.913H842.1c12.006-2.44,28.19-.406,40.283-2.869l62.438-.956c50.9,0,97.431,3.982,146.021,4.782,0.34,0.956.68,1.913,1.01,2.869,7.17,8.946,4.03,46.055,4.03,62.164,0,52.91-15.02,92.195-13.09,146.326,0.73,20.413,6.67,38.528,12.08,54.513,3.98,11.757,5.17,23.928,8.06,36.342,3.13,13.447-1.46,30.461-4.03,41.125q-0.5,11-1.01,22c-4.26,17.436-6.7,39.757-9.06,58.339-0.76,6.023,3.58,16.559,5.04,22,4.38,16.422,3.13,33.607,7.05,50.688,2.25,9.811-1.22,23.1-3.03,30.6v11.476c-3.44,15.155-1.59,33.785-5.03,48.775-3.37,14.672,6.41,18.991,7.05,30.6-3.33,3.632-5.63,7.994-10.07,10.52-12.63,7.187-28.57,5.989-45.32,9.564-35.02,7.474-86.606,4.781-127.9,4.782H866.268c-13.527,2.759-30.045-.994-44.312,1.913-17.839,3.634-40.117,1.912-60.424,1.913-47.853,0-92.157-3.919-135.955-4.782l-123.87.956-49.346.956c-12.967-2.651-28.395-.023-42.3-2.869-19.212-3.932-58.333-3.933-77.545,0H311.37c-14.439,2.056-33.107-.039-47.332,2.869-6.935,1.418-18.809.152-24.17-.956-15.018-3.1-35.863-2.678-52.368-2.869l-12.084-.956c-15.025,2.754-31.713-.258-47.333,2.869-14.354,2.873-44.438,5.009-59.417,1.912-18.025-3.725-43.8.29-49.347-14.345-2.252-3.456-.82-12.773,0-16.259l2.014-41.124a144.666,144.666,0,0,0-4.028-36.342L16.3,540.427c-1.66-7.163-3.053-22.911-1.007-31.56,3.8-16.053,3.768-33.736,8.057-50.688,1.251-4.943,4.823-13.642,3.021-20.084-3.28-11.728-9.759-24.738-13.092-36.342V354.89c-1.072-4.66-.559-12.2-2.014-17.214-1.662-5.728-7.484-16-6.042-22.953C7.319,304.6,11.7,293,14.284,283.162q0.5-23.907,1.007-47.818c2.772-11.214,6.176-23.34,9.064-35.386,3.507-14.629-8.146-45.075-12.085-56.426-1.052-3.032-4.84-9.219-5.035-12.433-0.3-4.952,1.9-14.442,3.021-19.128,2.336-9.807.969-19.958,3.021-28.691,1.145-4.87-.216-12.877-1.007-16.258L9.249,17.29h2.014c7.219-4.252,22.893.935,32.226-.956,29.143-5.907,56.728,3.821,85.6,3.825l92.651-.956c15.933,0,32.724-.873,46.325,1.913h43.3c11.77,2.375,28.77.955,42.3,0.956,13.2,0,29.852,1.4,41.29-.956,14.515-2.986,30.3.768,43.305-1.913h15.106c20.935-4.331,46.584-1.42,67.474-5.738C527.591,12.069,537.966,15.486,543,12.508ZM203.614,27.81c1.749,1.03,2.287.99,4.028,0h-4.028Z"/>
</svg>
