<svg xmlns="http://www.w3.org/2000/svg" width="400" height="200" viewBox="0 0 400 200">
  <defs>
    <style>
      .cls-1 {
        fill: #f6edd4;
        fill-rule: evenodd;
      }
    </style>
  </defs>
  <path id="button-hidden_1" data-name="button-hidden 1" class="cls-1" d="M81.3,2c33.466-.191,59.84,1.733,89.709,7.058C196.3,13.567,213.862.793,237.531,5.025c21.3,3.808,47.417,6.154,70.556,2.017h20.16c17.143-4.247,45.675-9.775,56.445,6.05,15.067,22.14-6.516,63.753,2.016,93.774,5.019,17.662,15.724,50.889,4.032,68.566L373.6,191.564c-10.149,5.094-27.179-.356-40.318,2.016-13.852,2.5-37.73,6.852-53.421,4.034-10.708-1.924-25.775-5.438-39.311-3.025-15.29,2.725-36.86,5.655-55.437,2.016-11.172-2.188-24.2-9.971-38.3-7.058L131.7,193.58l-33.262-1.008C73.759,197.8,30.716,207.2,15.781,184.505c-5.6-8.5-14.266-22.735-11.088-38.316,1.365-6.689,6.239-14.694,4.032-24.2A88.019,88.019,0,0,1,7.717,84.682c3.741-19.37-8.515-52.634,0-67.557C16.985-6.741,58.719,12.815,81.3,2Z"/>
</svg>
