<svg xmlns="http://www.w3.org/2000/svg" width="400" height="200" viewBox="0 0 400 200">
  <defs>
    <style>
      .cls-1 {
        fill: #f6edd4;
        fill-rule: evenodd;
      }
    </style>
  </defs>
  <path id="button-visible_1" data-name="button-visible 1" class="cls-1" d="M66.978,6.752C102.19,6.534,141.192-.767,169.914,4.7c16.716,3.18,29.2.489,66.909,3.082,6.61,0.455,17.157-5.822,36.027-4.11,24.438,0.107,104.591-6.533,103.505,5.995-1.937,22.354.134,51.5,2.519,71.064,4.363,35.786,11.126,52.8,12.352,88.361-1.925,10.857-13.382,2.4-20.587,9.247-12.351,0-13.383,11.3-25.734,11.3-12.6,2.414-18.988-5.248-33.969-7.192-11.665-1.712-27.45,1.712-39.115,0-21.845-.39-46.03,12.927-70,8.22-10.978-3.082-37.4,5.137-48.38,2.055-13.3-2.532-72.386,3.844-83.378,2.055-36.557-5.951-24.969-3.07-54.556-17.467C9.072,157.848.867,153.319,2.129,129.019c0.482-9.293,6.421-21.005,5.147-27.741-3-15.884,4.988-21.507,2.059-36.989C5.762,45.409-1.8,23.157,10.364,9.834,16.764,3.829,52,16.367,66.978,6.752Z"/>
</svg>
