<svg xmlns="http://www.w3.org/2000/svg" width="550" height="550" viewBox="0 0 550 550">
  <defs>
    <style>
      .cls-1 {
        fill: #111;
        fill-rule: evenodd;
      }
    </style>
  </defs>
  <path id="codepen_1" data-name="codepen 1" class="cls-1" d="M269.942,17l13.85,1.066c7.036,10.315,18.078,22.414,29.83,27.7,6.395,2.879,12.486,2.964,18.111,6.393,6.068,3.7,11.317,9.891,18.111,12.787,11.881,5.064,21.676,7.444,31.96,13.853,7.456,4.645,14.3,11.905,21.308,17.049,8.817,6.473,18.024,11.5,26.633,18.115,3.307,2.54,4.91,7.261,7.458,10.656,6.338,8.443,23.951,20.692,33.026,26.639l35.157,15.984c6.524,4.064,11.67,12.3,18.111,15.983,5.914,3.378,10.763,2.585,13.849,8.525,7.9,15.207,4.67,37.609-1.065,53.278-2.515,6.872-9.528,15.855-6.392,27.705,4.341,16.4,5.591,38.263,9.588,56.475v20.246c3.149,7.032,8.226,3.667,8.523,18.115-3.709,4.2-5.83,9.762-11.719,11.721H525.628c-1.775.944-8.523,10.656-10.654,12.787-11.871,11.875-23.512,26.513-37.288,36.23-20.078,14.163-42.1,27.811-62.856,40.491-13.831,8.452-30.113,11.957-43.679,20.246-8.57,5.236-16.055,12.934-24.5,18.115-18.994,11.648-45.885,13.168-60.726,28.77-23.685,1.392-75.024-25.465-91.62-37.3l-13.85-13.852c-9.617-6.556-21.652-7.97-33.026-12.787-11.86-5.023-21.87-14.24-33.026-19.18-17.146-7.593-35.549-11.657-51.137-21.312-7.57-4.688-16.029-13.218-21.307-20.245-1.638-2.181-2.274-5.73-4.262-7.459-2.107-1.834-5.746-.936-8.523-2.132-6.952-2.994-14.1-8.968-17.046-15.983-3.088-7.359-7.352-41.109-4.261-52.213,1.016-3.652,4.418-7.714,5.327-11.722,1.678-7.4-2.786-19.822-4.261-26.639l2.131-22.377c-0.672-2.608-3.556-6.988-4.261-9.59C4.23,253.67,8.645,242.978,10,236.508L8.93,221.59a57.716,57.716,0,0,1,8.523-30.9c7.727-12.364,24.391-19.167,36.222-27.7,6.432-4.641,12.146-11.674,19.176-15.983,6.423-3.937,14.042-4.469,20.242-8.525,3.272-2.14,6.278-6.3,9.588-8.524,19.078-12.8,38.2-23.966,56.464-37.3L173,78.8l9.588-5.328c1.87-2.239,1.972-5.7,4.261-7.459,3.238-2.483,7.3-2.988,10.654-5.328,4.7-3.277,9.181-8.44,13.849-11.721C229.827,35.98,254.076,32.249,269.942,17ZM259.288,61.754C252.449,68,241.113,68.2,233.72,73.475c-2.341,1.67-1.552,5-3.2,7.459-2.5,3.741-10.119,9.243-13.85,11.721-7.419,4.928-16.38,6.661-23.438,11.721-12.508,8.968-23.633,21.78-36.222,30.9-6.641,4.813-14.4,7.133-21.307,11.722-9.621,6.392-18.91,15.265-28.764,21.311-6.42,3.939-14.043,4.468-20.242,8.525C75.784,183.98,65.971,194.1,54.74,201.344l1.065,1.065c7.693,9.661,21.107,10.333,31.961,17.05,7.966,4.929,11.789,15.107,19.177,20.245,12.023,8.364,27.137,13.335,35.156,25.574l1.066-1.065c13.548-6.732,20.331-21.391,31.96-29.836,12.141-8.817,28.72-16.33,42.615-22.377,11.981-5.215,38.685-9.323,44.745-19.181,5.529-8.995-5.142-35.524-7.458-45.819-1.718-7.639,1.87-17.826,3.2-23.443q0.532-12.252,1.065-24.508c2.874-12.827,6.1-23,3.2-37.3h-3.2Zm38.353,12.787c-0.039,10.822-3.351,15.639-5.327,23.443q-1.065,15.982-2.13,31.968c-0.948,3.914-3.772,10.753-2.131,17.049,4.89,18.766,10.317,31.969,7.458,54.344,9.643,3.162,20.193,11.834,28.764,17.049,13.263,8.07,27.411,12.262,40.484,20.246,8.745,5.341,16.87,15.514,28.764,17.049,10.874-10.632,28.591-13.779,42.615-21.311,6.712-3.606,11.911-11.654,19.176-14.918,14.028-6.3,31.312-7.138,41.549-17.05-22.637-13.934-48.054-26.127-69.248-41.557l-23.438-25.574c-17.492-13.057-35.548-27.286-55.4-37.295L329.6,91.59C319.1,86.1,312.167,76.914,297.641,74.541Zm-24.5,151.311c-8.5,7.339-22.945,8.2-34.091,12.787-18.674,7.687-59.9,28.072-66.052,45.819,3.77,2.612,4.332,6.538,7.457,9.591,5.118,5,12.41,6.086,19.177,9.59,16.153,8.365,30.075,18.2,46.875,26.639,5.017,2.52,11.071,10.5,15.981,11.721,7.373,1.841,20.053-12.845,24.5-15.983,23.292-16.425,62.057-24.041,77.771-47.951-10.822-6.05-21.555-13.869-31.961-20.246s-21.666-8.659-31.961-14.918C292.4,237.775,282.822,228.773,273.138,225.852ZM43.021,234.377c-4.4,12.912-1.663,24.093,1.065,35.163,2.142,8.692-2.019,15.483-2.131,22.377-0.166,10.2,3.074,17.44,3.2,28.771h2.131c4.509-5.314,12.273-6.552,19.176-9.59,11.188-4.924,21.271-12.754,30.9-19.181,4.824-3.22,12.615-5.025,14.915-10.655-8.956-5.475-18.965-10.725-27.7-17.049L71.786,248.229l-9.588-3.2C55.8,242.224,49.221,237.545,43.021,234.377Zm460.234,1.065c-8.025,7.742-20.756,7.929-31.961,12.787-9.59,4.159-16.438,13.631-26.634,18.115-6.486,2.852-17.986,4.817-21.307,10.655h2.131c6.541,7.878,20.972,10.41,29.83,15.984,17.188,10.815,31,30.567,51.137,37.3a494.016,494.016,0,0,0-9.588-56.475C493.317,258.458,505.44,240.975,503.255,235.442ZM298.707,491.179c19.333-2.449,39.412-20.125,53.267-28.77,15.206-9.488,33.479-13.819,49.007-23.443,23.759-14.724,50.867-30.631,70.313-50.081,7.13-7.132,21.007-15.619,24.5-25.574-21.834-10.732-37.548-30.144-57.53-42.623-12.977-8.1-34.267-13.329-44.745-23.443-10.292,3.551-15.605,16.791-24.5,22.377-9.192,5.772-19.551,11.208-28.764,15.984-6.624,3.433-14.006,3.64-20.242,7.459-12.071,7.392-21.916,18.2-34.092,25.574,3.328,9.341,7.144,26.838,4.262,40.491-0.523,2.475-1.968,8.653-1.066,12.787C294.027,444.391,298.478,466.238,298.707,491.179Zm-31.961,6.394a377.535,377.535,0,0,0-9.588-68.2c-4.749-19.976,6.247-42.044-4.262-55.409-3.1-2.415-7.416-3.008-10.653-5.328l-4.262-5.328c-5.036-3.619-11.546-4.091-17.045-7.459-5.126-3.14-9.869-8.575-14.915-11.721-12.382-7.722-26.154-11.447-38.353-19.181-10.866-6.889-14.512-18.541-28.765-22.377-4.082,5.85-8.711,6.791-14.915,10.656-8.571,5.34-16.868,12.789-25.568,18.115-9.517,5.826-20.693,9.339-29.83,14.918-9.111,5.562-26.577,10.6-26.634,24.508,20.11,4.245,23.275,22.418,37.287,31.967,13.294,9.059,30.675,12.554,45.811,19.18,11.58,5.07,21.4,14.09,33.026,19.181,12.239,5.358,25.322,7.108,36.222,13.852,7.734,4.786,13.1,13.254,20.241,18.115C224.893,480.1,253.558,495.5,266.746,497.573Z"/>
</svg>
