<svg xmlns="http://www.w3.org/2000/svg" width="800" height="678" viewBox="0 0 800 678">
  <defs>
    <style>
      .cls-1 {
        fill: #f6edd4;
        fill-rule: evenodd;
      }
    </style>
  </defs>
  <path id="fl_1" data-name="fl 1" class="cls-1" d="M549.322,74.166c16.56,3.466,44.707,9.693,49.168,21.359,2.063,5.024-2.2,12.582-.993,18.553,0.928,4.582,4.3,10.7,5.221,15.575q0.635,6.777,1.271,13.554c4.24,12.975,9.358,27.6,13.736,40.755,2.277,6.844,1.395,14.111,4,20.817,3.433,8.826,12.529,13.842,14.242,24.3q-1.143,9.678-2.285,19.358c2.449,11.939,14.207,22.961,18.584,34.146,1.663,4.25.895,8.452,2.563,12.749,2.934,7.558,9.343,9.145,7.392,20.5-3.28,1.83-7.333,4.253-9.527,7.732,8.325,9.192,7.423,23.074,11.808,34.783,1.906,5.092,5.547,10.74,7.317,16.062,2.5,7.513,1.664,15.886,4.565,23.158,1.961,4.913,7.745,9.982,8.609,15.257,1.841,11.241-1.327,20.836.522,31.058,3.59,19.847,14.353,36.552,2.092,62.359-7.6,16,.955,43.249-6.611,57.024-9.108,16.583-22.369,10.918-28.6,37.555l1.049,0.243,1.291-.8c3.769-5.4,4.971-13.954,13.889-12.244,0.811,1.9.932,1.147,1.366,3.632,4.857,10.42-10.158,18.34-14.47,24.262-4.729,6.5-5.641,19.311-11.325,24.993-11.845,11.841-23.628,9.767-38.895,15.278-5.992,2.163-14.1,9.7-20.982,9.492-6.04-.187-6.264-4.991-5.39-10.09,7.73-2.589,14.835-7.574,22.274-10.3,7.941-2.908,17-1.92,24.444-5.373,3.824-1.774,7.124-6.343,10.819-8.537q1.742-5.121,3.482-10.241l-1.048-.243c-5.036,5.4-9.187,5.975-19.522,3.2-1.9-2.333-7.975-5.117-9.994-4.53-9.036.947-12.273,5.817-25.006,3.033-1.282-2.049-4.321-3.471-5.316-5.653-3.566-7.825-1.852-14.316-3.273-23.963-0.235-1.591-9.28-19.788-10.537-21.229-9.126-10.463-28.459-12.809-33.838-25.534-3.938-9.316-6.44-43.849-13.08-48.337-0.942-1.049-.845-0.86-2.9-1.778-4.223,3.58-9.136,3.566-16.939,1.592-7.309-12.594-10.563-26.238-16.075-40.193l-10.7-15.744c-2.347-6.268.578-14.09-.617-21.136-1.238-7.307-7.636-14.533-8.2-21.79-0.409-5.3,9.255-22.987,11.812-27.09l-2.1-.487c-3.411,1.983-5.909.647-9.677-1.141-0.413-7.066-3.97-13.465-4.247-19.769s6.7-26.854,9.4-30.965c1.49-2.275,5.81-4.84,7.188-7.17,7.118-12.039.642-26.07,0.451-35.252-0.18-8.641,2.795-13.967,1.723-21.7-3.34-24.1-29.636-30.524-45.422-47.007-7.616-7.951-8.208-17.048-12.464-27.2-4.786-11.415-15.676-14.083-25.7-22.539-5.489-4.632-12.749-12.889-19.333-16.643l-11.773-1.628-1.292.805a60.483,60.483,0,0,1-3.969,12.337c-5.053,1.8-10.934,1.12-16.134,2.884-5.577,1.892-11.665,6.212-17.351,8.125-9.677,3.257-18.6,1-30.247,1.817-4.284.3-9.889,3.074-14.038,3.371-13.468.962-18.738-9.139-16.507-19.3,1.092-.875.439-0.2,1.535-1.853-5.081-5.557-4.928-14.428-13.606-17.523-5.488-6.134-16.9-7.887-24.743-12.373a356.243,356.243,0,0,1-31.667-20.611c-3.868-2.789-7.227-9.308-15.554-9.135-22.968.478-49.042,4.958-74.923-.821-1.859-6.346-4.751-14.165-5.053-21.061s5.3-12.154,4.7-15.482c-1.431-12.437-16.081-23.3-6.885-36.955,21.75-3.75,53.355,4.424,76.29,4.453,14.973,0.019,29.744,7.734,43.46,7.88l28.543,5.522c7.947,0.1,17.926,3.356,25.885,2.695,7.43-.617,18.971-4.116,27.908-1.255,11.19,3.582,16.585,10.544,19.894,18.982,0.728,1.856.269,5.785,1.684,7.02l20.963,4.867c7.665,7.731,41.466,7.459,52.893,10.07,18.154,4.148,34.821,8.076,54.5,12.653l21.768,6.158c21.942,0.291,40.412-.959,64.03,4.921,0.578,2.086.909,2.068,1.123,4.68,0.784,3.263-2.115,4.649-1.7,7.339,1.041,1.129,1.574,1.22,3.949,2.022a38,38,0,0,1,8.479-7.976c0.11-9.71-4.821-15.3-4.078-25.254C544.969,77.53,547.015,75.763,549.322,74.166Zm3.406,575.328c2.852,0.655,4.809,1.16,6.045,2.509,3.345,1.966,4.479,3.913,4.828,7.75,4.927,14.871-36.183,15.509-47.28,13.331-1.126-3.273-2.05-3.236-1.44-8.069,1.091-.874.439-0.2,1.535-1.853C527.572,660.555,543.112,655.453,552.728,649.494Z"/>
</svg>
