<svg xmlns="http://www.w3.org/2000/svg" width="2083" height="2083" viewBox="0 0 2083 2083">
  <defs>
    <style>
      .cls-1 {
        fill: #111;
      }

      .cls-1, .cls-2 {
        fill-rule: evenodd;
      }

      .cls-2 {
        fill: #fefefe;
      }
    </style>
  </defs>
  <path id="Shape_323_1" data-name="Shape 323 1" class="cls-1" d="M639.432,49.031c58.548-.486,106.026,4.8,157.281,13.936l50.768,1L953,70.93l122.442-3.982c48.06,8.6,104.24,1.112,154.29,9.954h75.66l108.5,11.945,65.7,3.982,87.6,5.972,39.82,1c37.66,6.837,84.58.917,124.43,7.963l55.74,1q26.385,4.975,52.76,9.954l40.82,2.986c24.36,4.538,43.37,12.422,59.72,24.885,51.31,39.112,62.82,107.61,76.65,185.147,2.58,14.452-2.02,30-3.98,40.812q3.48,23.887,6.97,47.779v70.674q7.47,41.305,14.93,82.62v53.752q4.485,18.91,8.96,37.825v98.546c0,76.487-2.07,156.568-1.99,229.94,0.11,109.734,12.07,240.384-5.97,341.424v31.85l-3.99,48.78v33.84c-6.94,38.96-9.33,76.41-15.92,113.48-6.69,37.55,12.76,67.34,5.97,105.51q-1.5,20.91-2.99,41.81-4.965,22.89-9.95,45.79,0.99,37.32,1.99,74.66c-11.19,62.34-18.94,119.13-61.72,149.31-29.39,20.73-61.33,35.49-103.52,43.8-23.85,4.69-57.88,1.86-79.64-1.99q-18.42-.51-36.83-1-44.295-4.485-88.6-8.96l-35.83-.99c-23.51-4.13-55.15-6.38-80.63-2.99h-38.83l-101.53,10.95h-40.82c-94.54,17.32-205.68,15.92-319.53,15.93-80.972,0-165.641,1.94-232.939-9.96H754.9a532.017,532.017,0,0,0-105.517,9.96H589.66c-53.165,0-100.931-2.03-143.344-9.96q-13.438,1.5-26.877,2.99c-19.869,3.77-59.78,7.06-82.623,2.98q-25.382-1.98-50.767-3.98-37.824-7.455-75.654-14.93l-39.818-.99c-36.166-6.49-61.338-11.08-84.613-28.87-20.24-15.47-46.89-58.47-38.822-101.53,3.034-16.2,8.92-31.05,11.945-45.79q0.5-14.94,1-29.86c3.16-16.34,12.656-38.95,8.959-57.74-3.974-20.19-6.852-42.59-10.95-65.7q-1-26.865-1.991-53.75c-3.928-20.56-10.857-46.39-5.973-71.67,2.611-13.51,10.636-32.6,7.964-47.78-6.051-34.37-27.969-69.91-18.913-118.45,2.9-15.53,7.905-30.83,10.95-44.79q-1-31.86-1.991-63.71c0-39.8,5.459-76.87-1-113.48-3.8-21.55.86-47.87,3.982-64.7q-2.986-35.835-5.973-71.67,0.5-26.37,1-52.755-1-29.363-1.991-58.729c4.194-23.368,7.959-46.469,11.945-67.688q0.5-36.33,1-72.665c2.522-14.217,7.827-32.705,4.977-48.776-2.3-12.993-6.813-31.068-3.982-46.784,2.68-14.876,6.1-30.37,8.959-43.8,3.293-15.483-.766-32.528,1-46.784,1.841-14.906-6.394-30.076-8.959-43.8q0.5-37.822,1-75.651l3.982-23.89c-2.7-12.129-8.306-25.709-10.95-39.817-8.414-44.9,5.416-86.485,11.945-121.44,4.378-23.434-7.354-43.77-10.95-63.706-6.666-36.954,15.81-76.99,28.868-96.555,14.975-22.438,40.326-36.752,70.677-43.8l28.868-1.991,20.9-7.963L275.1,60.976l82.622-2.986c39.1-6.923,82.3-4.977,126.422-4.977,36.868,0,76.264,4.908,109.5-1Z"/>
  <path id="Shape_324_1" data-name="Shape 324 1" class="cls-2" d="M1046.66,298l88.29,3.043c34.15,6.436,66.31,4,98.44,10.145q22.32,2.029,44.65,4.058c48.29,12.709,102.12,38.064,141.06,61.884l33.48,14.2q25.875,16.23,51.76,32.463c24.44,17.406,45.58,40.51,69.01,58.841,36.05,28.216,70.32,27.842,85.24,80.144,2.74,9.6,5.07,27.408,2.03,39.565a94.937,94.937,0,0,1-11.16,26.377c-6.17,10.046-12.09,19.589-21.31,26.377-38.73,28.489-77.55,16.125-116.71-1.015-30.2-13.218-48.91-37.08-73.06-55.8q-29.43-22.316-58.86-44.637-18.78-8.115-37.55-16.232l-29.43-18.261q-16.74-6.086-33.49-12.174c-12.77-5.565-25.9-14.835-40.59-18.26l-45.67-3.044c-17.8-3.43-38.13-3.34-57.84-7.1h-34.5c-29.64-5.388-66.48-4.276-94.38,1.014-24.647,4.673-48.6-.531-71.037,5.073-66.041,16.5-126.592,45.9-183.68,71.014L693.51,579.013c-11.35,6.661-19.216,19.354-28.415,28.406-16.642,16.376-34.147,30.09-48.711,48.7-26.957,34.438-79.79,94.747-83.214,149.13,19.928,14.357,47.863,42.79,60.889,63.913,11.728,19.019,24.675,56,39.577,70,16.366,15.372,49.833,22.956,69.007,36.522q36.021,31.953,72.051,63.912,43.632,33.99,87.273,67.97c18.107,14.15,36.546,36.92,48.711,56.81q8.625,18.27,17.252,36.52,18.264,22.32,36.533,44.64c9.482,13.41,15.622,29.49,26.384,41.6,10.463,11.76,32.933,16.05,46.683,24.34,24.27,14.65,44.06,34.6,65.96,51.74q8.625,9.135,17.25,18.26c28.6,22.43,54.74,51.43,77.13,80.15q20.3,18.255,40.59,36.52c8.62,8.65,38.73,46.47,47.7,46.67,13.5-4.31,20.46-14.78,30.44-22.32q15.225-10.155,30.44-20.29,11.175-11.16,22.33-22.32c18.63-14.35,51.09-30.88,64.95-48.7,32.95-42.36,58.13-89.6,86.26-136.95,10.91-18.38,19.04-37.53,29.43-57.83,5.07-9.92,12.06-18.69,15.22-30.43h-3.05c-16.56,8.22-50.03,2.32-71.03,6.08-30.16,5.41-66.71-.61-89.31-7.1l-49.72-11.16c-37.04-15.46-70.09-65.8-47.7-117.68,9.91-22.96,30.78-41.87,55.82-49.71,40.08-12.55,73.5,9.14,113.65,9.13,80.33,0,198.53-30.83,256.75,12.18,71.24,52.63,17.61,193.9-12.18,251.59-47.37,91.74-95.21,178.29-156.28,255.65-15.04,19.06-39.81,32.49-59.87,46.67-24.88,17.57-45.57,38.75-71.04,56.81q-13.185,11.67-26.38,23.33-16.74,9.645-33.49,19.28c-28.43,20.99-39.66,35.93-84.23,43.62-34.74,6-61.16-17.66-79.15-30.44-33.92-24.07-58.48-53.35-87.28-82.17-27.54-27.56-56.92-52.23-81.18-83.19-9.16-11.68-22.76-23.26-34.51-32.46-19.449-15.24-34.447-37.25-55.81-50.72-32.461-20.48-67.3-30.44-90.317-59.86-14.417-18.43-25.468-38.34-39.578-57.83-12.5-17.25-28.989-32.22-40.592-50.72-14.053-22.4-20.991-47.22-41.607-62.9-24.617-18.72-48.933-36.97-73.066-55.79q-31.455-28.41-62.918-56.82c-19.249-13.76-44.907-19.12-63.932-32.46-33-23.13-50.314-52.42-72.052-87.25-7.479-11.977-13.911-26.261-22.325-38.546l-25.37-22.319c-36.7-28.744-83.235-86.826-63.933-160.289,30.718-116.91,98.186-229.633,180.635-294.2,21.58-16.9,37.013-40.636,60.889-55.8,20.718-13.157,45.176-20.114,69.006-30.435l40.592-21.3c50.661-22.183,104.568-41.678,158.31-58.84,24.49-7.821,50.281-9.922,78.14-15.218l44.651-3.043ZM352.535,1073.07c20.754-.1,33.075,3.61,41.607,15.22l5.074,10.14c6.5,5.37,14.294,6.37,19.281,13.19,4.41,6.03,4.282,13.18,8.119,20.29,14.194,26.3,34.326,51.56,54.8,72.03,13.624,13.62,29.19,23.55,44.652,35.5q17.25,19.275,34.5,38.56c16.533,12.82,39.084,23.97,51.755,40.57,22.819,29.92,30.793,75.9,60.888,98.41,37.225,27.84,78.406,49.99,116.7,77.1q19.279,18.255,38.563,36.52c24.037,17.83,48.808,32.22,66.977,55.8,9.37,12.16,16.068,26.02,25.37,38.55,8,10.78,20.82,20.09,31.459,28.41,15.514,12.12,29.413,29.03,41.607,44.63q11.157,10.65,22.328,21.31c11.17,15.32,10.08,44.35-4.06,55.79-11.05,8.94-32.655,14.57-50.742,8.12-15.359-5.47-25.64-17.91-38.562-24.35q-15.221-4.05-30.445-8.11c-22.126-8.89-45.571-20.08-69.006-29.42-48.534-19.35-101.549-25.85-144.1-50.73-18.416-10.76-35.228-23.71-51.755-36.52q-15.221-14.715-30.444-29.42c-53.133-39.25-107.909-86.33-146.132-140q-12.176-21.3-24.355-42.61c-17.076-25.7-35.62-48.06-48.711-79.13-6.832-16.21-11.453-31.5-18.266-48.69q-15.729-38.04-31.459-76.09c-4.6-14.71-1.587-31.63-5.074-48.69-4.849-23.74-9.684-56.37,3.044-77.11C332.652,1081.75,341.74,1079.56,352.535,1073.07Z"/>
</svg>
