<svg xmlns="http://www.w3.org/2000/svg" width="500" height="500" viewBox="0 0 500 500">
  <defs>
    <style>
      .cls-1 {
        fill: #111;
        fill-rule: evenodd;
      }
    </style>
  </defs>
  <path id="gatsby_1" data-name="gatsby 1" class="cls-1" d="M231.05,14.822c38.876-.606,77.987-1.236,105.48,10.554,9.519,4.082,20.121,11.415,28.479,16.887,8.109,5.307,16.789,7.884,24.261,13.72,3.115,2.433,5.249,7.1,8.438,9.5,10.033,7.534,17.482,13.542,25.315,23.219,4.563,5.637,16.757,7.847,22.151,15.831,7.479,11.069,13.8,31.729,17.932,45.382l2.109,13.72c2.661,6.549,9.028,13.374,11.6,21.108,3.475,10.438,4.951,21.422,7.383,31.663q0.528,15.3,1.055,30.606c6.089,28.176,3.3,63.205-7.383,88.654-4,9.531-10.871,16.352-15.822,24.275-2.126,3.4-2.108,7.142-4.219,10.554-9.2,14.862-21.924,25.592-35.864,35.883-3.172,2.343-3.959,6.241-6.328,9.5-4.568,6.281-21.238,24.355-27.425,28.5-15.437,10.334-45.167,19.066-64.343,25.33l-22.15,4.221c-9.422,3.1-19.648,7.958-30.589,10.554-14.864,3.528-36.725-.586-47.466-3.166l-31.644-1.055c-11.822-2.821-27.284-5.626-36.918-11.61-2.9-1.8-5.532-5.588-8.438-7.387-8.722-5.4-17.608-7.756-25.316-13.721-12.077-9.346-21.08-24.065-33.753-32.717-10.243-6.994-23.629-12.072-30.589-22.164-8.575-12.433-21.078-41.3-25.315-56.992L29.584,313.5c-6.184-22.78-25.3-54.644-15.822-87.6,2.06-7.163,6.315-14.981,8.438-23.219,4.108-15.938.715-34.632,6.329-48.548C43.317,117.48,83.746,60.187,119.242,45.429c10.9-4.534,21.379-5.378,32.7-9.5,14.012-5.1,29.6-11.939,44.3-15.831C206,17.517,223.722,19.484,231.05,14.822ZM427.242,248.067c-29.933.57-75.741-5.946-108.644,1.055-1.533,5.554-3.97,7.07-4.219,14.776,1.166,1.46,1.576,3.032,2.11,5.277,4.181,2.652,8.637,6.9,13.712,8.443,10.1,3.072,31.91-.221,37.973-2.111,5.779-1.8,7.454,2.515,12.657,2.111,6.155-.477,6.151-2.172,14.768-2.111v2.111c-8.665,8.729-10.21,24.05-16.877,34.828-5.343,8.637-14.269,15.018-20.041,23.219-5.164,7.337-7.467,15.568-12.658,23.219-7.857,11.581-31.859,17.866-47.466,21.108-4.589-5.94-12.353-9.825-16.876-15.831-6.077-8.067-12.041-18.233-20.042-24.274-5.224-3.945-12.728-7.7-16.876-12.665-4.6-5.5-7.323-12.259-11.6-17.942-5.6-7.43-15.577-11.4-22.151-17.942-5.609-5.58-9.934-12.655-14.767-19-4.436-5.82-17.01-14.312-23.206-19l-21.095-23.219-5.274-1.056c-3.34-1.83-4.536-6.353-7.384-8.443l-4.219-1.055c-3.3-2.384-3.92-7.186-6.329-10.554-3.667-5.128-10.173-10.369-14.767-14.776,0.458-13.738,12.767-29.22,20.041-36.939,2.5-2.652,1.037-6.148,3.164-9.5l9.494-5.277c6-4.687,9.549-13.394,15.822-17.942,25.625-18.579,95.08-33.05,133.959-22.163,15.9,4.452,41.246,21.528,54.849,30.607,9.04,6.033,12.591,15.23,27.425,15.831,3.006-2.918,6.466-5.61,9.493-8.443v-9.5c-23.621-24.3-65.146-52.308-102.315-62.269-12.387-3.319-37.847,2.989-47.466,5.277-24.4,5.8-50.3,3.522-71.726,12.665-19.962,8.519-34.025,29.771-46.411,46.438l-12.658,9.5c-6.114,8.2-8.081,18.246-13.712,27.441-3.815,6.229-11.649,15.777-8.438,28.5,2.6,10.3,10.364,15.953,15.822,23.219,14.242,18.959,30.606,34.3,49.576,48.548l28.479,28.5c2.276,3.057,3.334,7.261,6.329,9.5a206.031,206.031,0,0,1,39.028,37.994L230,349.386c5.493,7.039,9.614,14.826,15.821,21.108,2.629,2.66,7.546,2.976,10.548,5.277,3.764,2.884,6.086,9.242,9.494,12.665,7.892,7.927,17.318,14.34,25.315,22.163,22.438,1.023,25.157-4.163,40.082-11.609l13.712-4.222c12.17-5.279,18.129-14.918,25.315-25.33,7.246-10.5,20.917-16.889,28.48-27.44,7.175-10.01,8.175-21.6,13.712-33.773,3.783-8.317,11.039-17.692,13.713-27.441Q426.715,264.428,427.242,248.067ZM470.489,157.3h2.11v2.111h-2.11V157.3ZM82.324,260.732c0.937,9.18,4.484,20.676,5.274,28.5,0.5,4.93-4.793,8.08-2.11,14.775l7.384,7.388c3.136,4.963,2.329,12.147,5.274,16.887,3.551,5.715,9.986,10.289,13.712,15.831,4.684,6.964,8.162,17.253,14.767,22.163,4.268,3.172,9.379,4.253,13.713,7.388l18.986,20.053c3.245,2.312,6.967,2.062,10.548,4.221,4.456,2.686,7.156,8.231,12.658,10.554,5.862,2.476,12.629-.113,20.041,2.111,5.947,1.784,13.392,3.147,21.1,5.277,3.983,1.1,15.388,5.738,17.931,4.222,0.793-1.133.635-1,1.055-3.166-8.692-4.137-2.857-3.842-7.384-8.444-3.243-3.3-8.724-3.642-12.657-6.332-11.339-7.754-22.171-26.579-30.589-38-5.519-7.483-17.554-9.3-23.206-16.886-11.174-14.994-23.111-27.73-37.972-39.05l-11.6-14.776c-4.728-3.447-10.878-4.019-15.822-7.388C94.08,279.7,93.165,266.335,82.324,260.732Zm320.658,65.435h2.11v2.111h-2.11v-2.111Zm-10.548,16.886h2.11v2.111h-2.11v-2.111Z"/>
</svg>
