<svg xmlns="http://www.w3.org/2000/svg" width="550" height="550" viewBox="0 0 550 550">
  <defs>
    <style>
      .cls-1 {
        fill: #111;
        fill-rule: evenodd;
      }
    </style>
  </defs>
  <path id="gitrhub_1" data-name="gitrhub 1" class="cls-1" d="M252.812,3a342.4,342.4,0,0,1,76.935,8.1c8.4,1.832,16.292-1.623,23.283-2.024h52.64c5.273-1.134,15.088-4.235,21.258-3.036,33.857,6.584,58.909,20.263,82,37.439,14.291,10.632,25.519,49.005,30.369,69.819,3.177,13.634-5.626,24.31-4.049,34.4,2.027,12.967,9.127,32.806,5.062,51.6-1.435,6.637-3.6,36.452-2.025,43.511,2.317,10.4,9.936,39.4,7.086,51.6-3.556,15.224-7.755,30.627-11.135,45.535V386.5c-1.057,4.879-3.327,24.313-2.025,29.344,3.576,13.817,7.873,36.22,2.025,51.606-12.217,32.142-53.228,59.227-89.083,67.8-11.184,2.673-31.572,2.373-42.516,0-17.644-3.826-47,3.927-58.714-3.036-13.318-7.917-11.365-26.618-7.086-41.486,1.836-6.38-1.927-16.214-3.037-21.25-3.275-14.863,5.928-28.3,1.012-43.51-5.752-17.8-25.668-10.275-19.233-38.451,3.509-2.281,6.031-6.54,10.123-8.1,8.956-3.406,19.623.376,30.369-2.024,12.952-2.893,26.075-5.422,35.43-12.143,12.877-9.25,31.048-42.908,35.431-60.712q-0.505-17.2-1.012-34.4c1.92-8.428,9.26-29.509,6.073-40.475-3.771-12.979-17.254-21.037-22.27-33.391-5.3-13.052,16.366-68.849-7.086-70.831-7.806,5.155-23.552,5.907-33.406,9.106-10.941,3.553-19.563,11.6-31.382,14.167-11.444,2.48-18.076-8.025-31.381-5.06-15.89,3.542-35.568,6.842-53.652,3.036-15.373-3.235-24.937,9.514-41.5,5.059-10.986-2.953-17.637-11.167-26.32-16.19-11.724-6.781-34.372-8.092-49.6-7.083V130.5c-4.678,6.554-8.494,21.626-5.062,32.38,2.053,6.432,9,13.672,6.074,24.285-2.829,10.244-12.812,14.992-16.2,26.308-6.258,20.925-11.512,71.86-3.037,92.081a191.5,191.5,0,0,0,17.21,32.38l11.135,10.119c5.086,6.723,10.925,13.866,18.221,18.213,3.944,2.35,23.993,11.194,30.369,9.107,6.425-2.1,14.308-12.875,24.3-6.071,5.646,1.754,6.549,5.528,10.123,9.107,0.853,11.306-.671,17-7.086,23.273l-5.062,3.035v9.107c-1.079,3.238-5.378,9.3-8.1,11.131-7.369,4.961-14.509.346-22.271,2.024-3.631.784-8.49,4.711-15.185,3.035-18.676-4.675-33.646-24.473-43.529-38.451-5.141-7.272-23.094-21.57-36.442-13.154-3,.762-3.873,1.744-6.074,3.035a14.319,14.319,0,0,1,1.012,4.048c8.731,2.55,31.853,28.924,35.431,37.439,4.446,10.585,5.3,18.686,14.172,24.285l10.123,2.024c4.694,1.518,11.655,3.812,17.209,5.059,9.639,2.164,19.958-1.53,26.32-3.035,7.035-1.665,11.653,1.876,16.2,3.035,5.054,7.789,9.954,17.154,7.086,30.356-3.748,17.249,2.27,30.226-6.074,42.5-9.9,14.554-63.532,16.467-87.058,11.131H86.794c-19.943-4.949-47.209-23.885-57.7-38.452-8.07-11.2-14.981-29.974-18.221-45.534l3.037-64.76c-2.963-13.908-.725-32.129-4.049-47.558-2.457-11.406-4.6-29.563-2.025-41.486V282.277c1.8-8.28,7.525-38.692,6.074-46.546-6.945-37.588-12.174-94.667-3.037-133.567,1.685-7.176-2.084-11.958,0-19.226,5.077-17.706,17.989-36.812,31.381-46.546C61.459,22.433,87.43,15.6,114.127,9.071c11.964-2.927,22.7,1.971,33.406,2.024,27.756,0.138,57.26-.54,79.971-6.071C234.388,3.347,247.14,6.521,252.812,3ZM104,380.428h6.073c1.319,2.447,1.824,2.868,2.025,7.084a11.1,11.1,0,0,0-3.037,2.023c-1.776-.638-0.983-0.2-2.025-1.012C102.645,387.159,102.484,384.624,104,380.428Zm12.147,9.107,6.074,1.012c1.127,2.506,1.709,3.271,2.025,7.083-2.31,1.24-2.279,1.658-6.074,2.024-2.3-2.542-3.345-2.515-4.049-7.083A11.7,11.7,0,0,0,116.151,389.535ZM126.274,403.7h5.062a25.27,25.27,0,0,0,4.049,5.059c-0.639,1.775-.195.983-1.012,2.024-1.334,3.4-1.561,2.932-6.074,3.035C125.291,409.572,123.524,408.98,126.274,403.7Zm13.16,14.166H144.5c2.081,3.127,3.5,2.96,4.049,8.1-2.31,1.239-2.279,1.657-6.074,2.023C138.58,424.241,136.452,423.493,139.434,417.868ZM200.172,429l6.074,1.012q0.505,2.531,1.012,5.06c-3.5,2.26-4.072,3.785-10.123,4.047a18.531,18.531,0,0,1-1.012-6.071Zm-42.516,1.012h5.061a18.257,18.257,0,0,0,3.037,4.048l-1.012,3.035a11.071,11.071,0,0,0-3.037,2.024c-1.776-.638-0.984-0.195-2.025-1.012C154.424,436.466,155.614,433.66,157.656,430.01Zm22.27,2.024h5.062a18.251,18.251,0,0,0,3.037,4.047c-1.3,2.573-1.111,2.907-4.05,4.048-1.929,1.5-3.359,1.872-5.061,1.012-2.5-1.31-.689.434-2.025-2.024C174.967,435.521,178.015,434.577,179.926,432.034Z"/>
</svg>
