<svg id="GRAPHQL" xmlns="http://www.w3.org/2000/svg" width="2083" height="2083" viewBox="0 0 2083 2083">
  <defs>
    <style>
      .cls-1 {
        fill: #ec86f8;
      }
    </style>
  </defs>
  <path id="GATSBY-BG" class="cls-1" d="M639.432,49.031c58.548-.486,106.026,4.8,157.281,13.936l50.768,1L953,70.93l122.441-3.982c48.06,8.6,104.24,1.113,154.29,9.954h75.66l108.5,11.945,65.7,3.982,87.6,5.972,39.82,1c37.66,6.837,84.58.917,124.43,7.963l55.74,1q26.385,4.975,52.76,9.954l40.82,2.986c24.36,4.537,43.37,12.422,59.72,24.885,51.31,39.112,62.82,107.611,76.65,185.147,2.58,14.452-2.02,30-3.98,40.812q3.48,23.887,6.97,47.779v70.675q7.47,41.3,14.93,82.619v53.752q4.485,18.91,8.96,37.825v98.546c0,76.487-2.07,156.568-1.99,229.94,0.11,109.734,12.07,240.384-5.97,341.424v31.85l-3.99,48.78v33.84c-6.94,38.96-9.33,76.41-15.92,113.48-6.69,37.55,12.76,67.34,5.97,105.51q-1.5,20.91-2.99,41.81-4.965,22.89-9.95,45.79,0.99,37.32,1.99,74.66c-11.19,62.34-18.94,119.13-61.72,149.31-29.39,20.73-61.33,35.49-103.52,43.8-23.85,4.69-57.88,1.86-79.64-1.99q-18.42-.51-36.83-1-44.295-4.485-88.6-8.96l-35.83-.99c-23.51-4.13-55.15-6.38-80.63-2.99h-38.83l-101.53,10.95h-40.82c-94.54,17.32-205.68,15.92-319.53,15.93-80.972,0-165.641,1.94-232.939-9.96H754.9a532.017,532.017,0,0,0-105.517,9.96H589.66c-53.165,0-100.931-2.03-143.344-9.96q-13.438,1.5-26.877,2.99c-19.869,3.77-59.78,7.06-82.623,2.98q-25.382-1.98-50.767-3.98-37.824-7.455-75.654-14.93l-39.818-.99c-36.166-6.49-61.338-11.08-84.613-28.87-20.24-15.47-46.89-58.47-38.822-101.53,3.034-16.2,8.92-31.05,11.945-45.79q0.5-14.94,1-29.86c3.16-16.34,12.656-38.95,8.959-57.74-3.974-20.19-6.852-42.59-10.95-65.7q-1-26.865-1.991-53.75c-3.928-20.56-10.856-46.39-5.973-71.67,2.611-13.51,10.636-32.6,7.964-47.78-6.051-34.37-27.969-69.91-18.913-118.45,2.9-15.53,7.905-30.83,10.95-44.79q-1-31.86-1.991-63.71c0-39.8,5.459-76.87-1-113.48-3.8-21.55.86-47.87,3.982-64.7q-2.986-35.835-5.973-71.67,0.5-26.37,1-52.755l-1.991-58.73c4.194-23.367,7.959-46.468,11.945-67.687q0.5-36.33,1-72.665c2.522-14.217,7.827-32.705,4.977-48.776-2.3-12.993-6.813-31.068-3.982-46.784,2.68-14.876,6.1-30.37,8.959-43.8,3.293-15.483-.766-32.528,1-46.784,1.841-14.906-6.394-30.076-8.959-43.8q0.5-37.822,1-75.651l3.982-23.89c-2.7-12.129-8.306-25.709-10.95-39.817-8.414-44.9,5.416-86.485,11.945-121.44,4.377-23.434-7.354-43.77-10.95-63.706-6.666-36.954,15.81-76.99,28.868-96.555,14.975-22.438,40.326-36.752,70.677-43.8l28.868-1.991,20.9-7.963L275.1,60.976l82.622-2.986c39.1-6.923,82.3-4.977,126.422-4.977,36.868,0,76.264,4.908,109.5-1Z"/>
</svg>
