<svg id="GRAPHQL" xmlns="http://www.w3.org/2000/svg" width="2083" height="2083" viewBox="0 0 2083 2083">
  <defs>
    <style>

    .cls-1 {
        fill: #111111;
      }

      .cls-2 {
        fill: #fefefe;
      }
    </style>
  </defs>
  <path id="GATSBY-BG" class="cls-1" d="M639.432,49.031c58.548-.486,106.026,4.8,157.281,13.936l50.768,1L953,70.93l122.441-3.982c48.06,8.6,104.24,1.113,154.29,9.954h75.66l108.5,11.945,65.7,3.982,87.6,5.972,39.82,1c37.66,6.837,84.58.917,124.43,7.963l55.74,1q26.385,4.975,52.76,9.954l40.82,2.986c24.36,4.537,43.37,12.422,59.72,24.885,51.31,39.112,62.82,107.611,76.65,185.147,2.58,14.452-2.02,30-3.98,40.812q3.48,23.887,6.97,47.779v70.675q7.47,41.3,14.93,82.619v53.752q4.485,18.91,8.96,37.825v98.546c0,76.487-2.07,156.568-1.99,229.94,0.11,109.734,12.07,240.384-5.97,341.424v31.85l-3.99,48.78v33.84c-6.94,38.96-9.33,76.41-15.92,113.48-6.69,37.55,12.76,67.34,5.97,105.51q-1.5,20.91-2.99,41.81-4.965,22.89-9.95,45.79,0.99,37.32,1.99,74.66c-11.19,62.34-18.94,119.13-61.72,149.31-29.39,20.73-61.33,35.49-103.52,43.8-23.85,4.69-57.88,1.86-79.64-1.99q-18.42-.51-36.83-1-44.295-4.485-88.6-8.96l-35.83-.99c-23.51-4.13-55.15-6.38-80.63-2.99h-38.83l-101.53,10.95h-40.82c-94.54,17.32-205.68,15.92-319.53,15.93-80.972,0-165.641,1.94-232.939-9.96H754.9a532.017,532.017,0,0,0-105.517,9.96H589.66c-53.165,0-100.931-2.03-143.344-9.96q-13.438,1.5-26.877,2.99c-19.869,3.77-59.78,7.06-82.623,2.98q-25.382-1.98-50.767-3.98-37.824-7.455-75.654-14.93l-39.818-.99c-36.166-6.49-61.338-11.08-84.613-28.87-20.24-15.47-46.89-58.47-38.822-101.53,3.034-16.2,8.92-31.05,11.945-45.79q0.5-14.94,1-29.86c3.16-16.34,12.656-38.95,8.959-57.74-3.974-20.19-6.852-42.59-10.95-65.7q-1-26.865-1.991-53.75c-3.928-20.56-10.856-46.39-5.973-71.67,2.611-13.51,10.636-32.6,7.964-47.78-6.051-34.37-27.969-69.91-18.913-118.45,2.9-15.53,7.905-30.83,10.95-44.79q-1-31.86-1.991-63.71c0-39.8,5.459-76.87-1-113.48-3.8-21.55.86-47.87,3.982-64.7q-2.986-35.835-5.973-71.67,0.5-26.37,1-52.755l-1.991-58.73c4.194-23.367,7.959-46.468,11.945-67.687q0.5-36.33,1-72.665c2.522-14.217,7.827-32.705,4.977-48.776-2.3-12.993-6.813-31.068-3.982-46.784,2.68-14.876,6.1-30.37,8.959-43.8,3.293-15.483-.766-32.528,1-46.784,1.841-14.906-6.394-30.076-8.959-43.8q0.5-37.822,1-75.651l3.982-23.89c-2.7-12.129-8.306-25.709-10.95-39.817-8.414-44.9,5.416-86.485,11.945-121.44,4.377-23.434-7.354-43.77-10.95-63.706-6.666-36.954,15.81-76.99,28.868-96.555,14.975-22.438,40.326-36.752,70.677-43.8l28.868-1.991,20.9-7.963L275.1,60.976l82.622-2.986c39.1-6.923,82.3-4.977,126.422-4.977,36.868,0,76.264,4.908,109.5-1Z"/>
  <path id="GRAPHQL-LOGO" class="cls-2" d="M466.568,858.868c-45.715-2.18-58.566-16.753-81.582-39.77-27.062-27.062-61.119-76.578-38.752-130.526l22.435-33.651c10.544-17.1,21.558-36.613,37.732-47.927,18.384-12.86,82-36.876,117.275-29.573,27.748,5.746,44.977,17.154,62.206,32.632,3.365,3.023,1.524,2.6,5.1,1.02l71.384-36.711c21.789-9.619,45.634-16.327,68.326-26.513,36.349-16.317,71.832-42.756,104.017-63.224l69.345-30.592c-18.98-45.285,5.989-88.744,26.514-118.289l20.4-35.691c30.512-39.32,92.067-44.226,146.847-21.414,38.66,16.1,78.67,56.193,87.7,101.973,5.52,27.977-14.3,54.866-4.08,69.342q34.17,22.432,68.33,44.869l67.3,25.493c25.29,10.88,49.25,25.933,72.41,38.75q19.365,7.647,38.75,15.3c25.11,12.636,44.51,38.166,72.4,44.868,64.6-93.865,256.62,1.345,235.57,111.151-8.79,45.9-28.82,91.226-61.18,114.211l-33.66,17.335c14.75,46.53-4.38,122.083-13.25,166.213-13.51,67.19-8.31,141.84,9.17,196.81,58.45,7.63,125.17,88.7,101.98,164.18-5.94,19.35-18.6,28.24-29.57,41.81-22.82,28.21-54.34,60.01-98.92,65.26-11.55,1.36-22.71-4.58-31.61-6.12l-28.56,1.02c-24.94-4.66-37.01-15.68-52.01-29.57-38.3,27.17-89.97,52.11-134.61,71.38-18.83,8.14-37.56,11.41-54.05,21.42-25.55,15.5-50.62,34.1-74.44,50.98q-23.955,13.77-47.93,27.54,1.53,28.035,3.06,56.08c-11.08,59.04-66.6,109.46-120.33,126.45-46.11,14.58-71.994-8.93-94.843-23.45-16.935-10.77-42.349-16.68-54.048-32.64-15.527-21.18-16.843-106.29-7.138-131.54q-33.139-14.28-66.286-28.55-16.824-13.26-33.653-26.52c-24.488-13.93-56.207-16.45-79.542-30.59-42.707-25.87-85.414-56.06-132.572-76.48-23.016,39.8-66.77,43.01-118.294,33.65-20.411-3.71-36.684-3.43-50.989-12.24-16.49-10.15-66.514-69.27-72.4-88.71-4.557-15.05-.5-31.56-4.079-49.97-3.842-19.76-5.547-43.78,4.079-60.16,23.854-40.6,64.006-49.78,113.2-66.29,0.15-41.7-11.172-68.99-17.336-106.05-5.523-33.21,11.281-54.84,17.336-76.48,4.254-15.2,0-41.462-2.039-54.045q1.53-42.315,3.059-84.638C471.621,888.137,466.6,878.739,466.568,858.868Zm678.152-346.71,20.4,36.711c15.05,19.343,38.44,30.434,52.01,52.006,16.2,25.775,23.09,53.7,36.71,82.6,5.79,12.3,17.41,24.048,23.45,37.73,10.38,23.5,22.86,44.643,32.63,66.283q5.61,15.294,11.22,30.592c17.76,30.4,49.23,54.21,68.33,84.638q11.73,23.961,23.45,47.927,18.36,32.118,36.71,64.246c14.95,34.54,22.85,68.94,39.78,102.99,18.06,36.34,44.49,70.18,61.18,110.13l12.24-5.1q-6.63-24.465-13.26-48.94c-4.81-24.53-2.31-91.18,2.04-116.25,8.09-46.57,14.07-100.617,24.48-146.845q-3.57-23.963-7.14-47.928c-14.37-4.165-24.13-13.612-35.69-20.395-12.75-7.474-27.49-8.954-38.76-17.335-9.87-7.346-15.56-19.057-22.43-29.572-26.39-40.417-32.59-66.4-7.14-112.171q-15.3-9.177-30.59-18.356c-62.74-44.148-137.11-71.051-212.12-104.013C1193.83,548.627,1172.38,523.96,1144.72,512.158ZM936.686,519.3L875.5,543.77l-21.415,18.355-55.068,27.533L762.3,612.092l-70.365,27.533-62.206,31.612c15.13,81.63-29.166,175.177-91.781,193.749,3.376,15.649,11.81,34.052,8.159,57.106q-1.53,29.06-3.06,58.125c2.84,17.8,5.935,48.623,2.04,69.343q-8.667,24.465-17.336,48.95c-4.561,24.23,8.663,50.88,13.257,69.34q2.549,15.285,5.1,30.59v-2.04c13.013-17.66,15.751-42.76,27.534-62.2q14.276-17.85,28.553-35.69c16.53-25.75,27.172-53.81,43.851-80.56q27.021-37.731,54.048-75.464L718.453,896.6,782.7,755.875c18.428-31.531,45.709-51.069,67.306-78.52,30.994-39.395,50.861-63.7,71.384-116.25C924.682,552.674,940.657,525.141,936.686,519.3Zm69.344,24.474q-8.67,20.9-17.335,41.809c-12.689,32.252-22.362,60.741-40.792,86.678q-24.471,29.06-48.949,58.124l-44.87,45.889c-14.47,20.293-22.288,46.1-32.633,70.361-16.34,38.325-34.681,77.225-52.009,117.27C751.6,1005.14,719.66,1032.21,700.1,1073.01c-22.013,45.91-53.7,78.11-74.444,126.45-5.2,12.11-23.192,33.81-16.316,46.91,13.3,6.58,22.158,25.32,25.494,41.81q2.55,15.795,5.1,31.61l48.95,9.18c55.3,12.08,122.977,13.26,184.58,2.04,124.464-22.69,273.19-17.24,396.69,2.03q23.97-1.515,47.93-3.05c43.05-6.87,86.02-5.07,132.57-5.1,9.82-20.63,25.68-38.29,38.76-56.09-2.11-12.96-10.06-21.88-15.3-31.61-16.44-30.5-31.75-57.54-47.93-85.66q-20.91-53.535-41.81-107.07-9.69-15.81-19.38-31.61-15.795-32.121-31.61-64.245c-20.48-35.151-54.04-60.5-74.44-94.836q-6.63-17.332-13.26-34.671c-10.07-21.651-22.25-42.628-32.63-66.282q-12.24-19.884-24.48-39.77c-10.86-25.815-17.14-50.916-31.61-73.421q-23.46-22.433-46.91-44.868c-11.38-14.426-17.33-39.482-31.61-50.987C1054.04,550.373,1031.15,546.241,1006.03,543.77Zm47.93,841.28-41.81,1.02-64.247,5.1-77.5,12.24-50.989,3.06c-19.491,3.32-45.6,9.06-70.364,5.09-39.873-6.39-81.893-18.34-119.314-20.39v3.06l-1.02,5.1c32.654,8.67,61.239,33.87,87.7,49.96l35.692,15.3c11.163,6.72,19.646,17.07,32.633,22.43l57.107,19.38c17.231,7.46,29.036,22.37,43.851,31.61,21.223,13.25,47.376,19.49,72.4,28.55,33.491-25.05,82.619-59.46,139.709-36.71,9.96,3.97,51.53,41.93,52.01,41.81,25.41-6.31,55.27-36.61,76.48-49.96,47.16-29.68,102.62-52.57,153.99-78.52,27.01-13.65,63.38-19.55,77.5-45.89v-1.02c-45.32.05-90.33-1.71-134.61,5.1-14.79,2.27-35.1,5.75-53.03,3.06C1203,1394.33,1131.25,1385.28,1053.96,1385.05Z"/>
</svg>
