<svg xmlns="http://www.w3.org/2000/svg" width="2400" height="693" viewBox="0 0 2400 693">
  <defs>
    <style>
      .cls-1 {
        fill: #f6edd4;
        fill-rule: evenodd;
      }
    </style>
  </defs>
  <path id="header2_1" data-name="header2 1" class="cls-1" d="M0,0H2400V628.625c-5.24,2.645-10.79,8.23-16,10.009h-74L2166,623.62c-12.23-1.087-26.36,2.536-37,5-16.97,3.934-34.87,2.322-51,6.006l-90,8.007-33,1c-5.91,1.28-15.85-.544-23,1-11.46,2.476-45.21,2.943-55,1h-28c-15.42,0-32.48.029-46-3l-20-1c-36.92-8.444-74.88-10.987-111-20.019l-31-4c-7.27-1.711-47.37-9.625-55-7.007-4.3,1.473-9.16,6.661-13,9.009l-24,10.01-73,15.014c-37.17,9.506-82.17,4.573-120,13.013H1224q-50.49,17.016-101,34.034c-8.59,2.227-30.87-7.671-38-10.01-12.38-4.058-23.49-4.958-36-9.009-17.81-5.768-37.74-12.413-56-17.017H848c-14.613,0-33.182,1.854-46-1-14.753-3.285-33.481,2.013-47-1l-98-1c-28.535-.215-58.544.027-85,6.006-17.091,3.863-34.924,1.375-51,5l-67,6.006c-4.282,1.476-8.555,6.573-13,8.008-6.806,2.2-21.616.2-27-1-10.629-2.361-24.606,1.091-34-1l-24-1c-41.971-9.654-89.493-8.187-132-17.017-5.577-1.158-17.886.866-23,2-15.2,3.378-34.315-.262-49,3l-50,2c-9.952,2.191-21.914-.435-33,2-19.878,4.371-46.823,3.94-69,4V0ZM972,602.6a5.288,5.288,0,0,0,6,0h-6Z"/>
</svg>
