<svg xmlns="http://www.w3.org/2000/svg" width="1920" height="1080" viewBox="0 0 1920 1080">
  <defs>
    <style>
      .cls-1 {
        fill: #111;
        fill-rule: evenodd;
      }
    </style>
  </defs>
  <path id="james_loglo_1" data-name="james loglo 1" class="cls-1" d="M136.954,329.422c30.863-.316,109.917-6.6,121.794,10.242,8.429,11.955,3.415,73.521,3.414,94.452V592.293c0,28.606,2.828,61.636-3.414,85.348A112.579,112.579,0,0,1,239.4,717.47c-20.773,26.631-73.453,33.555-119.516,34.139-20.129.255-45.028,2.532-55.775-6.828-12.122-10.558-12.186-95.307,0-105.831,10.058-8.686,25.906-1.682,39.839-7.966,4.7-1.563,7.262-3.455,9.106-7.966,7.581-13.387,1.313-33.958,4.553-52.346q0.569-79.65,1.138-159.316C118.742,369.346,110.327,348.205,136.954,329.422Zm245.864,0H521.685c19.836,0,46.46-2.964,58.051,5.69,13.909,10.386,17.326,58.844,22.765,79.658L656,648.054c5.807,22.152,22.872,77.782,3.415,91.037-11.251,7.665-111.71,7.7-122.932,0-16.6-11.387-8.626-37.661-33.009-43.243-21.746-4.978-70.155-.345-77.4,10.242-9.282,13.56-4.787,30.2-21.627,36.415-13.243,4.884-101.736,3-110.41-2.276-22.2-13.51-3.307-74.634,3.414-100.141q24.471-108.1,48.945-216.214c9.28-35.689,7.2-72.422,31.872-93.314ZM1037.31,530.843h-5.69q-13.08,75.1-26.18,150.212c-4.59,20.336-2.27,44.777-17.071,54.622-10.606,7.055-38.234,3.417-54.636,3.414-15.787,0-39.759,2.941-50.083-3.414-13.87-8.536-11.771-26.861-15.936-45.518q-9.674-54.049-19.35-108.108c-2.886-12.774-.981-48.949-13.659-51.208V675.365c0,19.989,3.142,47.525-5.691,59.174-10.679,14.084-48.69,9.1-72.849,9.1-16.177,0-43.022,3.518-53.5-3.414-18.166-12.022-12.521-53.416-12.52-83.072V422.736c0-30.951-7.474-80.45,14.8-89.9,9.544-6.243,32.769-3.414,47.807-3.414H858.608c21.023,0,38.356-1.029,46.669,11.38,12.272,18.319,5.961,70.114,21.627,83.072,15.64,9.345,18.866-5.792,21.627-18.208,4.284-19.271,4.3-60.043,18.212-70.554,10.036-7.584,30.2-5.689,47.807-5.69H1126.1c18.92,0,40.16-2.188,48.94,7.966,12.67,14.648,6.83,59.478,6.83,85.348V649.192c0,30.7,6.75,78.82-12.52,91.037-10.74,6.815-37.12,3.414-53.5,3.414-23.15,0-60.64,4.849-71.71-7.966-9.81-11.365-6.83-38.293-6.83-59.174V530.843Zm194.65-201.421h190.08c31.1,0,70.84-4.135,97.89,2.276q3.99,5.121,7.97,10.242v89.9c-1.88,5.917-8.25,8.821-12.52,12.517-41.69-.2-109.97-6.258-145.69,2.276-36.18,49.9,82.96,26.84,114.96,35.277,11.64,18.6,10.36,79.5,3.41,103.555-24.37,16.618-85.74,2.008-118.37,9.1q-3.99,5.121-7.97,10.242c-0.1,7.067.98,10.953,2.27,15.931,26.73,18.725,113.66,4.149,154.81,9.1,8.38,11.019,9.1,20.948,9.1,42.105s5.4,60.931-7.97,69.416c-10.37,6.587-39.67,2.276-54.63,2.276H1325.29c-35.15,0-89.41,7.279-106.99-11.38q-0.57-149.058-1.14-298.147,0.57-46.653,1.14-93.314C1220.78,334.446,1226.74,333.118,1231.96,329.422Zm355.13,6.828h183.26c22.5,0,58.3-4.492,71.71,5.69,8.51,6.459,13.13,80.27,7.97,100.141-7.37,28.358-91.5,18.209-128.62,18.208-14.53,0-38.55-3.474-44.4,5.69-5.21,6.643.35,12.094,4.56,15.931q15.36-2.276,30.73-4.552c42.89-7.858,96.32,10.217,117.24,26.174,54.65,41.679,43.82,178.475-5.69,216.214-46.8,35.674-138.12,37.46-209.44,21.621-24.15-5.362-57.81-4.039-63.74-27.311-2.29-8.992,1.01-20.615,2.27-27.311,4-21.116-.74-43.309,13.66-53.485,10.76-7.6,31.48-2.685,45.53,0,32.5,6.208,81.66,8.077,111.55,0,17.43-29.406-10.93-23.531-33.01-27.311-40.17-6.878-88.83,2.792-127.48-4.552-8.28-13.988-2.3-45.945-2.28-67.14q2.85-89.322,5.69-178.661c2.47-9.456,9.53-12.717,15.94-18.208C1584.06,337.009,1585.57,336.63,1587.09,336.25Z"/>
</svg>
