<svg xmlns="http://www.w3.org/2000/svg" width="480" height="480" viewBox="0 0 480 480">
  <defs>
    <style>
      .cls-1 {
        fill: #111;
        fill-rule: evenodd;
      }
    </style>
  </defs>
  <path id="js_1" data-name="js 1" class="cls-1" d="M370.855,7c13.642,0.03,25.179,3.4,36.9,5.986h45.875c2.146,0.6,4.322,2.285,6.981,2.993,1.489,2.6,4.142,5.929,4.986,8.979V40.921c3.365,12.781,5.322,31.37,2,46.891-3.559,16.6,1.221,34.921-2,49.884-2.836,13.2-.046,27.022,0,39.908q-0.5,11.472-1,22.947,2.991,8.978,5.984,17.958c4.629,19.469,1.947,41.224,5.983,59.861,3.837,17.715-4.969,33.912-7.978,46.891-2.017,8.7,1.634,17.354,2.992,22.947q0.5,10.474,1,20.951c1.6,6.782-.375,19.165,2,27.935,6.175,22.849,4.9,56.23-10.97,66.845-10.554,7.06-28.592,7.108-45.875,6.984l-11.967-1c-10.058,1.971-21.053,5.417-34.9,3.991-6.434-.663-12.843-4.986-21.94-2.993-13,2.846-25.27,2.984-39.891,2.993H289.079c-21.049,4.574-44.824,1.337-63.826-2.993-6.137-1.4-27,.728-32.91,2-11.465,2.457-25.047-1.077-33.907-2.993-9.834-2.126-38.321,4.9-47.87,6.984-16.118,3.512-32.838-2.326-44.877-4.989-16.409-3.629-34.259,2.069-47.869-1l-5.984-6.984c-4.346-9.947,4.011-37.141,3.989-50.882-0.018-11.7-5.648-20.091-2.992-31.926,2.161-9.628,6.888-25.017,3.989-37.912-1.463-6.507-4.5-12.98-5.984-18.956-3.328-13.419-1.588-34.984,1-46.891v-16.96c1.8-8.365,2.566-21.135,3.989-27.936,0.668-3.192-2.166-18.095-2.992-21.949-2.916-13.611-.3-31.7,1.995-41.9,1.237-5.5.078-13.679,1-17.959l-1-29.93c-0.017-26.87-4-53.233,1-75.824,1.233-5.572-2.153-10-2.992-13.968-1-4.721,1.239-7.595,1.995-10.975,2.617-1.686,4.978-4.852,7.978-5.986,15.348-5.8,34.542,3.772,51.858,0,12-2.614,39.544-6.261,54.851-2.993,7.076,1.511,22.283,2.865,30.915,1C170.939,9.715,181.973,9,194.337,9h19.946c5.32-1.149,17.056-2.473,23.935-1,20.178,4.328,50.9,4.554,71.8,0C323.25,5.116,362.371,12.258,370.855,7ZM349.912,220.5c-4.716,4.149-10.346.913-17.951,2.993-5.9,1.614-16.724,8.333-19.945,12.97-5.13,7.384-3.571,12.721-5.984,23.945-3.2,14.884-2.185,45.675,3.989,54.872,4.46,6.643,13.856,7.761,20.943,11.972,2.893,1.719,5.79,5.571,8.976,6.984,12.092,5.367,23.866,6.965,33.907,13.968,5.339,3.723,8.491,9.384,12.965,13.967,0.224,21.46-11,24.375-27.924,28.933-7.56,2.036-20.408,3.4-26.927-1-6.723-4.534-10.019-17.333-18.948-18.956-1.07-.75-0.943-0.6-2.992-1-4.785,6.249-13.227,12.705-19.945,16.96,7.333,16.171,18.879,20.625,32.91,29.931,3.589,2.38,7.236,6.833,11.967,7.981l11.968-2c1.053,0.2,4.56,2.87,4.986,2.993,5.6,1.613,14.675-4.607,18.948-5.986l8.976-1c18.695-5.748,28.381-15.755,37.9-30.928,3.248-5.179,6.872-5.924,6.981-14.965-10.014-12.821-3.813-35.551-17.951-45.894-5.954-4.355-12.481-5.783-18.948-9.977-5.789-3.753-10.035-10.042-16.954-12.969-11.217-4.746-23.731-6.159-32.91-12.97-2.772-2.058-3.621-6.479-5.984-8.979-0.575-7.111.1-11.429,1-17.959,8.491-6.714,21.158-17.454,37.9-9.977,5.478,2.447,6.541,7.951,13.962,8.98,6.336-8.412,16.222-5,15.956-20.952C381.921,237.663,377.041,222.187,349.912,220.5Zm-127.651,2c-4.01,12.46,2.052,24.935-1,38.909-3.751,17.193,0,40.882,0,62.854q0.5,12.969,1,25.94c-2.636,10.808-7.424,24.056-9.973,34.919-5.535,3.808-18.3,12.841-26.926,6.984-11.534-3.315-10.529-16.966-23.935-17.959A115.461,115.461,0,0,1,136.5,392.106c0.629,1.75.193,0.969,1,2,1.772,6.619,7.419,17.128,12.964,19.954l14.959,2.993c6.437,2.641,12.569,8.012,19.946,9.977,18.843,5.018,52.2-9.191,57.842-17.959,1.543-2.4,10.638-30.626,9.973-32.923-1.741-6.011-9.273-10.533-6.981-20.952,5.369-24.408,8.615-50.177,5.983-78.817-1.279-13.929,3.984-27.261,0-39.907-1.287-4.087-3.833-8.552-4.986-13.967h-2C240.166,225.788,228.952,222.693,222.261,222.5Z"/>
</svg>
