<svg xmlns="http://www.w3.org/2000/svg" width="2083" height="2083" viewBox="0 0 2083 2083">
  <defs>
    <style>
      .cls-1 {
        fill: #86ccf8;
        fill-rule: evenodd;
      }
    </style>
  </defs>
  <path id="javascript_bg_1" data-name="javascript bg 1" class="cls-1" d="M1603.2,28.032c60.04-.78,108,15.072,156.83,25.8h111.44c38.08,0,101.45-5.689,119.69,13.414q10.32,18.056,20.64,36.115v73.263c8.04,36.549,12.53,76.216,16.51,120.728,3.6,40.2-6.89,79.607-13.41,114.537v33.019c0,42.877,8.14,89.552,0,130.015-12.4,61.63-2.76,122.833-3.1,189.863q-2.055,49.01-4.13,98.027,12.9,37.145,25.8,74.3,3.615,19.088,7.22,38.179,3.615,50.559,7.23,101.126v23.73q2.055,27.855,4.12,55.72l10.32,57.78c9.63,50.2-17.07,117.58-28.89,154.78-5.31,16.72-16.11,39-11.35,63.98,4.22,22.16,11.01,42.14,15.48,61.91q0.51,17.535,1.03,35.08c4.4,24.05,1.99,52.92,6.19,75.33q0.51,39.21,1.03,78.42c13.36,70.67,30.98,159.51,7.23,235.27-29.54,94.19-100.02,105.25-221.85,105.25l-58.81-2.07q-10.32-1.02-20.64-2.06c-34.38,6.8-92.78,26.75-137.23,18.57-27.25-5.01-48.33-11.48-74.3-16.51-22.27-4.31-55.82,6.4-75.32,10.32l-91.83,5.16H1248.24c-25.97,5.32-80.96,15.45-114.53,9.29l-61.91-5.16q-55.2-9.81-110.406-19.61l-44.369,2.07-45.4,3.09c-23.5,4.58-45.491,9.28-72.228,9.29a332.038,332.038,0,0,1-83.579-10.32c-18.979-4.87-43.1-11.89-68.1-7.22-70.024,13.06-130.277,23.3-199.144,36.11-23.547,4.38-53.784-2.67-72.228-7.22-42.379-10.45-78.657-16.4-123.821-24.76q-17.023.51-34.05,1.03-41.786,2.055-83.579,4.12c-15.877.01-36.457,1.84-47.464-4.12-24.1-10.23-39.436-52.13-31.987-91.84q7.738-51.075,15.478-102.15c3.737-17.67,10.272-43.79,6.191-66.04-6.359-34.67-23.051-83.03-14.446-120.73,9.849-43.16,32.68-106.63,20.637-160.97-12.282-55.42-35.075-93.48-35.082-165.1v-38.18c5.135-28.17,6.155-58.17,11.35-83.58v-77.39c5.67-27.84,6.417-59.35,12.382-89.77,2.743-13.99,8.458-31.9,5.159-49.531-5.415-28.952-9.644-58.331-15.478-85.645L59.57,861.778l-1.032-36.115,6.191-61.912c8.4-39.635,19.011-114.441,10.318-162l-1.032-30.956q-1.032-39.207-2.064-78.422l-2.064-82.549c-4.983-27.782,2.238-58.873-3.1-88.74V267.425l5.159-51.593c2.536-11.976,9.164-27.18,6.191-42.307L62.666,124c-4.371-28.013,24.392-57.252,41.273-65.008C167.243,29.9,245.174,75.026,316.5,61.052c28.334-5.551,59.012-9.667,88.738-15.478l42.305-3.1,63.974-3.1,41.273,3.1c25.553,5.257,80.269,17.2,112.47,11.351C696.3,48.188,724.069,46.144,754,40.415l42.3-3.1,135.171-1.032c26.351-1.137,57.689-12.2,89.769-6.191,96.58,18.1,228.8,21.808,326.06,1.032,13.86-2.96,34.68-3.568,48.5-1.032l131.04,6.191C1552.54,36.3,1588.58,39.995,1603.2,28.032Z"/>
</svg>
