<svg xmlns="http://www.w3.org/2000/svg" width="2083" height="2083" viewBox="0 0 2083 2083">
  <defs>
    <style>
      .cls-1 {
        fill: #111;
      }

      .cls-1, .cls-2 {
        fill-rule: evenodd;
      }

      .cls-2 {
        fill: #fefefe;
      }
    </style>
  </defs>
  <path id="javascript_bg_1" data-name="javascript bg 1" class="cls-1" d="M1603.2,28.032c60.04-.78,108,15.072,156.83,25.8h111.44c38.08,0,101.45-5.689,119.69,13.414q10.32,18.056,20.64,36.115v73.263c8.04,36.549,12.53,76.216,16.51,120.728,3.6,40.2-6.89,79.607-13.41,114.537v33.019c0,42.877,8.14,89.552,0,130.015-12.4,61.63-2.76,122.833-3.1,189.863q-2.055,49.01-4.13,98.027,12.9,37.145,25.8,74.3,3.615,19.088,7.22,38.179,3.615,50.559,7.23,101.126v23.73q2.055,27.855,4.12,55.72l10.32,57.78c9.63,50.2-17.07,117.58-28.89,154.78-5.31,16.72-16.11,39-11.35,63.98,4.22,22.16,11.01,42.14,15.48,61.91q0.51,17.535,1.03,35.08c4.4,24.05,1.99,52.92,6.19,75.33q0.51,39.21,1.03,78.42c13.36,70.67,30.98,159.51,7.23,235.27-29.54,94.19-100.02,105.25-221.85,105.25l-58.81-2.07q-10.32-1.02-20.64-2.06c-34.38,6.8-92.78,26.75-137.23,18.57-27.25-5.01-48.33-11.48-74.3-16.51-22.27-4.31-55.82,6.4-75.32,10.32l-91.83,5.16H1248.24c-25.97,5.32-80.96,15.45-114.53,9.29l-61.91-5.16q-55.2-9.81-110.406-19.61l-44.369,2.07-45.4,3.09c-23.5,4.58-45.491,9.28-72.228,9.29a332.038,332.038,0,0,1-83.579-10.32c-18.979-4.87-43.1-11.89-68.1-7.22-70.024,13.06-130.277,23.3-199.144,36.11-23.547,4.38-53.784-2.67-72.228-7.22-42.379-10.45-78.657-16.4-123.821-24.76q-17.023.51-34.05,1.03-41.786,2.055-83.579,4.12c-15.877.01-36.457,1.84-47.464-4.12-24.1-10.23-39.436-52.13-31.987-91.84q7.738-51.075,15.478-102.15c3.737-17.67,10.272-43.79,6.191-66.04-6.359-34.67-23.051-83.03-14.446-120.73,9.849-43.16,32.68-106.63,20.637-160.97-12.282-55.42-35.075-93.48-35.082-165.1v-38.18c5.135-28.17,6.155-58.17,11.35-83.58v-77.39c5.67-27.84,6.417-59.35,12.382-89.77,2.743-13.99,8.458-31.9,5.159-49.531-5.415-28.952-9.644-58.331-15.478-85.645L59.57,861.778l-1.032-36.115,6.191-61.912c8.4-39.635,19.011-114.441,10.318-162l-1.032-30.956q-1.032-39.207-2.064-78.422l-2.064-82.549c-4.983-27.782,2.238-58.873-3.1-88.74V267.425l5.159-51.593c2.536-11.976,9.164-27.18,6.191-42.307L62.666,124c-4.371-28.013,24.392-57.252,41.273-65.008C167.243,29.9,245.174,75.026,316.5,61.052c28.334-5.551,59.012-9.667,88.738-15.478l42.305-3.1,63.974-3.1,41.273,3.1c25.553,5.257,80.269,17.2,112.47,11.351C696.3,48.188,724.069,46.144,754,40.415l42.3-3.1,135.171-1.032c26.351-1.137,57.689-12.2,89.769-6.191,96.58,18.1,228.8,21.808,326.06,1.032,13.86-2.96,34.68-3.568,48.5-1.032l131.04,6.191C1552.54,36.3,1588.58,39.995,1603.2,28.032Z"/>
  <path id="js_1" data-name="js 1" class="cls-2" d="M1034.14,932.032c76.35-.477,81.2,56.18,93.66,120.428q2.58,26.76,5.15,53.53c6.8,29.85,16.09,77.44,8.23,116.31-4.7,23.25-10.76,41.48-15.44,66.9q-1.02,65.88-2.06,131.76-2.055,24.69-4.11,49.4c-11.73,56.92-22.2,115.04-38.09,166.75-13.91,45.29-15.28,92.9-39.11,126.61-33.78,47.78-125.88,71.02-192.479,86.46-22.113,5.12-56.555,9.03-79.256,2.06-26.109-8.03-50-25.79-64.846-45.29q-5.661-8.76-11.323-17.5c-29.137-24.07-62.859-35.9-72.051-80.29-11.07-53.45,44.465-101.88,94.7-87.49,24.845,7.12,62.249,37.98,82.344,53.53,7.8,6.03,13.136,20.17,22.645,23.67l24.7-6.18c23.653-7.5,48.9-15.28,71.022-24.7,2.715-40.01,18.551-80.63,28.82-116.31q10.292-51.465,20.586-102.93,2.572-57.12,5.147-114.26-0.515-19.545-1.03-39.11,3.089-29.85,6.176-59.7,5.661-18.525,11.322-37.06c5.907-27.66-4.632-55.68-9.263-76.17q-2.574-29.325-5.147-58.67-5.145-24.69-10.293-49.4c-6.543-33.924,25.078-67.694,45.287-76.172Q1021.79,935.121,1034.14,932.032Zm486.86,0c38.45-.77,65.3,10.061,91.6,20.586,22.69,9.081,49.17,14.5,70,22.645,26.3,10.287,42.77,8.945,58.67,29.847,15.15,19.94,22.79,59.55,7.2,85.44-47.94,79.6-149.21,12.19-214.09-4.12-14.36-3.61-28.91,5.37-39.12,8.23l-16.47,29.85q-3.6,17.505-7.2,35-2.58,8.235-5.15,16.47c1.65,18.85,21.84,38.86,33.97,48.38,55.05,43.18,130.63,60.82,187.33,100.87,36.2,25.57,86.22,100.7,103.96,145.13,17.17,42.98,4.52,101.24-9.26,135.87-10.21,25.63-17.45,53.32-31.91,75.14-32.82,49.52-91.55,77.99-147.19,104.99-24.31,11.8-86.4,38.44-126.6,30.88-51.1-9.61-101.75-17.71-136.9-43.23-19.33-14.03-32.9-36.58-47.35-55.58-25.55-33.61-33.63-83.05,4.12-112.2a96.415,96.415,0,0,1,25.73-14.41c40.43-14.31,75.56,10.95,91.61,31.91,6.16,8.05,13.09,23.66,22.64,27.79,57.09,24.67,110.72-4.17,149.25-29.85,11.16-7.44,27.53-13.74,35-24.7,9.24-13.56,22.19-48.75,25.73-65.88,3.52-17.01-17.18-33.48-23.67-43.23-8.06-12.08-14-29.84-25.74-38.08q-54.54-25.74-109.1-51.47c-68.67-40.66-133.97-80.1-162.63-160.57-8.31-23.33-18.8-57.59-11.32-89.55q9.765-37.575,19.55-75.14c9.35-26.16,24.56-52.88,40.15-74.113,21.31-29.035,56.08-45.777,94.69-57.641C1481.58,937.277,1509.87,937.356,1521,932.032Z"/>
</svg>
