<svg xmlns="http://www.w3.org/2000/svg" width="500" height="500" viewBox="0 0 500 500">
  <defs>
    <style>
      .cls-1 {
        fill: #86ccf8;
        fill-rule: evenodd;
      }
    </style>
  </defs>
  <path id="js_1" data-name="js 1" class="cls-1" d="M385.286,8c14.224,0.031,26.253,3.544,38.473,6.24H471.59c2.237,0.622,4.506,2.383,7.278,3.12,1.553,2.709,4.319,6.181,5.2,9.361V43.362c3.509,13.323,5.549,32.7,2.08,48.882-3.711,17.308,1.273,36.4-2.08,52-2.957,13.76-.048,28.169,0,41.6q-0.519,11.959-1.039,23.921l6.238,18.721c4.827,20.3,2.031,42.974,6.239,62.4,4,18.468-5.182,35.352-8.318,48.882-2.1,9.074,1.7,18.091,3.119,23.921q0.521,10.92,1.04,21.841c1.672,7.07-.392,19.979,2.08,29.122,6.438,23.818,5.106,58.617-11.438,69.683-11,7.36-29.812,7.41-47.831,7.28l-12.478-1.04c-10.487,2.055-21.951,5.647-36.393,4.16-6.708-.69-13.391-5.2-22.876-3.12-13.548,2.968-26.347,3.112-41.592,3.12h-20.8c-21.945,4.769-46.735,1.395-66.547-3.12-6.4-1.458-28.151.76-34.314,2.08-11.954,2.561-26.115-1.122-35.353-3.12-10.252-2.217-39.955,5.112-49.911,7.28-16.806,3.662-34.238-2.424-46.791-5.2-17.109-3.783-35.72,2.156-49.911-1.04l-6.239-7.28c-4.531-10.369,4.182-38.718,4.159-53.043C15.1,419.1,9.227,410.356,12,398.018c2.253-10.037,7.182-26.079,4.159-39.522-1.525-6.784-4.694-13.532-6.239-19.761-3.47-13.989-1.655-36.469,1.04-48.882V272.172c1.879-8.719,2.676-22.032,4.159-29.121,0.7-3.328-2.259-18.864-3.119-22.881-3.04-14.19-.311-33.047,2.08-43.682,1.29-5.738.081-14.26,1.04-18.721q-0.52-15.6-1.04-31.2c-0.018-28.01-4.174-55.493,1.04-79.043C16.4,41.713,12.871,37.094,12,32.961c-1.041-4.922,1.292-7.917,2.08-11.44,2.729-1.758,5.19-5.058,8.318-6.24,16-6.047,36.015,3.932,54.07,0,12.513-2.725,41.23-6.527,57.189-3.12,7.378,1.575,23.233,2.987,32.234,1.04,10.957-2.37,22.461-3.117,35.353-3.12h20.8c5.547-1.2,17.783-2.578,24.955-1.04,21.039,4.511,53.066,4.747,74.866,0C335.651,6.036,376.44,13.481,385.286,8ZM363.45,230.57c-4.917,4.325-10.788.951-18.716,3.12-6.148,1.682-17.437,8.687-20.8,13.521-5.349,7.7-3.723,13.261-6.239,24.961-3.336,15.516-2.279,47.615,4.159,57.2,4.65,6.925,14.447,8.09,21.836,12.48,3.016,1.792,6.037,5.807,9.358,7.281,12.608,5.594,24.885,7.26,35.354,14.56,5.566,3.882,8.853,9.783,13.517,14.561,0.234,22.371-11.465,25.409-29.115,30.161-7.882,2.123-21.278,3.543-28.074-1.04-7.011-4.727-10.447-18.069-19.756-19.761-1.116-.781-0.984-0.625-3.12-1.04-4.99,6.515-13.791,13.245-20.8,17.681,7.646,16.858,19.685,21.5,34.314,31.2,3.742,2.481,7.545,7.123,12.477,8.32l12.478-2.08c1.1,0.21,4.755,2.992,5.2,3.12,5.833,1.682,15.3-4.8,19.756-6.24l9.358-1.04c19.493-5.992,29.592-16.425,39.513-32.242,3.386-5.4,7.165-6.176,7.279-15.6-10.441-13.364-3.976-37.06-18.717-47.842-6.208-4.54-13.013-6.029-19.756-10.4-6.036-3.913-10.463-10.469-17.677-13.521-11.695-4.947-24.744-6.42-34.313-13.52-2.891-2.145-3.776-6.755-6.239-9.361-0.6-7.412.1-11.913,1.04-18.721,8.853-7,22.06-18.195,39.512-10.4,5.711,2.551,6.82,8.288,14.557,9.36,6.607-8.769,16.914-5.212,16.637-21.841C396.824,248.458,391.736,232.324,363.45,230.57Zm-133.095,2.08c-4.18,12.99,2.139,25.995-1.039,40.562-3.911,17.923,0,42.618,0,65.523q0.519,13.519,1.039,27.041c-2.748,11.267-7.741,25.078-10.4,36.4-5.771,3.97-19.083,13.386-28.074,7.28-12.026-3.455-10.978-17.685-24.956-18.72a120.363,120.363,0,0,1-26,18.72c0.656,1.825.2,1.011,1.04,2.08,1.848,6.9,7.736,17.855,13.518,20.8l15.6,3.121c6.711,2.753,13.1,8.352,20.8,10.4,19.647,5.232,54.424-9.58,60.308-18.721,1.609-2.5,11.092-31.927,10.4-34.321-1.815-6.267-9.668-10.981-7.278-21.841,5.6-25.445,8.982-52.309,6.239-82.164-1.335-14.521,4.153-28.419,0-41.6-1.343-4.26-4-8.915-5.2-14.561h-2.08C249.024,236.079,237.332,232.852,230.355,232.65Z"/>
</svg>
