<svg xmlns="http://www.w3.org/2000/svg" width="550" height="550" viewBox="0 0 550 550">
  <defs>
    <style>
      .cls-1 {
        fill: #111;
        fill-rule: evenodd;
      }
    </style>
  </defs>
  <path id="in_1" data-name="in 1" class="cls-1" d="M194.189,8c36.542-.183,60.025,5.993,94.872,5.994h33.955c32.2-7.132,79.489-7.261,110.851,0l51.93,1a150.554,150.554,0,0,1,18.974,5.994c5.125,1.982,10.974,3.055,13.982,6.993,3.6,4.718,3.5,9.8,5.992,15.985,5.04,12.537,9.512,30.189,12.982,43.959,2.165,8.589,1.278,19.443,3,26.975q-1.5,19.48-3,38.964c2.878,13.168,2.773,29.469,1,42.96-1.3,9.9,1.52,26.81-1,37.964V264.76c0,20.357-.486,42.436-2,59.944-0.369,4.275,1.033,16.718,2,20.98,3.4,15.012-1.218,30.633,2,43.959,1.236,5.122,5.364,13.322,4,19.982-1.436,6.988-4.191,14.676-5.992,20.98-2.71,9.488-3.9,19.13-5.992,27.974-1.631,6.9,1.891,12.4,3,16.984,4.641,19.245-11.3,41.955-20.972,47.955-18.326,11.373-45.51,9.465-69.906,14.986h-21.97c-6.382,1.4-18.585,1.443-24.967,0H352.975l-43.941,3c-3.758.829-12.666,2.215-17.975,1l-45.939-8.991c-6.32-1.447-15.725-.943-19.973,0h-21.97c-12.893.429-28.744,1.752-40.945-1l-76.9,1c-3.38.3-9.242,2.14-13.981,1-8.594-2.069-17.849-5.627-25.965-7.993-9.167-2.671-17.742-1.818-22.969-7.992-9.456-11.169-10.986-31.619-10.985-51.952v-20.98c-2.41-9.813-3.573-23.109-1-33.968l1-23.978c1.508-6.633,7.445-26.531,5.992-32.969-1.311-5.809-4.814-12.112-4.993-19.981-0.322-14.1,3.779-35.5,1-47.956q0.5-15.483,1-30.971c0.761-2.751,3.729-4.632,3-8.991-3.031-18.039-6.306-38.047-2-56.947,2.386-10.466-3.048-23.3-4.993-31.97-2.02-9,3.328-17.838,4.993-23.978,3.323-12.248-3.032-22.44-4.993-29.972-2.4-9.214,0-47.933,3-55.947C22.492,23.733,49,19.682,76.347,13c7.836-1.916,21.238-5.536,31.957-3,17.178,4.069,34.8,6.594,53.928,2C172.489,9.532,186.292,13.008,194.189,8Zm-72.9,72.932c-6.363,5.716-17.641,5.04-24.967,9.991-7.088,4.79-10.666,23.061-12.983,31.971-1.876,7.217,2.309,14.085,3.995,17.983,7.884,18.233,21.538,37.273,49.933,30.971,8.247-1.831,19.511,2.413,24.967-1,11.231-3.881,24.491-30.6,17.975-45.957-2.072-4.885-7.189-7.8-9.986-11.989-3.043-4.556-3.724-10.448-6.991-14.986-1.535-2.133-4.728-2.481-6.99-4-4.746-3.178-10.329-9.076-15.979-10.99ZM112.3,205.815l-7.99,3c-4.912,3.53-11.483,17.753-8.987,27.974,0.972,3.979,3.509,11.423,2,17.983-1.465,6.358-7.4,17.722-4.993,25.976,2.153,7.386,6.547,20,3.995,31.97-3.064,14.372-2.072,32.064,1,45.957,0.957,4.332-1.276,9.086-1,11.989,0.895,9.366,3.128,19.442,4.993,28.973,0.786,4.017-1.257,9.92-2,12.988-3.263,13.533-5.651,36.177,2,45.957,15.156,14.124,52.881,8.77,71.9,1l1-3c0.559-1.693-1.337-5.27-2-7.993-2.914-12,5.739-18.488,3-28.973-2.5-9.575-9.968-25.027-6.99-38.963,1.474-6.9.837-15.4,3-22.979,0.6-2.1,3.436-5.169,3.994-6.993,1.989-6.5-4.531-27.8-4.993-35.967-0.48-8.5.608-17.962,1-24.976,0.749-13.479-1.52-27.423,1-38.964,1.318-6.037-2.043-10.107-3-13.987q0.5-10.989,1-21.979c-7.109-2.3-7.82-7.575-16.977-7.993C143.031,213.91,124.919,206.915,112.3,205.815Zm177.761,4c-7.006-.131-11.749-1.824-16.977-3-5.559-1.247-12.751,1.083-16.977,2-11.686,2.53-20.365-2.6-31.958,0-11.269,18.109-8.795,66.868-4.993,90.915,3,18.974-6.6,38.315-2,58.945,2.558,11.474,1.692,28.889-1,39.963q0.5,10.49,1,20.98c-2.608,10.619,0,29.975,0,45.957,4.563,1.324,8.205,3.882,12.982,5,5.783,1.348,15.738-.073,19.974-1,16.95-3.706,41.993,3.053,43.941-14.986-3.37-4.98-1.125-12,0-16.984l-2-19.982c1.1-5.748,4.382-14.212,3-20.98-3.847-18.791-8.025-51.352-2-70.934l7.989-16.984c3.65-10.941,4.781-21.016,12.983-26.975,5.025-3.651,10.733-4.4,16.977-6.993,9.582-3.982,23.872-8.745,36.95-4,11.993,4.355,34.566,22.547,30.959,40.962-1.71,8.727-5.638,24.909-3,35.967,3.879,16.241-.477,40.647-4,56.946-1.038,4.81.673,8.633,0,11.989-3.414,17.037,5.835,32.523,8.988,44.958,5.156,1.655,6.179,4.526,12.983,5,13.259-9.849,38.228,2.335,49.932-6.993,1.907-2.93.889-6.972,2-10.99,1.92-6.956,4.291-16.01,5.992-22.978,4.584-18.781-4.733-33.884-1-50.953,4.972-22.727-.846-43.485-4.993-60.943q-0.5-12.486-1-24.976c-4.677-18.018-19.971-62.381-32.956-69.935-5.325-3.1-18.462-8.095-23.967-9.991-13.958-4.8-30.361,1.569-45.939-1-4.915-.81-18.963.9-25.965,4-9,3.984-10.483,11.58-15.978,18.982-2.5,3.364-7.013,5.068-9.987,7.992h-9.987c-3.462-3.369-6.618-6.528-9.986-9.99C289.646,222.3,290.026,217.789,290.06,209.811Z"/>
</svg>
