<svg xmlns="http://www.w3.org/2000/svg" width="300" height="300" viewBox="0 0 300 300">
  <defs>
    <style>
      .cls-1 {
        fill: #111;
      }

      .cls-1, .cls-2 {
        fill-rule: evenodd;
      }

      .cls-2 {
        fill: #fff;
        stroke: #000;
        stroke-width: 1px;
      }
    </style>
  </defs>
  <path id="circle_1" data-name="circle 1" class="cls-1" d="M280.981,224.1l-11.245,12.989-9.463,12.566-9.483,10.736c-5.982,5.207-11.261,11.073-17.295,15.155-12.218,8.268-26.4,9.656-39.334,13.169-26.872,7.3-57.3,10.432-85.807,2.97-8.941-2.341-16.944-8.411-26.528-12.03-11.885-4.489-27.894-9.3-39.417-22.471-4-4.569-8.365-7.1-11.382-11.441-6.036-8.68-11.962-18.113-15.578-27.427-2.644-6.808-3.039-13.625-4.737-20.4-3.963-15.813-7.448-37.671-3.37-54.183,3.212-13.007,9.815-25.539,15.6-38.986C28.249,92.416,33.921,80.324,40.4,67.571c3.467-6.83,10.339-12.473,15.14-16.114L68.279,40.73l13.616-8.593c9.863-6.684,19.218-15.395,29.423-20.918C118,7.6,124.873,6.357,131.7,4.648c2.855-.715,6.033-1.708,8.958-1.708,11.084,0,21.228,3.024,33.185,8.159l9.166,4.989c7.351,3,14.851,5.4,21.974,8.106l18.46,9.351L238.76,45.522c13.029,6.853,27.279,24,33.6,33.166,16.927,24.574,22.435,45.24,22.234,71.837-0.078,10.364.886,20.643-.457,31.224-0.628,4.95-3.326,9.186-4.352,14.385l-0.291,5.944c-0.773,4.066-2.863,8.576-3.97,12.5Z"/>
  <path id="Shape_318_1" data-name="Shape 318 1" class="cls-2" d="M144.5,102.6c11.929,0.008,53.7-.62,61.557,2.331q0.39,2.719.779,5.439c-11.6,8.163-48.012,40.257-61.557,41.185-4.705-6.979-12.851-8.96-19.48-13.987-7.906-6-15.25-14.314-23.376-20.2-4.341-3.146-10.083-2.522-12.468-7.771-1.735-5.734,3.475-6.132,10.13-5.439C105.194,106.136,139.807,105.016,144.5,102.6Zm66.233,10.1,4.675,0.777,4.675,12.433-3.117,16.318c0.539,14.545,2.263,30.133-.779,43.516-2.237,1.3-2.674,1.906-6.234,2.332-10.144-8.763-17.862-20.172-28.051-28.752-5.315-4.476-13.33-4.788-14.026-13.987l8.571-9.325C189.837,126.84,199.119,124.413,210.73,112.7ZM84.5,113.478l3.9,0.777c10.359,4.017,17.69,16.47,26.493,22.535,4.786,3.3,11.478,3.838,14.026,9.325q0.388,1.165.779,2.331c-9.1,10.045-20.605,16.31-30.389,25.643-4.488,4.281-7.161,12.3-14.805,13.21C77.359,176.274,79.524,122.448,84.5,113.478Zm76.362,37.3,3.117,0.777c13.2,5.438,20.336,21.283,31.168,29.529,3.816,2.905,9.44,4.093,11.688,8.548l0.78,4.662-3.117,1.554c-6.932,4.293-16.727-1.667-26.493,0H91.511c-1.047-2.011-1.415-2.713-1.558-6.216,12.909-8.473,22.855-18.258,35.844-27.2,5.357-3.687,4.538-9.974,13.246-10.879l10.13,5.44Z"/>
</svg>
