<svg xmlns="http://www.w3.org/2000/svg" width="122" height="265" viewBox="0 0 122 265">
  <defs>
    <style>
      .cls-1 {
        fill: #86ccf8;
        fill-rule: evenodd;
      }
    </style>
  </defs>
  <path id="pencil_1" data-name="pencil 1" class="cls-1" d="M72.813,15c21.192-.449,26.818,8.971,37,19,0.5,10.382.523,22.416-8,24-8.75-7.781-40.691-12.889-41-26,1.355-1.778.768-3.651,2-6C65.046,21.741,69.5,18.306,72.813,15Zm-14,30c11.912,1.329,20.459,8.883,30,13,3.473,1.5,12.4,2.979,14,6v6c-2.758,4.153-2.209,9.717-4,15-2.334,6.885-5.943,16.4-8,24l-1,11c-8.038,26.287-15.486,56.3-25,82l-3,1c-8.739-7.683-41.641-13.576-42-27,6.791-10.746,7.755-31.18,12-45,3.967-12.915,10.024-26.209,14-40C50.619,74.327,51.336,58.3,58.813,45Zm-39,144c5.607,2.639,12.219,7.645,18,10,7.031,2.865,12.82,3.14,19,7,2.227,1.391,2.633,3.449,3,7-7.922,6.239-20.97,21.7-27,30-2.9,4-2.2,7.657-8,9l-1-1C23.813,231.681,14.057,206.658,19.813,189Z"/>
</svg>
