<svg id="ps" xmlns="http://www.w3.org/2000/svg" width="2083" height="2083" viewBox="0 0 2083 2083">
  <defs>
    <style>
      .cls-1 {
        fill: #111;
      }

      .cls-1, .cls-2 {
        fill-rule: evenodd;
      }

      .cls-2 {
        fill: #fefefe;
      }
    </style>
  </defs>
  <path id="ps-bg" class="cls-1" d="M444.329,55c69.178-.353,135.09,8.006,193.715,18.777,25.113,4.614,48.35-3.94,67.208-7.906l73.138-6.918,63.254,0.988,53.37,2.965L981.989,77.73c28.911,5.246,70.371-1.578,92.9-5.93L1151,69.824c52.61-9.242,128.74-11.209,181.85-.988l184.82-2.965a478.194,478.194,0,0,0,92.91,8.894h69.18c70.34,14.438,145.97,35.609,199.65,69.178,85.95,53.758,102.48,173.8,141.33,274.737q11.37,39.527,22.73,79.061v-0.989l1.98-6.917h0.99v40.518q-0.5,16.3-.99,32.613c0.33,28.318,6.65,52.487,11.86,77.084,13.33,62.962,9.5,186.291-12.85,232.241h-0.99q-0.99-3.458-1.97-6.918h-0.99v8.895c-5.65,10.883-.7,30.73,1.97,39.53h0.99q0.99-5.928,1.98-11.859h0.99v7.906c6.34,12.686.86,50.345-1.98,61.272h-0.99a53.369,53.369,0,0,0-1.97-15.812h-0.99v27.671q-1.98,20.258-3.96,40.524c-4.44,21.77-21.14,77.32-15.81,97.83,7.53,28.99,27.5,58.11,19.77,100.81-3.71,20.47-7.11,41.47-10.87,60.28q1.47,35.58,2.96,71.15-12.84,60.78-25.7,121.56v88.94q-3.945,26.19-7.9,52.38c-3.32,18.59,4.03,37.29,6.92,52.38,5.92,31.01,1.87,71.9-5.93,97.84-21.53,71.53-103.09,150.5-162.09,185.79-22.45,13.43-86.29,23.51-97.85,43.48,1.32,0.33,2.64.66,3.95,0.99-0.33.33-.66,0.66-0.98,0.99q-16.8,2.97-33.61,5.93-28.65,6.915-57.32,13.84-59.295.48-118.6,0.98l-129.48,1.98c-20.85,3.7-46.37-3.43-70.17.99-48.52,9-118.97,8.3-167.03-.99h-47.44c-35.49-7.67-79.02-10.36-113.66-19.77-10.813-2.93-28.156.55-36.57-4.94-0.329-.33-0.659-0.66-0.988-0.98a27.556,27.556,0,0,0,11.86-1.98v-0.99H967.164c-18.27-9.07-75.648-2.81-91.917,1.98v0.99c7.2-.29,13.721.12,17.791,2.96-56.427-.36-101.385,13.52-148.252,22.73-46.586,9.15-102.695-8.55-140.345-15.81-15.264-2.95-34.032.65-46.453,2.96-13.746,2.56-27.435-1.85-37.557-3.95l-43.487-2.97q-12.848-1.965-25.7-3.95c-14.5-.05-34.373,5.79-44.476-1.97,11.89,0.51,24.975,1.76,34.593-1.98v-0.99H437.41c-8.067,3.77-34.455-.21-43.487-1.98-38.873-7.61-69.762-11.25-106.741-18.77l-36.569-3.96c-52.553-14.91-87.967-58.08-117.613-96.85-15.292-19.99-41.676-29.56-52.383-54.35-12.709-29.42-7.8-73.08-19.767-103.77-25.171-64.57-55.065-151.54-35.58-240.14v-33.61c10.4-46.51,21.35-96.69,30.639-144.28,4.8-24.61-5.518-49.48-9.883-68.19-4.492-19.26.931-38.38,0.988-57.32,0.061-20.19-4.8-39.37-.988-58.31L66.78,997.8V949.376c3.5-17.088,7.908-41.162,3.953-62.261-3.9-20.8-6.913-42.308-10.872-61.272L58.874,736.9c-3.1-16.8-4.747-35.272-7.907-50.4V596.567c-14.881-73.059,1.4-154.372,14.825-218.406l-1.977-43.483c10.482-46.741,23.807-98.309,46.453-134.4,45.037-71.785,150.1-97.051,239.179-124.52,20.662-6.371,42.461-10.539,62.266-15.812C422.415,57.092,436.854,60.751,444.329,55Z"/>
  <path id="ps_1" data-name="ps 1" class="cls-2" d="M660.655,559.066c75.376-1.7,130.259,27.437,188.874,43.275l44.317,5.277c36.392,9.439,73.72,28.732,93.909,54.886,34.835,45.123,50.865,107.737,71.755,166.766,7.37,20.845,10.6,43.113,16.88,67.551,4.52,17.6,10.7,34.791,14.77,53.83,7.94,37.117-8.75,77.4-22.16,99.219-12.89,20.97-32.41,48.41-51.7,63.33-48.779,37.71-138.536,78.37-206.812,94.99-38.089,9.27-73.885,10.87-113.958,19q-26.376-1.065-52.758-2.11c-7.617,12.54-5.422,33.15-9.5,48.55-6.63,25.06-21.4,49.26-24.269,77.05-2.144,20.8,6.9,46.37,10.552,64.38,11.435,56.41-28.224,94.83-66.475,106.61-30.674,9.44-61.416-2.82-79.138-15.83-34.975-25.7-35.376-63.02-45.372-115.05-3.343-17.4-6.983-41.18-3.165-61.22a527.568,527.568,0,0,1,21.1-79.16c5.513-15.35,19.142-55.06,14.772-76-7.627-36.54-13.775-75.99-21.1-113.99q-1.054-25.86-2.11-51.72c-5-22.028-14.107-42.242-18.993-66.493q-1.054-29.022-2.11-58.052c-9.333-52.446,5.553-106.57,14.772-147.767,11.63-51.972,11.511-112.311,46.427-140.38,39.389-31.664,79.657-19.825,136.116-31.665Zm-44.317,192.1c-2.578,44.084-22.992,84.654-13.717,137.213v25.332l13.717,43.275c6.656,21.9,8.139,49.786,8.441,77.046,0.352,0.36.7,0.71,1.056,1.06,16.441,0.7,30.885,4.62,45.371,7.39,18.527,3.54,37.95-3.16,51.7-6.33q26.378-4.755,52.758-9.5c22.043-6.99,45.861-18.43,66.476-27.447,16.916-7.4,57.487-20.793,61.2-39.053-8.657-15.374-7.076-37.686-12.662-55.94-12.117-39.6-25.989-81.587-43.262-117.159-35.795-.917-63.2-11.751-89.688-22.165l-50.648-11.611-28.489-9.5C658.233,739.379,635,749.705,616.338,751.164Zm960.2,49.608c46.47-.741,76.38,19.543,91.79,49.608,25.33,49.387-2.1,102.177-35.87,122.436-28.89,17.329-90.5,24.154-136.12,15.833h-79.13c-4.14,1.449-6.17,2.8-7.39,7.388,10.45,17.593,5.84,43.593,22.16,54.883,13.08,9.05,53.78,15.6,71.75,21.11,66.66,20.43,139.3,37.31,173.05,90.77,12.96,20.55,15.88,45.79,21.1,74.94v21.11c2.63,15.12.24,35.63-3.17,49.61-6.15,25.24-13.52,51.91-25.32,72.83-22.79,40.41-45.15,48.01-89.69,66.49q-29.535,17.415-59.09,34.84c-34.93,15.02-78.48,18.79-121.34,26.38-28.55,5.06-65.21-.71-88.64-5.27l-54.86-4.23c-39.82-9.77-64.79-37.39-72.81-79.16-4.65-24.2,5.51-46.42,13.72-59.11,15.33-23.7,34.7-38.01,67.53-44.33,46.09-8.86,82.61,16.74,128.73,7.39q27.42-5.8,54.87-11.61,18.45-12.135,36.93-24.27c7.64-4.58,22.56-6.46,27.43-13.72q0.525-3.18,1.06-6.34h-2.11q-25.86-7.9-51.71-15.83c-45.92-14.46-100.21-25.23-136.11-50.66-31.95-22.63-60.5-62.75-75.98-101.33l-13.71-52.77c-9.15-29.93-17.62-68.758-6.33-104.5,16.03-50.769,52.58-87.282,92.85-113.993,40.22-26.678,97.9-26.471,166.72-26.387C1515.24,802.918,1553.03,812.622,1576.54,800.772Z"/>
</svg>
