<svg id="ps" xmlns="http://www.w3.org/2000/svg" width="2083" height="2083" viewBox="0 0 2083 2083">
  <defs>
    <style>
      .cls-1 {
        fill: #86ccf8;
        fill-rule: evenodd;
      }
    </style>
  </defs>
  <path id="ps-bg" class="cls-1" d="M444.329,55c69.178-.353,135.09,8.006,193.715,18.777,25.113,4.614,48.35-3.94,67.208-7.906l73.138-6.918,63.254,0.988,53.37,2.965L981.989,77.73c28.911,5.246,70.371-1.578,92.9-5.93L1151,69.824c52.61-9.242,128.74-11.209,181.85-.988l184.82-2.965a478.194,478.194,0,0,0,92.91,8.894h69.18c70.34,14.438,145.97,35.609,199.65,69.178,85.95,53.758,102.48,173.8,141.33,274.737q11.37,39.527,22.73,79.061v-0.989l1.98-6.917h0.99v40.518q-0.5,16.3-.99,32.613c0.33,28.318,6.65,52.487,11.86,77.084,13.33,62.962,9.5,186.291-12.85,232.241h-0.99q-0.99-3.458-1.97-6.918h-0.99v8.895c-5.65,10.883-.7,30.73,1.97,39.53h0.99q0.99-5.928,1.98-11.859h0.99v7.906c6.34,12.686.86,50.345-1.98,61.272h-0.99a53.369,53.369,0,0,0-1.97-15.812h-0.99v27.671q-1.98,20.258-3.96,40.524c-4.44,21.77-21.14,77.32-15.81,97.83,7.53,28.99,27.5,58.11,19.77,100.81-3.71,20.47-7.11,41.47-10.87,60.28q1.47,35.58,2.96,71.15-12.84,60.78-25.7,121.56v88.94q-3.945,26.19-7.9,52.38c-3.32,18.59,4.03,37.29,6.92,52.38,5.92,31.01,1.87,71.9-5.93,97.84-21.53,71.53-103.09,150.5-162.09,185.79-22.45,13.43-86.29,23.51-97.85,43.48,1.32,0.33,2.64.66,3.95,0.99-0.33.33-.66,0.66-0.98,0.99q-16.8,2.97-33.61,5.93-28.65,6.915-57.32,13.84-59.295.48-118.6,0.98l-129.48,1.98c-20.85,3.7-46.37-3.43-70.17.99-48.52,9-118.97,8.3-167.03-.99h-47.44c-35.49-7.67-79.02-10.36-113.66-19.77-10.813-2.93-28.156.55-36.57-4.94-0.329-.33-0.659-0.66-0.988-0.98a27.556,27.556,0,0,0,11.86-1.98v-0.99H967.164c-18.27-9.07-75.648-2.81-91.917,1.98v0.99c7.2-.29,13.721.12,17.791,2.96-56.427-.36-101.385,13.52-148.252,22.73-46.586,9.15-102.695-8.55-140.345-15.81-15.264-2.95-34.032.65-46.453,2.96-13.746,2.56-27.435-1.85-37.557-3.95l-43.487-2.97q-12.848-1.965-25.7-3.95c-14.5-.05-34.373,5.79-44.476-1.97,11.89,0.51,24.975,1.76,34.593-1.98v-0.99H437.41c-8.067,3.77-34.455-.21-43.487-1.98-38.873-7.61-69.762-11.25-106.741-18.77l-36.569-3.96c-52.553-14.91-87.967-58.08-117.613-96.85-15.292-19.99-41.676-29.56-52.383-54.35-12.709-29.42-7.8-73.08-19.767-103.77-25.171-64.57-55.065-151.54-35.58-240.14v-33.61c10.4-46.51,21.35-96.69,30.639-144.28,4.8-24.61-5.518-49.48-9.883-68.19-4.492-19.26.931-38.38,0.988-57.32,0.061-20.19-4.8-39.37-.988-58.31L66.78,997.8V949.376c3.5-17.088,7.908-41.162,3.953-62.261-3.9-20.8-6.913-42.308-10.872-61.272L58.874,736.9c-3.1-16.8-4.747-35.272-7.907-50.4V596.567c-14.881-73.059,1.4-154.372,14.825-218.406l-1.977-43.483c10.482-46.741,23.807-98.309,46.453-134.4,45.037-71.785,150.1-97.051,239.179-124.52,20.662-6.371,42.461-10.539,62.266-15.812C422.415,57.092,436.854,60.751,444.329,55Z"/>
</svg>
