<svg id="REACT" xmlns="http://www.w3.org/2000/svg" width="2083" height="2083" viewBox="0 0 2083 2083">
  <defs>
    <style>
      .cls-1 {
        fill: #86ccf8;
        fill-rule: evenodd;
      }
    </style>
  </defs>
  <path id="Shape_326_1" data-name="Shape 326 1" class="cls-1" d="M751.039,52.247C820.1,51.226,870.976,64.1,929.325,76.157,973.57,85.3,1017.18,86.005,1059.8,94.089l57.77,4.981c29.99,5.423,89.91,1.915,116.53-2.989l34.86-1.992,101.6-13.947h195.21c54.16,0,97.08-2.342,144.42-10.958,14.84-2.7,59.76-6.838,75.7-3.985,24.78,4.435,47.4,7.323,69.72,11.955,42.73,8.865,78.42,11.095,106.58,32.875,45.09,34.879,68.51,105.126,80.67,172.348,1.82,10.019-.51,22.143-1.99,29.886q-1.5,18.429-2.99,36.861c-3.25,16.441-8.86,39.641-4.98,60.77,7.36,40.083,7.28,83.034,14.94,125.524q-0.495,58.771-.99,117.555c3.86,21.737-3.21,38.75.99,61.766,6.57,35.952,4.4,81.2-1.99,116.558v41.842q-2.49,32.373-4.98,64.754V980.73q-8.97,48.315-17.93,96.63c-4.58,24.08.98,56.45,4.98,78.71,6.03,33.54-3.08,77.57-7.97,104.6-3.2,17.74,15.08,63.85,19.92,79.7,7.79,25.5,7.22,51.8,12.95,80.69,6.27,31.64,13.43,74.58,6.97,110.58-7.53,42.04,10.94,77.87,2.99,118.55q-5.97,31.38-11.95,62.77c-9.63,31.4-20.72,60.73-26.89,94.64q-0.5,22.41-1,44.83c-11.45,62.03-8.93,110.8-53.78,140.47-32.51,21.5-144.08,35.94-199.2,24.9l-111.56-13.95q-20.415-.99-40.83-1.99c-52-9.53-141.04-13.04-196.22-2.99q-22.9,1.5-45.81,2.99c-119.42,24.6-261.65,23.1-402.391,26.9-48.645,1.31-114.23,5.14-159.361-2.99q-27.389-.99-54.781-1.99-40.832-3.99-81.672-7.97c-38.75-7.75-74.814-12.95-121.513-12.95l-239.042,4.98c-36.008,0-79.159,4.69-110.557-2.99-35.889-8.78-72.829-27.62-98.605-47.82-20.5-16.06-29.194-42.45-34.86-73.72q1-14.445,1.992-28.89l-1.992-49.81c-4.062-20.54-13.13-34.77-19.92-51.8-8.584-21.54-11.248-43.77-15.936-69.74-5.861-32.47,4.879-67.05,10.956-90.66a219.346,219.346,0,0,0,6.972-55.79v-43.83q0.5-23.91,1-47.82-1.494-24.4-2.988-48.81-7.967-22.92-15.936-45.83-3.486-20.415-6.972-40.85l1-29.88q-1-46.32-1.992-92.65-3.984-33.87-7.968-67.74v-41.85c-2.8-16.08-4.065-41.69-1-58.77V952.836c8.244-44.71,18.593-82.917,27.888-123.532l7.968-59.774V733.666l4.98-35.864V658.949c8.645-47.078,12.967-95.883,21.912-145.449,3.739-20.715-5.547-37.871-9.96-51.8L61.8,410.889c-4.783-25.563-.194-75.592,3.984-98.627l1-58.777C72.875,221.173,81.65,169.7,95.666,144.9c11.687-20.684,31.475-35.759,51.792-47.819l20.916-8.966c12.49-8.047,22.548-16.5,39.841-20.921,26.225-6.707,58.995,2.284,88.644-2.989,29.2-5.192,92.178,1.891,119.521,6.974,38.528,7.161,99.286,6.641,135.458,0l53.784-2.989H635.5c26.633-4.871,53.714-6.939,78.685-11.955Z"/>
</svg>
