<svg xmlns="http://www.w3.org/2000/svg" width="500" height="500" viewBox="0 0 500 500">
  <defs>
    <style>
      .cls-1 {
        fill: #ec86f8;
        fill-rule: evenodd;
      }
    </style>
  </defs>
  <path id="react_1" data-name="react 1" class="cls-1" d="M118.346,154.05c-0.728-34.4-13.054-74.433-7.869-104.306,30.461-20.211,69.02-21.719,102.292,0C219.7,54.267,252.392,87.2,256.047,83.2l23.606-23.616c22.234-15,116.67-47.829,121.964,1.968,19.132,27.655-3.036,73.218-5.9,102.337,19.605,4.927,30.932,19.5,45.244,29.521l29.508,15.744c21.276,16.257,28.432,57.422,9.836,82.658-12.192,16.544-71.42,28.112-96.391,33.456v7.873c5.479,6.844,11.252,74.534,5.9,90.529-5.043,15.072-26.768,30.192-37.376,41.329-39.532.777-91.075-37.484-106.227-61.009l-1.967,1.968c-26,16.544-45.946,55.8-84.588,57.073l-33.442-9.84c-10.734-16.2-35.06-50.037-27.54-82.658,2.156-9.351,5.511-17.1,5.9-29.52L71.134,329.205l-55.08-55.1C-19.208,206.7,70.51,160.078,118.346,154.05ZM147.853,51.712c-4.976,3.492-14.315,5.429-19.672,7.872a485.854,485.854,0,0,1,7.869,84.626c4.03,1.4,9.194,1.955,15.737,1.968,8.92-5.759,36.145-2.229,49.179-1.968l39.344-41.329C223.28,92.6,206.237,84.487,199,63.521,180.222,61.19,170,52.376,147.853,51.712ZM356.372,53.68c-12.427,7.738-31.717,6.078-45.244,11.808-19.546,8.28-29.171,24.548-45.245,35.424l1.967,1.968c7.3,11.556,33.537,41.179,51.146,41.329,4.87,3.148,57.048,11.808,57.048,11.808,4.965-6.978,3.283-15.658,5.9-25.584,1.863-7.059,6.313-16.926,7.869-23.617q-2.951-22.63-5.9-45.264a49.119,49.119,0,0,1-9.836-7.872h-17.7ZM252.113,118.626c-7.033,9.417-35.252,24.751-9.836,25.584,6.535-4.277,25.3-2.225,35.409-1.968v-1.968C268.315,133.981,263.434,122.682,252.113,118.626ZM141.952,165.858c0.894,11.411,5.4,36.688,13.77,41.329v-3.936c8.953-9.494,21.389-28.591,25.573-41.329H177.36C171.1,165.9,149.563,165.085,141.952,165.858Zm66.883,167.284,80.654-3.937C308,300.418,342.814,278.7,348.5,238.676c-4.094-5.423-4.154-13.61-7.869-19.681-12.189-19.916-29.33-40.369-45.245-57.073-34.1-.551-71.735-0.07-96.391,9.841-5.124,10.761-13.845,18.2-19.671,27.552-6.834,10.971-7.623,25.92-15.738,35.425C172.383,275.847,202.524,288.04,208.835,333.142ZM370.142,175.7c-15.179-1.849-26.38-8.37-43.277-9.841v1.968c11.129,11.009,22.3,29.044,29.507,43.3l1.967-1.968C363.76,202.083,368.69,185.11,370.142,175.7ZM110.477,321.333c1.992-37.9,28.066-62.775,31.475-92.5-11.859-13.506-12.472-39.14-19.672-57.073C96.634,181.361,45.1,197.272,33.758,219,11.317,261.965,74.018,317.075,110.477,321.333ZM389.814,183.571c-7.194,14.869-15.4,36.273-19.672,53.137q1.968,16.727,3.935,33.456c0.712,12.5-1.306,25.694,3.934,33.457,2.32,1.58,3.308,1.521,7.869,1.968,21.168-13.854,71.778-6.285,80.653-31.489,4.218-4.964,9.01-22.119,3.935-29.52C465.119,227.924,408.667,186.479,389.814,183.571ZM242.277,201.283c18-.338,26.634,4.361,39.343,7.872,9.761,14.919,17.71,25.161,17.7,51.169-23.774,25.591-28.18,38.532-72.785,27.553-8.687-13.055-21.051-17.769-21.639-39.361,8.709-13.244,5.263-33.631,21.639-39.361C230.965,205.819,238.249,204.993,242.277,201.283ZM149.82,260.324c-6.362,21.362-18.063,41.5-21.639,66.913h3.935c11.734,7.918,36.995,7.981,55.08,7.873q0.984-2.952,1.967-5.905c-4.039-6.325-1.975-16.587-5.9-23.616l-17.705-17.712C159.531,279.328,156.972,267.73,149.82,260.324Zm208.519,51.169q-1.966-15.743-3.934-31.488h-1.967c-8.412,14.286-21.706,24.45-29.507,39.36H330.8C336.8,314.693,349.324,312.552,358.339,311.493Zm-5.9,19.681c-13.126,9.077-34.96,5.273-49.179,13.776-2.7,1.613-1.944,5.345-3.934,7.872l-39.344,37.393,1.967,1.968c11.7,17.778,56.544,52.378,84.588,53.137,5.544-11.06,16.772-21.418,25.574-29.521,0.3-23.8,2.7-68.3-7.869-82.657v-1.968h-11.8ZM124.247,346.918c-4.4,29.419-10.2,72.391,13.77,88.561,6.362,4.946,19.866,6.788,29.508,7.873,15.435-14.594,55.907-35.56,62.949-55.1h-1.967c-4.731-14.334-19.949-25.21-29.508-35.425C170.126,353.13,147.282,348.824,124.247,346.918Zm100.325,3.936c6,9.144,14.356,15.289,19.672,25.584h3.934l23.606-23.616v-1.968H224.572Z"/>
</svg>
