<svg id="REACT" xmlns="http://www.w3.org/2000/svg" width="2083" height="2083" viewBox="0 0 2083 2083">
  <defs>
    <style>
      .cls-1 {
        fill: #111;
      }

      .cls-1, .cls-2 {
        fill-rule: evenodd;
      }

      .cls-2 {
        fill: #fefefe;
      }
    </style>
  </defs>
  <path id="Shape_326_1" data-name="Shape 326 1" class="cls-1" d="M751.039,52.247C820.1,51.226,870.976,64.1,929.325,76.157,973.57,85.3,1017.18,86.005,1059.8,94.089l57.77,4.981c29.99,5.423,89.91,1.915,116.53-2.989l34.86-1.992,101.6-13.947h195.21c54.16,0,97.08-2.342,144.42-10.958,14.84-2.7,59.76-6.838,75.7-3.985,24.78,4.435,47.4,7.323,69.72,11.955,42.73,8.865,78.42,11.095,106.58,32.875,45.09,34.879,68.51,105.126,80.67,172.348,1.82,10.019-.51,22.143-1.99,29.886q-1.5,18.429-2.99,36.861c-3.25,16.441-8.86,39.641-4.98,60.77,7.36,40.083,7.28,83.034,14.94,125.524q-0.495,58.771-.99,117.555c3.86,21.737-3.21,38.75.99,61.766,6.57,35.952,4.4,81.2-1.99,116.558v41.842q-2.49,32.373-4.98,64.754V980.73q-8.97,48.315-17.93,96.63c-4.58,24.08.98,56.45,4.98,78.71,6.03,33.54-3.08,77.57-7.97,104.6-3.2,17.74,15.08,63.85,19.92,79.7,7.79,25.5,7.22,51.8,12.95,80.69,6.27,31.64,13.43,74.58,6.97,110.58-7.53,42.04,10.94,77.87,2.99,118.55q-5.97,31.38-11.95,62.77c-9.63,31.4-20.72,60.73-26.89,94.64q-0.5,22.41-1,44.83c-11.45,62.03-8.93,110.8-53.78,140.47-32.51,21.5-144.08,35.94-199.2,24.9l-111.56-13.95q-20.415-.99-40.83-1.99c-52-9.53-141.04-13.04-196.22-2.99q-22.9,1.5-45.81,2.99c-119.42,24.6-261.65,23.1-402.391,26.9-48.645,1.31-114.23,5.14-159.361-2.99q-27.389-.99-54.781-1.99-40.832-3.99-81.672-7.97c-38.75-7.75-74.814-12.95-121.513-12.95l-239.042,4.98c-36.008,0-79.159,4.69-110.557-2.99-35.889-8.78-72.829-27.62-98.605-47.82-20.5-16.06-29.194-42.45-34.86-73.72q1-14.445,1.992-28.89l-1.992-49.81c-4.062-20.54-13.13-34.77-19.92-51.8-8.584-21.54-11.248-43.77-15.936-69.74-5.861-32.47,4.879-67.05,10.956-90.66a219.346,219.346,0,0,0,6.972-55.79v-43.83q0.5-23.91,1-47.82-1.494-24.4-2.988-48.81-7.967-22.92-15.936-45.83-3.486-20.415-6.972-40.85l1-29.88q-1-46.32-1.992-92.65-3.984-33.87-7.968-67.74v-41.85c-2.8-16.08-4.065-41.69-1-58.77V952.836c8.244-44.71,18.593-82.917,27.888-123.532l7.968-59.774V733.666l4.98-35.864V658.949c8.645-47.078,12.967-95.883,21.912-145.449,3.739-20.715-5.547-37.871-9.96-51.8L61.8,410.889c-4.783-25.563-.194-75.592,3.984-98.627l1-58.777C72.875,221.173,81.65,169.7,95.666,144.9c11.687-20.684,31.475-35.759,51.792-47.819l20.916-8.966c12.49-8.047,22.548-16.5,39.841-20.921,26.225-6.707,58.995,2.284,88.644-2.989,29.2-5.192,92.178,1.891,119.521,6.974,38.528,7.161,99.286,6.641,135.458,0l53.784-2.989H635.5c26.633-4.871,53.714-6.939,78.685-11.955Z"/>
  <path id="REACT-LOGO" class="cls-2" d="M602.748,722.393c-2.433-114.974-43.662-248.811-26.319-348.667,101.885-67.558,230.857-72.6,342.144,0,23.173,15.117,132.527,125.189,144.757,111.837q39.465-39.468,78.95-78.944c74.37-50.125,390.24-159.879,407.94,6.579,63.99,92.443-10.15,244.749-19.74,342.088,65.58,16.467,103.47,65.165,151.34,98.68q49.335,26.311,98.69,52.629c71.17,54.342,95.1,191.945,32.9,276.305-40.78,55.3-238.88,93.97-322.4,111.83v26.32c18.32,22.88,37.63,249.15,19.74,302.62-16.87,50.38-89.54,100.92-125.02,138.15-132.22,2.59-304.62-125.3-355.3-203.94q-3.3,3.285-6.58,6.58c-86.97,55.3-153.68,186.54-282.929,190.78Q685,1738.785,629.066,1722.35c-35.9-54.15-117.268-167.27-92.115-276.31,7.21-31.25,18.433-57.17,19.739-98.68q-55.922-19.725-111.855-39.47Q352.729,1215.8,260.6,1123.69C142.665,898.371,442.75,742.544,602.748,722.393Zm98.695-342.088c-16.643,11.673-47.881,18.148-65.8,26.314,16.473,88.929,25.618,184.266,26.319,282.881,13.481,4.689,30.752,6.535,52.637,6.579,29.836-19.252,120.9-7.453,164.493-6.579q65.79-69.069,131.6-138.151c-56.961-34.358-113.968-61.488-138.175-131.573C809.709,411.986,775.527,382.523,701.443,380.305Zm697.447,6.578c-41.57,25.866-106.09,20.318-151.33,39.472-65.38,27.677-97.57,82.056-151.34,118.415q3.3,3.289,6.58,6.579C1127.22,589.977,1214.98,689,1273.88,689.5c16.29,10.523,190.81,39.472,190.81,39.472,16.6-23.328,10.98-52.343,19.74-85.522,6.23-23.6,21.11-56.579,26.32-78.944q-9.87-75.646-19.74-151.308c-11.57-7.113-23.81-16.548-32.9-26.315h-59.22ZM1050.17,603.978c-23.53,31.481-117.91,82.736-32.9,85.522,21.86-14.3,84.61-7.437,118.43-6.578v-6.579C1104.36,655.309,1088.04,617.537,1050.17,603.978ZM681.7,761.865C684.7,800.008,699.75,884.5,727.762,900.016V886.859c29.945-31.735,71.541-95.571,85.536-138.151h-13.16C779.2,762,707.162,759.28,681.7,761.865Zm223.71,559.185q134.87-6.585,269.766-13.16c61.93-96.23,178.36-168.83,197.39-302.62-13.69-18.122-13.89-45.488-26.32-65.782-40.77-66.576-98.1-134.943-151.33-190.78-114.05-1.843-239.938-.236-322.405,32.893-17.139,35.972-46.309,60.836-65.8,92.1-22.858,36.672-25.5,86.642-52.637,118.415C783.49,1129.53,884.305,1170.29,905.414,1321.05ZM1444.95,794.758c-50.77-6.178-88.24-27.977-144.75-32.893v6.579c37.22,36.8,74.57,97.086,98.69,144.73q3.285-3.289,6.58-6.579C1423.6,882.955,1440.09,826.218,1444.95,794.758ZM576.429,1281.58c6.662-126.69,93.874-209.84,105.275-309.2-39.664-45.147-41.714-130.834-65.8-190.78-85.778,32.086-258.141,85.273-296.086,157.887C244.764,1083.12,454.483,1267.34,576.429,1281.58ZM1510.75,821.073c-24.07,49.7-51.5,121.251-65.8,177.623q6.57,55.911,13.16,111.834c2.38,41.79-4.37,85.89,13.16,111.84,7.76,5.28,11.06,5.08,26.32,6.58,70.8-46.31,240.08-21.01,269.76-105.26,14.11-16.59,30.14-73.94,13.16-98.68C1762.62,969.335,1573.8,830.8,1510.75,821.073ZM1017.27,880.28c60.21-1.129,89.08,14.578,131.59,26.315,32.65,49.868,59.24,84.1,59.22,171.045-79.52,85.54-94.26,128.8-243.449,92.1-29.053-43.64-70.41-59.39-72.377-131.57,29.131-44.274,17.6-112.421,72.377-131.575C979.433,895.441,1003.8,892.682,1017.27,880.28ZM708.023,1077.64c-21.281,71.41-60.417,138.71-72.377,223.67h13.16c39.249,26.47,123.74,26.68,184.231,26.32q3.289-9.87,6.58-19.74c-13.512-21.14-6.607-55.45-19.739-78.94q-29.607-29.61-59.218-59.21C740.505,1141.16,731.945,1102.4,708.023,1077.64Zm697.447,171.04q-6.585-52.62-13.16-105.25h-6.58c-28.14,47.75-72.6,81.73-98.69,131.57h26.31C1333.43,1259.38,1375.31,1252.22,1405.47,1248.68Zm-19.74,65.79c-43.9,30.34-116.93,17.63-164.49,46.05-9.02,5.39-6.5,17.87-13.16,26.31q-65.79,62.505-131.59,125l6.58,6.58c39.11,59.43,189.12,175.08,282.92,177.62,18.54-36.97,56.1-71.59,85.54-98.68,1-79.56,9.02-228.3-26.32-276.3v-6.58h-39.48ZM622.487,1367.1c-14.719,98.34-34.1,241.98,46.058,296.04,21.279,16.53,66.446,22.69,98.7,26.31,51.627-48.78,187-118.86,210.55-184.2h-6.579c-15.824-47.91-66.726-84.27-98.7-118.42C775.942,1387.87,699.535,1373.47,622.487,1367.1Zm335.564,13.16c20.073,30.56,48.019,51.1,65.8,85.52h13.16q39.465-39.465,78.95-78.95v-6.57H958.051Z"/>
</svg>
