<svg xmlns="http://www.w3.org/2000/svg" width="500" height="500" viewBox="0 0 500 500">
  <defs>
    <style>
      .cls-1 {
        fill-rule: evenodd;
      }
    </style>
  </defs>
  <path id="react_1" data-name="react 1" class="cls-1" d="M134.979,162.744c-0.666-31.442-11.946-68.043-7.2-95.351,27.875-18.475,63.162-19.854,93.609,0,6.34,4.134,36.26,34.236,39.6,30.584l21.6-21.589C302.94,62.68,389.36,32.665,394.2,78.187c17.508,25.281-2.778,66.933-5.4,93.553,17.941,4.5,28.306,17.821,41.4,26.986l27,14.393c19.47,14.861,26.018,52.492,9,75.561-11.157,15.125-65.357,25.7-88.209,30.585v7.2c5.014,6.257,10.3,68.136,5.4,82.758-4.614,13.778-24.5,27.6-34.2,37.781-36.176.71-83.344-34.266-97.21-55.772l-1.8,1.8c-23.794,15.124-42.045,51.014-77.408,52.174l-30.6-9c-9.822-14.806-32.084-45.741-25.2-75.561,1.973-8.548,5.043-15.635,5.4-26.986l-30.6-10.8-50.4-50.374C9.1,210.87,91.2,168.255,134.979,162.744Zm27-93.552c-4.553,3.192-13.1,4.963-18,7.2a443.573,443.573,0,0,1,7.2,77.361c3.689,1.282,8.414,1.787,14.4,1.8,8.163-5.265,33.076-2.038,45-1.8l36-37.781c-15.584-9.4-31.181-16.815-37.8-35.982C191.6,77.856,182.251,69.8,161.981,69.192Zm190.819,1.8c-11.372,7.074-29.025,5.556-41.4,10.795-17.886,7.569-26.694,22.441-41.4,32.384l1.8,1.8c6.679,10.564,30.691,37.644,46.805,37.781,4.457,2.878,52.205,10.794,52.205,10.794,4.544-6.379,3-14.314,5.4-23.388,1.7-6.453,5.776-15.472,7.2-21.589Q380.7,98.88,378,78.187a44.947,44.947,0,0,1-9-7.2H352.8Zm-95.409,59.37c-6.436,8.609-32.259,22.626-9,23.388,5.98-3.91,23.149-2.034,32.4-1.8v-1.8C272.218,144.4,267.751,134.069,257.391,130.361Zm-100.81,43.178c0.819,10.431,4.937,33.538,12.6,37.781v-3.6c8.193-8.678,19.574-26.136,23.4-37.78h-3.6C183.254,173.574,163.546,172.832,156.581,173.539Zm61.206,152.922,73.807-3.6c16.944-26.316,48.8-46.171,54.006-82.758-3.747-4.957-3.8-12.441-7.2-17.991-11.154-18.207-26.84-36.9-41.4-52.173-31.2-.5-65.646-0.065-88.209,9-4.689,9.838-12.67,16.637-18,25.187-6.254,10.029-6.976,23.7-14.4,32.384C184.429,274.085,212.012,285.232,217.787,326.461ZM365.4,182.534c-13.891-1.689-24.141-7.651-39.6-9v1.8c10.184,10.063,20.4,26.55,27,39.58l1.8-1.8C359.561,206.654,364.073,191.138,365.4,182.534ZM127.778,315.667c1.823-34.646,25.684-57.387,28.8-84.557-10.852-12.347-11.413-35.78-18-52.174-23.469,8.775-70.626,23.32-81.008,43.178C37.036,261.4,94.414,311.774,127.778,315.667ZM383.4,189.731c-6.583,13.593-14.088,33.159-18,48.575q1.8,15.291,3.6,30.584c0.652,11.428-1.195,23.488,3.6,30.585,2.124,1.444,3.027,1.391,7.2,1.8,19.372-12.665,65.685-5.746,73.807-28.785,3.86-4.539,8.245-20.221,3.6-26.987C452.315,230.276,400.656,192.389,383.4,189.731ZM248.39,205.922c16.475-.308,24.373,3.987,36,7.2,8.932,13.637,16.206,23,16.2,46.776-21.756,23.394-25.788,35.224-66.606,25.187-7.949-11.934-19.264-16.243-19.8-35.982,7.97-12.107,4.816-30.743,19.8-35.981C238.038,210.068,244.7,209.314,248.39,205.922ZM163.782,259.9c-5.823,19.528-16.53,37.934-19.8,61.169h3.6c10.739,7.237,33.855,7.295,50.405,7.2l1.8-5.4c-3.7-5.783-1.807-15.164-5.4-21.589l-16.2-16.192C172.669,277.267,170.326,266.665,163.782,259.9ZM354.6,306.671q-1.8-14.391-3.6-28.785h-1.8c-7.7,13.06-19.864,22.351-27,35.982h7.2C334.889,309.6,346.35,307.64,354.6,306.671Zm-5.4,17.991c-12.012,8.3-31.992,4.821-45,12.594-2.468,1.474-1.779,4.886-3.6,7.2l-36,34.183,1.8,1.8c10.7,16.252,51.744,47.882,77.407,48.575,5.073-10.11,15.348-19.579,23.4-26.986,0.273-21.757,2.469-62.434-7.2-75.562v-1.8H349.2ZM140.379,339.055c-4.027,26.893-9.33,66.176,12.6,80.959,5.821,4.52,18.179,6.2,27,7.2,14.125-13.341,51.162-32.507,57.606-50.374h-1.8c-4.329-13.1-18.256-23.046-27-32.384C182.364,344.734,161.459,340.8,140.379,339.055Zm91.809,3.6c5.492,8.359,13.137,13.976,18,23.388h3.6q10.8-10.794,21.6-21.589v-1.8h-43.2Z"/>
</svg>
