<svg xmlns="http://www.w3.org/2000/svg" width="500" height="500" viewBox="0 0 500 500">
  <defs>
    <style>
      .cls-1 {
        fill: #86ccf8;
      }

      .cls-1, .cls-2, .cls-3 {
        fill-rule: evenodd;
      }

      .cls-2 {
        fill: #ec86f8;
      }

      .cls-3 {
        fill: #111;
      }
    </style>
  </defs>
  <path id="blob1_1_copy" data-name="blob1 1 copy" class="cls-1" d="M240.529,32.949c90.33-.866,135.14,26.023,172.792,77.334,11.653,15.88,26.916,29.3,35.323,48.692,6.956,16.049,11.777,33.71,17.183,50.6q2.387,11.456,4.774,22.914c1.516,3.668,5.1,7.811,6.682,11.457,6.129,14.146,8.691,30.085,12.411,46.782,2.669,11.98,1.517,23.832,3.818,34.371,3.993,18.288-2.017,39.331-5.728,51.556-16.008,52.741-37.185,72.77-85.919,92.61-31.026,12.632-74.917,23.591-115.513,14.321h-10.5c-11.118-2.457-24.683-2.419-35.322-4.773-12.688-2.807-24.609.1-36.277-2.865-15.738-4-34.435-5.3-50.6-10.5C106.092,450.132,68.373,433.584,44.824,394.8c-19.786-32.589-12.545-79.036-3.819-117.433V241.083c5.736-26.233,6.212-50.422,15.274-72.56,4.881-11.924,10.947-24.342,18.138-34.371l9.547-9.547c5.7-7.907,8.649-17.2,14.32-24.824,3.976-5.343,10.7-8.594,15.274-13.366,3.108-3.241,4.085-8.715,6.683-12.412,6.793-9.668,19.105-19.052,30.549-23.869,18.743-7.889,43.2-9.125,63.962-14.321C221.2,34.2,235.719,35.929,240.529,32.949Z"/>
  <path id="blob1_1_copy_2" data-name="blob1 1 copy 2" class="cls-2" d="M214.529,12.949c90.33-.866,135.14,26.023,172.792,77.334,11.653,15.879,26.916,29.3,35.323,48.691,6.956,16.049,11.777,33.71,17.183,50.6q2.387,11.456,4.774,22.914c1.516,3.668,5.1,7.811,6.682,11.457,6.129,14.146,8.691,30.085,12.411,46.782,2.669,11.98,1.517,23.832,3.818,34.371,3.993,18.288-2.017,39.331-5.728,51.556-16.008,52.741-37.185,72.77-85.919,92.61-31.026,12.632-74.917,23.591-115.513,14.321h-10.5c-11.118-2.457-24.683-2.419-35.322-4.773-12.688-2.807-24.609.1-36.277-2.865-15.738-4-34.435-5.3-50.6-10.5C80.092,430.132,42.373,413.584,18.824,374.8c-19.786-32.589-12.545-79.036-3.819-117.433V221.083c5.736-26.233,6.212-50.422,15.275-72.56,4.881-11.924,10.947-24.342,18.138-34.371l9.547-9.547c5.7-7.907,8.649-17.2,14.32-24.824,3.976-5.343,10.7-8.594,15.275-13.366C90.667,63.174,91.644,57.7,94.242,54c6.793-9.667,19.1-19.052,30.549-23.869,18.743-7.889,43.2-9.125,63.962-14.321C195.2,14.2,209.719,15.929,214.529,12.949Z"/>
  <path id="blob1_1" data-name="blob1 1" class="cls-3" d="M227.529,22.949c90.33-.866,135.14,26.023,172.792,77.334,11.653,15.88,26.916,29.3,35.323,48.692,6.956,16.049,11.777,33.71,17.183,50.6q2.387,11.456,4.774,22.914c1.516,3.668,5.1,7.811,6.682,11.457,6.129,14.146,8.691,30.085,12.411,46.782,2.669,11.98,1.517,23.832,3.818,34.371,3.993,18.288-2.017,39.331-5.728,51.556-16.008,52.741-37.185,72.77-85.919,92.61-31.026,12.632-74.917,23.591-115.513,14.321h-10.5c-11.118-2.457-24.683-2.419-35.322-4.773-12.688-2.807-24.609.1-36.277-2.865-15.738-4-34.435-5.3-50.6-10.5C93.092,440.132,55.373,423.584,31.824,384.8c-19.786-32.589-12.545-79.036-3.819-117.433V231.083c5.736-26.233,6.212-50.422,15.274-72.56,4.881-11.924,10.947-24.342,18.138-34.371l9.547-9.547c5.7-7.907,8.649-17.2,14.32-24.824,3.976-5.343,10.7-8.594,15.274-13.366,3.108-3.241,4.085-8.715,6.683-12.412,6.793-9.668,19.1-19.052,30.549-23.869,18.743-7.889,43.2-9.125,63.962-14.321C208.2,24.2,222.719,25.929,227.529,22.949Z"/>
</svg>
