<svg xmlns="http://www.w3.org/2000/svg" width="1079" height="318" viewBox="0 0 1079 318">
  <defs>
    <style>
      .cls-1 {
        fill: #f6edd4;
        fill-rule: evenodd;
      }
    </style>
  </defs>
  <path id="box3_1" data-name="box3 1" class="cls-1" d="M812.313,305.809H755.451c-10.151,0-23.019.865-31.477-1.016h-26.4c-18.359,0-34.169-.751-48.738-4.066-10.656-2.425-21.965-.907-31.477-3.049l-22.339-1.017c-13.291-2.932-29-3.065-42.646-6.1-7.936-1.763-22.078-.4-28.431,1.017L499.574,292.6c-14.542,3.207-32.031,3.05-49.754,3.05H432.559c-21.333-4.648-47.174,3.643-68.031-1.017-18.938-4.231-36.187-7.115-59.908-7.115H287.359c-10.051,2.2-20.973,3.909-30.462,6.1l-37.569,1.016c-7.276,1.561-21.156,1.621-28.431,0H172.62C156.5,291,141.6,286.438,121.851,286.5c-26.373.079-75.323,9.129-92.4-3.049-6.524-4.653-5.876-10.933-9.138-19.313-1-2.562-4.22-6.01-5.077-9.148-2.667-9.77,3.4-16.131,5.077-21.346V198.064c-2.955-11.023-13.867-24.314-9.138-41.676,1.272-4.67,5.923-10.5,7.108-14.23,1.421-4.481-3.138-14.267-4.062-18.3C11.705,112.893,16.3,98.038,18.282,89.3c3.153-13.886-4.2-25.279-1.015-36.593C22.543,33.954,47.326,23.159,66,18.148c11.882-3.187,25.231,0,38.584,0h67.016c9.234,2.1,19.659,4.936,28.431,7.115,8.7,2.162,25.333.578,32.492-1.016h17.261c6.649-1.466,15.83-2.586,22.339-4.066L314.774,21.2c29.621-6.437,62.078,4.063,92.4,4.066h19.292c6-1.312,16.1.571,23.354-1.016l62.954-5.082C537.861,13.367,562.566,9,594.005,9h29.446c23.589,5.182,51.288,5.71,75.138,11.181l39.6-3.049c20.073-.019,41.526,1.606,58.893,0,38.64-3.573,88.895-7.122,124.892,1.016l33.508-1.016c15.744,3.5,31.035,5.8,44.678,10.165,13.09,4.188,26.94,2.192,36.55,9.148,4.74,3.426,6.85,9.248,10.16,14.231,9.48,14.287,16.56,24.958,11.17,48.791l-1.02,18.3c-2.63,10.673-10.01,29.08-6.09,43.709,0.95,3.577,4.01,8.644,5.07,12.2q1.02,9.147,2.04,18.3c2.69,8.891,10.56,20,7.1,34.56-1.82,7.691-5.18,16.082-7.1,23.379-2.85,10.793-.76,23.2-6.1,31.51-7.02,10.94-35.65,16.344-56.858,12.2-17.78-3.477-58.9-1.715-80.216,3.049H896.589c-12.5,2.757-28.289,1.272-40.615,4.066C844.364,303.359,820.763,300.449,812.313,305.809Z"/>
</svg>
