<svg id="Layer_1" data-name="Layer 1" xmlns="http://www.w3.org/2000/svg" width="1061.01" height="303.01" viewBox="0 0 1061.01 303.01">
  <title>portfolio-box-1-w-shadow</title>
  <path id="box3_1" data-name="box3 1" d="M268.69,16.19h56.86c10.15,0,23-.86,31.48,1h26.4c18.36,0,34.17.75,48.73,4.06,10.66,2.43,22,.91,31.48,3.05l22.34,1c13.29,2.93,29,3.07,42.65,6.1,7.93,1.76,22.07.4,28.43-1l24.37-1c14.54-3.21,32-3,49.75-3h17.26c21.33,4.65,47.18-3.64,68,1,18.94,4.23,36.19,7.11,59.91,7.11h17.26c10.05-2.2,21-3.91,30.46-6.1l37.57-1c7.28-1.56,21.16-1.62,28.43,0h18.28c16.12,3.63,31,8.19,50.77,8.13,26.37-.08,75.32-9.13,92.4,3,6.52,4.65,5.88,10.93,9.14,19.31,1,2.56,4.22,6,5.07,9.15,2.67,9.77-3.39,16.13-5.07,21.35v35.57c3,11,13.86,24.32,9.14,41.68-1.28,4.67-5.93,10.5-7.11,14.23-1.42,4.48,3.14,14.26,4.06,18.3,2.51,11-2.08,25.82-4.06,34.56-3.15,13.88,4.2,25.28,1,36.59-5.27,18.75-30.06,29.55-48.73,34.56-11.89,3.19-25.24,0-38.59,0h-67c-9.23-2.1-19.66-4.94-28.43-7.12s-25.33-.57-32.49,1H831.21c-6.65,1.47-15.83,2.59-22.34,4.07l-42.64-1c-29.62,6.44-62.08-4.06-92.4-4.07h-19.3c-6,1.32-16.1-.57-23.35,1l-62.95,5.08C543.14,308.63,518.43,313,487,313H457.55c-23.59-5.18-51.29-5.71-75.14-11.18l-39.6,3.05c-20.07,0-41.52-1.61-58.89,0-38.64,3.57-88.9,7.12-124.89-1l-33.51,1c-15.75-3.5-31-5.8-44.68-10.17-13.09-4.18-26.94-2.19-36.55-9.14-4.74-3.43-6.85-9.25-10.16-14.23-9.48-14.29-16.56-25-11.17-48.8q.51-9.14,1-18.3c2.63-10.67,10-29.08,6.09-43.7-1-3.58-4-8.65-5.08-12.2L23,130c-2.69-8.9-10.56-20-7.1-34.56C17.68,87.77,21,79.38,23,72.09c2.84-10.8.76-23.2,6.1-31.51,7-10.94,35.65-16.35,56.86-12.2,17.78,3.47,58.9,1.71,80.21-3.05h18.28c12.5-2.76,28.29-1.28,40.62-4.07C236.64,18.64,260.24,21.55,268.69,16.19Z" transform="translate(-9.99 -9.99)" style="fill: #2b2925;fill-rule: evenodd"/>
  <path id="box3_1-2" data-name="box3 1" d="M263.69,10.19h56.86c10.15,0,23-.86,31.48,1h26.4c18.36,0,34.17.75,48.73,4.06,10.66,2.43,22,.91,31.48,3.05l22.34,1c13.29,2.93,29,3.07,42.65,6.1,7.93,1.76,22.07.4,28.43-1l24.37-1c14.54-3.21,32-3,49.75-3h17.26c21.33,4.65,47.18-3.64,68,1,18.94,4.23,36.19,7.11,59.91,7.11h17.26c10.05-2.2,21-3.91,30.46-6.1l37.57-1c7.28-1.56,21.16-1.62,28.43,0h18.28c16.12,3.63,31,8.19,50.77,8.13,26.37-.08,75.32-9.13,92.4,3,6.52,4.65,5.88,10.93,9.14,19.31,1,2.56,4.22,6,5.07,9.15,2.67,9.77-3.39,16.13-5.07,21.35v35.57c3,11,13.86,24.32,9.14,41.68-1.28,4.67-5.93,10.5-7.11,14.23-1.42,4.48,3.14,14.26,4.06,18.3,2.51,11-2.08,25.82-4.06,34.56-3.15,13.88,4.2,25.28,1,36.59-5.27,18.75-30.06,29.55-48.73,34.56-11.89,3.19-25.24,0-38.59,0h-67c-9.23-2.1-19.66-4.94-28.43-7.12s-25.33-.57-32.49,1H826.21c-6.65,1.47-15.83,2.59-22.34,4.07l-42.64-1c-29.62,6.44-62.08-4.06-92.4-4.07h-19.3c-6,1.32-16.1-.57-23.35,1l-62.95,5.08C538.14,302.63,513.43,307,482,307H452.55c-23.59-5.18-51.29-5.71-75.14-11.18l-39.6,3.05c-20.07,0-41.52-1.61-58.89,0-38.64,3.57-88.9,7.12-124.89-1l-33.51,1c-15.75-3.5-31-5.8-44.68-10.17-13.09-4.18-26.94-2.19-36.55-9.14-4.74-3.43-6.85-9.25-10.16-14.23-9.48-14.29-16.56-25-11.17-48.8q.51-9.14,1-18.3c2.63-10.67,10-29.08,6.09-43.7-1-3.58-4-8.65-5.08-12.2L18,124c-2.69-8.9-10.56-20-7.1-34.56C12.68,81.77,16,73.38,18,66.09c2.84-10.8.76-23.2,6.1-31.51,7-10.94,35.65-16.35,56.86-12.2,17.78,3.47,58.9,1.71,80.21-3.05h18.28c12.5-2.76,28.29-1.28,40.62-4.07C231.64,12.64,255.24,15.55,263.69,10.19Z" transform="translate(-9.99 -9.99)" style="fill: #f6edd4;fill-rule: evenodd"/>
</svg>
