<svg xmlns="http://www.w3.org/2000/svg" width="500" height="500" viewBox="0 0 500 500">
  <defs>
    <style>
      .cls-1 {
        fill: #86ccf8;
      }

      .cls-1, .cls-2, .cls-3 {
        fill-rule: evenodd;
      }

      .cls-2 {
        fill: #ec86f8;
      }

      .cls-3 {
        fill: #111;
      }
    </style>
  </defs>
  <path id="blob1_1_copy" data-name="blob1 1 copy" class="cls-1" d="M286.471,487.051c-90.33.866-135.14-26.024-172.792-77.334-11.653-15.88-26.916-29.3-35.323-48.692-6.957-16.049-11.778-33.71-17.184-50.6L56.4,287.509c-1.516-3.668-5.1-7.811-6.683-11.457-6.129-14.146-8.691-30.085-12.41-46.782-2.669-11.98-1.517-23.832-3.819-34.371-3.993-18.288,2.017-39.331,5.728-51.556C55.224,90.6,76.4,70.573,125.135,50.733,156.161,38.1,200.052,27.142,240.648,36.412h10.5c11.118,2.457,24.683,2.42,35.322,4.774,12.688,2.807,24.609-.1,36.277,2.864,15.738,4,34.435,5.3,50.6,10.5,47.563,15.316,85.282,31.864,108.831,70.651,19.786,32.589,12.545,79.036,3.818,117.433v36.281c-5.736,26.233-6.211,50.422-15.274,72.56-4.881,11.924-10.947,24.342-18.139,34.371l-9.546,9.547c-5.7,7.907-8.649,17.2-14.32,24.824-3.976,5.342-10.7,8.593-15.274,13.366-3.108,3.242-4.085,8.715-6.683,12.412-6.793,9.667-19.1,19.052-30.549,23.868-18.743,7.889-43.2,9.125-63.962,14.322C305.8,485.8,291.281,484.071,286.471,487.051Z"/>
  <path id="blob1_1_copy_2" data-name="blob1 1 copy 2" class="cls-2" d="M260.471,467.051c-90.33.866-135.14-26.024-172.792-77.334-11.652-15.88-26.916-29.3-35.322-48.692-6.957-16.049-11.778-33.71-17.184-50.6L30.4,267.509c-1.516-3.668-5.1-7.811-6.683-11.457-6.129-14.146-8.691-30.085-12.41-46.782C8.637,197.29,9.789,185.438,7.488,174.9c-3.993-18.288,2.017-39.331,5.728-51.556C29.224,70.6,50.4,50.573,99.135,30.733,130.161,18.1,174.052,7.142,214.648,16.412h10.5c11.118,2.457,24.683,2.42,35.322,4.774,12.688,2.807,24.609-.1,36.277,2.864,15.738,4,34.435,5.3,50.6,10.5,47.563,15.316,85.282,31.864,108.831,70.651,19.786,32.589,12.545,79.036,3.818,117.433v36.281c-5.736,26.233-6.211,50.422-15.274,72.56-4.881,11.924-10.947,24.342-18.139,34.371l-9.546,9.547c-5.7,7.907-8.649,17.2-14.32,24.824-3.976,5.342-10.7,8.593-15.274,13.366-3.108,3.242-4.085,8.715-6.683,12.412-6.793,9.667-19.1,19.052-30.549,23.868-18.743,7.889-43.2,9.125-63.962,14.322C279.8,465.8,265.281,464.071,260.471,467.051Z"/>
  <path id="blob1_1" data-name="blob1 1" class="cls-3" d="M273.471,477.051c-90.33.866-135.14-26.024-172.792-77.334-11.653-15.88-26.916-29.3-35.323-48.692-6.957-16.049-11.778-33.71-17.184-50.6L43.4,277.509c-1.516-3.668-5.1-7.811-6.683-11.457-6.129-14.146-8.691-30.085-12.41-46.782-2.669-11.98-1.518-23.832-3.819-34.371-3.993-18.288,2.017-39.331,5.728-51.556C42.224,80.6,63.4,60.573,112.135,40.733,143.161,28.1,187.052,17.142,227.648,26.412h10.5c11.118,2.457,24.683,2.42,35.322,4.774,12.688,2.807,24.609-.1,36.277,2.864,15.738,4,34.435,5.3,50.6,10.5,47.563,15.316,85.282,31.864,108.831,70.651,19.786,32.589,12.545,79.036,3.818,117.433v36.281c-5.736,26.233-6.211,50.422-15.274,72.56-4.881,11.924-10.947,24.342-18.139,34.371l-9.546,9.547c-5.7,7.907-8.649,17.2-14.32,24.824-3.976,5.342-10.7,8.593-15.274,13.366-3.108,3.242-4.085,8.715-6.683,12.412-6.793,9.667-19.1,19.052-30.549,23.868-18.743,7.889-43.2,9.125-63.962,14.322C292.8,475.8,278.281,474.071,273.471,477.051Z"/>
</svg>
