<svg xmlns="http://www.w3.org/2000/svg" width="1079" height="318" viewBox="0 0 1079 318">
  <defs>
    <style>
      .cls-1 {
        fill: #f6edd4;
        stroke: #000;
        stroke-width: 1px;
        fill-rule: evenodd;
      }
    </style>
  </defs>
  <path id="Shape_322_1" data-name="Shape 322 1" class="cls-1" d="M151.02,7.154c37.5,0.173,76.006-.161,114.267,6.915l47.694,1.976,68.56,7.9,61.605-1.976,45.707-8.89h83.465c17.3-3.024,43.1-2.016,59.617.988l64.586-3.951c30.507,5.518,61.228,3.048,92.407,9.878l36.764,9.878,25.834-.988,33.784-1.976c37.6-8.213,70.405-20.842,112.279-9.878,8.511,2.23,16.271,1.94,22.851,5.927,12.75,7.725,15.92,21.7,21.86,36.549,13.03,32.552,35.72,114.452,24.84,155.087-4.17,15.608-8.93,43.652-20.86,52.355-21.53,15.7-114,28.4-157,22.719-15.2-2.007-35.728-4.145-51.668-.987-58.218,11.532-129.3,8.914-199.719,8.89l-80.484-.988c-24.009,4.375-53.011,14.18-82.471,8.89-16.383-2.941-56.551-8.97-73.528-5.926l-30.8,2.963c-20.819,4.116-50.5,11.842-77.5,6.915-33.223-6.062-64.81-10.712-96.382-16.793l-52.662-.988c-13.224-2.521-26.777-6.459-43.72-4.939-18.7,1.677-38.8,2.233-55.643-3.951-17.052-6.26-37.812-49.513-31.8-78.038,2.244-10.638,9.739-20.739,6.955-35.561C17.352,155.792,4.5,148.03,8.932,130.631L26.817,91.119q-0.5-7.9-.994-15.805C28.957,60.737,28.214,44.3,39.734,35.8c21.575-15.909,58.32-18.779,88.433-25.683Z"/>
</svg>
