<svg xmlns="http://www.w3.org/2000/svg" width="2400" height="149" viewBox="0 0 2400 149">
  <defs>
    <style>
      .cls-1 {
        fill: #111;
        fill-rule: evenodd;
      }
    </style>
  </defs>
  <path id="line_1" data-name="line 1" class="cls-1" d="M31,86.79V41.234c30.154,0.064,58.281,8.282,88.649,2.485,13.658-2.607,28.9-1.969,42.864-4.97,23.037-4.952,59.258-10.569,88.649-4.97l34.1,1.657c8.583,1.646,18.681.624,28.251,2.485l100.34,11.6L452.814,52c9.4,1.742,22.717,2.372,33.122,2.485h19.483c5.883,1.073,18.908,2.234,26.3.828l37.992-2.485c33.177-7.045,70.031-10.108,103.262-17.394,12.75-2.8,24.322-2.129,37.018-4.97,17.041-3.813,35.378-4.576,53.579-8.283,6.751-1.375,18.909-4.562,28.251-2.485,12.23,2.719,26.249,8.833,38.967,12.424,17.221,4.863,33.332,6.755,50.657,11.6,27.777,7.763,58.115,15.172,86.7,21.536l81.832,4.97c18.52,3.49,40.12.523,59.42,4.141,13.73,2.574,29.09.558,43.84,3.313,30.51,5.7,65.48,4.5,95.47,9.111l106.18-19.879c37.43-8.582,77.82-8.809,115.93-16.566,12.48-2.54,25.43-1.846,37.02-4.141,17.14-3.4,35.42-1.827,51.63-4.97l73.06-4.97c13.98-2.625,30.53-.662,44.81-4.141,5.78-1.407,12.82-4.339,19.49-5.8l19.48-.828c3.45-.625,11.59-1.777,16.56-0.828,13.76,2.628,28.96.476,42.86,3.313,44.04,8.984,87.98,12.306,128.59,24.02,7.78,2.243,15.29,6.922,22.41,9.939,9.09,3.855,17.48,6.048,26.3,9.94,3.45,1.524,8.02,4.791,11.69,5.8l42.86-1.657a313.848,313.848,0,0,0,56.51-6.626c18.92-3.859,38.26-3.124,56.5-6.626,9.42-1.811,45.44-.719,53.58.828,10.03,1.908,23.31-.852,32.14.828l48.71,0.828c12.78,2.4,27.99-.951,41.89,1.657,4.83,0.9,13.46-.3,19.48.828,15.72,2.946,35.31,2.451,52.61,2.485v42.243l-196.78-9.939c-42.59,7.722-90.43,5.776-132.49,14.081l-24.35.828c-9.48,1.721-23.39-1.1-34.1.828-5.48.987-20.43,2.738-27.27,0.828-8.48-2.364-17.15-8.529-25.33-11.6-22.8-8.54-46.72-16.306-71.12-23.192-21.38-6.035-44.3-7.827-67.22-12.424-9.67-1.94-20.13-.745-29.22-2.485-9.3-1.78-44.6-.7-52.6.828l-20.46.828c-17.98,3.565-36.6,4.384-53.58,9.111-14.42,4.014-29.11,8.128-42.86,13.253-4.67,1.737-10.06,6.125-14.62,7.454H1397.76c-13.41,2.887-28.82,7.156-41.89,10.768-18.18,5.021-35.4,6.89-53.58,11.6-6.87,1.776-26.74,9.331-35.07,7.454-33.76-7.6-67.62-20.328-101.32-28.161h-75.01c-41.97,0-84.55.983-119.819-5.8l-40.915-2.485c-29.98-5.966-62.8-6.955-91.572-14.909-7.541-2.085-17.476-4.771-24.354-8.283-3.724-1.9-8.616-6.278-12.664-7.455-5.584-1.623-15.229.831-19.484,1.657-18.943,3.678-38.067,2.907-55.527,6.626L702.2,74.366C670.28,81.31,635.8,82.8,602.836,89.275l-51.631,3.313H513.212c-15.965.248-43.363,2.409-60.4-.828L381.7,89.275c-14.628-2.759-31.193-.362-46.76-3.313-35.41-6.714-74.874-5-109.107-11.6-6.393-1.232-15.411.685-20.457,1.657-13.168,2.535-26.89.991-38.967,3.313L126.468,81.82C97.6,87.319,65.275,86.716,31,86.79Z"/>
</svg>
