<svg xmlns="http://www.w3.org/2000/svg" width="2400" height="149" viewBox="0 0 2400 149">
  <defs>
    <style>
      .cls-1 {
        fill: #111;
        fill-rule: evenodd;
      }
    </style>
  </defs>
  <path id="line_1" data-name="line 1" class="cls-1" d="M2369,63.21v45.556c-30.15-.064-58.28-8.282-88.65-2.485-13.66,2.607-28.9,1.968-42.86,4.97-23.04,4.951-59.26,10.569-88.65,4.969l-34.1-1.656c-8.58-1.646-18.68-.624-28.25-2.485l-100.34-11.6L1947.19,98c-9.41-1.742-22.72-2.372-33.13-2.485h-19.48c-5.88-1.073-18.91-2.234-26.3-.828l-37.99,2.485c-33.18,7.045-70.03,10.108-103.27,17.394-12.75,2.8-24.32,2.128-37.01,4.969-17.04,3.814-35.38,4.577-53.58,8.283-6.75,1.375-18.91,4.562-28.25,2.485-12.23-2.719-26.25-8.833-38.97-12.424-17.22-4.863-33.33-6.755-50.66-11.6-27.78-7.763-58.11-15.173-86.7-21.536l-81.83-4.97c-18.52-3.49-40.12-.523-59.42-4.141-13.73-2.574-29.09-.558-43.84-3.313-30.51-5.7-65.48-4.5-95.47-9.111L1045.11,83.089c-37.43,8.582-77.819,8.809-115.928,16.566-12.477,2.54-25.436,1.846-37.019,4.142-17.14,3.4-35.424,1.827-51.63,4.97l-73.063,4.969c-13.977,2.625-30.528.663-44.812,4.142-5.775,1.407-12.823,4.339-19.483,5.8l-19.483.828c-3.456.625-11.59,1.778-16.561,0.828-13.763-2.627-28.956-.475-42.863-3.313-44.037-8.984-87.983-12.306-128.59-24.02-7.776-2.243-15.291-6.922-22.406-9.939-9.09-3.855-17.486-6.048-26.3-9.939-3.454-1.524-8.024-4.791-11.69-5.8l-42.863,1.657a313.692,313.692,0,0,0-56.5,6.626c-18.922,3.859-38.268,3.124-56.5,6.626-9.428,1.811-45.44.719-53.58-.828-10.038-1.908-23.309.852-32.147-.828l-48.709-.828c-12.779-2.4-27.982.951-41.889-1.657-4.824-.9-13.454.3-19.483-0.828C67.886,79.315,48.3,79.81,31,79.776V37.533l196.782,9.94c42.592-7.723,90.429-5.776,132.486-14.081l24.355-.828c9.479-1.721,23.391,1.1,34.1-.828C424.2,30.748,439.154,29,446,30.907c8.471,2.364,17.141,8.529,25.328,11.6,22.8,8.541,46.716,16.307,71.114,23.192,21.385,6.035,44.3,7.827,67.218,12.424,9.671,1.94,20.135.745,29.225,2.485,9.3,1.78,44.6.7,52.605-.828l20.457-.828c17.979-3.565,36.6-4.384,53.58-9.111,14.417-4.014,29.1-8.128,42.863-13.253,4.665-1.737,10.058-6.125,14.612-7.455H1002.24c13.41-2.887,28.82-7.156,41.89-10.768,18.18-5.021,35.4-6.891,53.58-11.6,6.87-1.776,26.74-9.332,35.07-7.455,33.76,7.6,67.62,20.328,101.32,28.162h75.01c41.97,0,84.55-.983,119.82,5.8l40.91,2.485c29.98,5.966,62.8,6.955,91.58,14.909,7.54,2.085,17.47,4.771,24.35,8.283,3.72,1.9,8.62,6.278,12.66,7.455,5.59,1.623,15.23-.831,19.49-1.657,18.94-3.678,38.07-2.907,55.53-6.626l24.35-2.485c31.92-6.944,66.39-8.438,99.36-14.909l51.64-3.313h37.99c15.96-.248,43.36-2.409,60.4.828l71.11,2.485c14.63,2.759,31.19.361,46.76,3.313,35.41,6.714,74.87,5,109.11,11.6,6.39,1.232,15.41-.685,20.45-1.657,13.17-2.535,26.89-.991,38.97-3.313l39.94-2.485C2302.4,62.681,2334.73,63.284,2369,63.21Z"/>
</svg>
