<svg xmlns="http://www.w3.org/2000/svg" width="143" height="731" viewBox="0 0 143 731">
  <defs>
    <style>
      .cls-1 {
        fill: #f6edd4;
        fill-rule: evenodd;
      }
    </style>
  </defs>
  <path id="Shape_317_1" data-name="Shape 317 1" class="cls-1" d="M69.141,0h42.406c0.339,19.674,5.442,34.172,9.087,48.666V68.943c0.879,4.084,3.25,10.658,2.019,16.222-2.56,11.571-.012,28.681-3.029,41.569-6.653,28.418-8.849,61.665-16.155,90.234q-1.513,10.644-3.029,21.291C93.6,262.74,85.747,283.6,76.209,306.189c-1.861,4.406-6.742,9.633-8.077,14.194q1.01,22.3,2.019,44.61c0.029,25.2,4.245,47.825,9.087,68.943,3.51,15.31,1.862,32.8,5.048,46.638,3,13.03.317,42.166-2.019,52.721-2.669,12.061,1.38,27.718-1.01,38.527v45.625c-2.294,10.494,1.558,25.761-1.01,37.513-4.828,22.095-3.992,50.186-4.039,76.04H33.8l6.058-139.914c2.607-12.027-.835-26.343,2.019-39.541,1.26-5.826,2.695-18.965,1.01-26.361-8.911-39.106-5.3-89.537-14.135-127.747V372.09c-2.086-9.856,1.364-24.362-1.01-35.485-1.225-5.739-4.072-16.365-2.019-24.333,2.622-10.179,9.378-18.513,13.126-27.375C49.167,260.507,56.8,231.7,64.093,205.816c5.777-20.5,6.465-43.779,11.106-63.874V127.748c2.013-9.311,3.952-25.6,2.019-34.472-3.691-16.936,1.8-38.1-2.019-54.749A268.272,268.272,0,0,1,69.141,0Z"/>
</svg>
