<svg xmlns="http://www.w3.org/2000/svg" width="860" height="1200" viewBox="0 0 860 1200">
  <defs>
    <style>
      .cls-1 {
        fill: #fefefe;
        fill-rule: evenodd;
      }
    </style>
  </defs>
  <path id="flame2_1" data-name="flame2 1" class="cls-1" d="M521.714,8.5c5.514,12.1-7.859,67.042-2.247,92.087,11.343,50.618,15.8,98.018,33.7,141.5a1031.664,1031.664,0,0,0,80.869,157.221c20.509,32.463,46.636,63.645,62.9,101.071,8.5,19.567,11,36.842,17.971,58.4,16.5,51,26.937,135.432,11.232,197.649-7.959,31.53-15.6,64.077-26.956,92.087h2.246c15.885-21,42.41-34.652,58.4-56.15a403.778,403.778,0,0,0,49.419-87.6q5.616-23.58,11.232-47.166h2.246c2.321,26.654,11.793,54.175,17.971,80.856,9.424,40.7-8.563,117.82-17.971,143.745-45.05,124.151-97.51,192.181-202.17,256.041-59.718,36.44-195.87,71.54-294.271,44.93-64.325-17.4-113.171-40.81-159.49-74.12-17.528-12.61-38.8-25.65-51.666-42.68C79.948,1019.8,50.013,974.258,29.765,911.4c-18.338-56.93-14.3-150.1,2.246-204.387,9.64-31.624,12.882-58.936,24.71-87.594,31.8-77.052,68.865-140.54,89.854-231.34,13.9-60.137-23.38-101.121-33.695-139.253h4.493c11.632,9.112,29.057,10.961,42.68,17.969,25.669,13.2,51.413,30.12,74.129,47.166,20.757,15.575,43.775,43.766,56.159,67.38l15.724,38.182C304.252,283.673,390.5,159.112,449.831,80.372Zm-217.9,417.758v4.493h2.246v-4.493h-2.246Zm110.07,309.95c-8.837,18.222-23.3,33.01-33.695,49.413-32.727,51.621-67.39,109.083-87.607,170.7C263.9,1043.73,333.643,1105.06,395.919,1120.28c15.289,3.73,43.809,1.55,56.158-2.25,49.953-15.38,115.151-75.03,94.346-150.482-25.08-90.957-84.472-155.1-123.548-231.34h-8.986Z"/>
</svg>
